<svg width="19" height="19" viewBox="0 0 19 19" fill="none" xmlns="http://www.w3.org/2000/svg">
<path d="M0.599609 2.75C0.599609 2.30245 0.775424 1.87322 1.08837 1.55676C1.40133 1.24029 1.82578 1.0625 2.26836 1.0625H16.7309C17.1734 1.0625 17.5979 1.24029 17.9108 1.55676C18.2238 1.87322 18.3996 2.30245 18.3996 2.75V5C18.3996 5.44755 18.2238 5.87678 17.9108 6.19324C17.5979 6.50971 17.1734 6.6875 16.7309 6.6875H2.26836C1.82578 6.6875 1.40133 6.50971 1.08837 6.19324C0.775424 5.87678 0.599609 5.44755 0.599609 5L0.599609 2.75ZM2.26836 2.1875C2.12083 2.1875 1.97935 2.24676 1.87503 2.35225C1.77071 2.45774 1.71211 2.60082 1.71211 2.75V5C1.71211 5.14918 1.77071 5.29226 1.87503 5.39775C1.97935 5.50324 2.12083 5.5625 2.26836 5.5625H16.7309C16.8784 5.5625 17.0199 5.50324 17.1242 5.39775C17.2285 5.29226 17.2871 5.14918 17.2871 5V2.75C17.2871 2.60082 17.2285 2.45774 17.1242 2.35225C17.0199 2.24676 16.8784 2.1875 16.7309 2.1875H2.26836Z" fill="#818181"/>
<path d="M2.82461 3.875C2.82461 3.72582 2.88321 3.58274 2.98753 3.47725C3.09185 3.37176 3.23333 3.3125 3.38086 3.3125H6.71836C6.86589 3.3125 7.00737 3.37176 7.11169 3.47725C7.216 3.58274 7.27461 3.72582 7.27461 3.875C7.27461 4.02418 7.216 4.16726 7.11169 4.27275C7.00737 4.37824 6.86589 4.4375 6.71836 4.4375H3.38086C3.23333 4.4375 3.09185 4.37824 2.98753 4.27275C2.88321 4.16726 2.82461 4.02418 2.82461 3.875ZM14.8652 4.23838L14.4246 3.79288C14.3856 3.75354 14.3591 3.70338 14.3483 3.64876C14.3375 3.59413 14.343 3.53751 14.3641 3.48605C14.3852 3.4346 14.421 3.39064 14.4668 3.35974C14.5126 3.32884 14.5665 3.3124 14.6216 3.3125H15.5027C15.5577 3.3124 15.6116 3.32884 15.6574 3.35974C15.7033 3.39064 15.739 3.4346 15.7601 3.48605C15.7812 3.53751 15.7867 3.59413 15.7759 3.64876C15.7651 3.70338 15.7386 3.75354 15.6996 3.79288L15.259 4.23838C15.2332 4.26457 15.2025 4.28535 15.1687 4.29953C15.1349 4.3137 15.0987 4.321 15.0621 4.321C15.0255 4.321 14.9893 4.3137 14.9555 4.29953C14.9217 4.28535 14.891 4.26457 14.8652 4.23838ZM0.599609 10.0625C0.599609 9.46576 0.834028 8.89347 1.2513 8.47151C1.66857 8.04955 2.2345 7.8125 2.82461 7.8125H16.1746C16.7647 7.8125 17.3307 8.04955 17.7479 8.47151C18.1652 8.89347 18.3996 9.46576 18.3996 10.0625V15.6875C18.3996 16.2842 18.1652 16.8565 17.7479 17.2785C17.3307 17.7004 16.7647 17.9375 16.1746 17.9375H2.82461C2.2345 17.9375 1.66857 17.7004 1.2513 17.2785C0.834028 16.8565 0.599609 16.2842 0.599609 15.6875V10.0625ZM1.71211 13.4375V15.6875C1.71211 15.9859 1.82932 16.272 2.03795 16.483C2.24659 16.694 2.52956 16.8125 2.82461 16.8125H16.1746C16.4697 16.8125 16.7526 16.694 16.9613 16.483C17.1699 16.272 17.2871 15.9859 17.2871 15.6875V13.4375H1.71211ZM17.2871 12.3125V10.0625C17.2871 9.76413 17.1699 9.47798 16.9613 9.26701C16.7526 9.05603 16.4697 8.9375 16.1746 8.9375H2.82461C2.52956 8.9375 2.24659 9.05603 2.03795 9.26701C1.82932 9.47798 1.71211 9.76413 1.71211 10.0625V12.3125H17.2871ZM2.82461 10.625C2.82461 10.4758 2.88321 10.3327 2.98753 10.2273C3.09185 10.1218 3.23333 10.0625 3.38086 10.0625H13.3934C13.5409 10.0625 13.6824 10.1218 13.7867 10.2273C13.891 10.3327 13.9496 10.4758 13.9496 10.625C13.9496 10.7742 13.891 10.9173 13.7867 11.0227C13.6824 11.1282 13.5409 11.1875 13.3934 11.1875H3.38086C3.23333 11.1875 3.09185 11.1282 2.98753 11.0227C2.88321 10.9173 2.82461 10.7742 2.82461 10.625ZM2.82461 15.125C2.82461 14.9758 2.88321 14.8327 2.98753 14.7273C3.09185 14.6218 3.23333 14.5625 3.38086 14.5625H10.0559C10.2034 14.5625 10.3449 14.6218 10.4492 14.7273C10.5535 14.8327 10.6121 14.9758 10.6121 15.125C10.6121 15.2742 10.5535 15.4173 10.4492 15.5227C10.3449 15.6282 10.2034 15.6875 10.0559 15.6875H3.38086C3.23333 15.6875 3.09185 15.6282 2.98753 15.5227C2.88321 15.4173 2.82461 15.2742 2.82461 15.125Z" fill="#818181"/>
</svg>
