<svg width="19" height="19" viewBox="0 0 19 19" fill="none" xmlns="http://www.w3.org/2000/svg">
<path d="M3.14062 9.50003C3.14062 9.14499 3.42844 8.85718 3.78348 8.85718H11.3978C11.7528 8.85718 12.0406 9.14499 12.0406 9.50003C12.0406 9.85508 11.7528 10.1429 11.3978 10.1429H3.78348C3.42844 10.1429 3.14062 9.85508 3.14062 9.50003Z" fill="#818181"/>
<path d="M17.1282 13.3571H1.87104C1.16984 13.3571 0.599609 12.7805 0.599609 12.0714V6.92854C0.599609 6.21947 1.16984 5.64282 1.87104 5.64282H17.1282C17.8294 5.64282 18.3996 6.21947 18.3996 6.92854V12.0714C18.3996 12.7805 17.8294 13.3571 17.1282 13.3571ZM2.12104 6.92854C1.98297 6.92854 1.87104 7.04047 1.87104 7.17854V11.8214C1.87104 11.9595 1.98297 12.0714 2.12104 12.0714H16.8782C17.0163 12.0714 17.1282 11.9595 17.1282 11.8214V7.17854C17.1282 7.04047 17.0163 6.92854 16.8782 6.92854H2.12104Z" fill="#818181"/>
</svg>
