<svg width="19" height="19" viewBox="0 0 19 19" fill="none" xmlns="http://www.w3.org/2000/svg">
    <path d="M17.4597 3.16574C17.0252 3.20639 16.6848 3.25155 16.4339 3.30123C16.1831 3.35543 15.9994 3.45028 15.8785 3.5948C15.7576 3.73933 15.6814 3.94708 15.6545 4.21807C15.6277 4.48905 15.6142 4.85488 15.6142 5.32008V13.6709C15.6142 14.1407 15.6321 14.511 15.668 14.7775C15.7038 15.0439 15.7844 15.2517 15.9188 15.3917C16.0532 15.5317 16.2413 15.6356 16.4877 15.6898C16.7385 15.744 17.0745 15.7937 17.5 15.8343V16.6111H10.6915V15.8343C11.1439 15.7937 11.4978 15.7485 11.7576 15.6898C12.0174 15.6356 12.2144 15.5362 12.3443 15.3917C12.4742 15.2472 12.5594 15.0439 12.5952 14.7775C12.631 14.511 12.6489 14.1407 12.6489 13.6709V9.65133H6.3645V13.6709C6.3645 14.1407 6.38242 14.511 6.41825 14.7775C6.45409 15.0439 6.53471 15.2517 6.65565 15.3917C6.7766 15.5317 6.96025 15.6356 7.20213 15.6898C7.44401 15.744 7.77548 15.7937 8.19205 15.8343V16.6111H1.59406V15.8343C1.9972 15.7937 2.31971 15.7485 2.56607 15.6898C2.81243 15.6356 2.99608 15.5362 3.1215 15.3917C3.24692 15.2472 3.33203 15.0439 3.37234 14.7775C3.41265 14.511 3.43057 14.1407 3.43057 13.6709V5.32008C3.43057 4.8594 3.41265 4.48905 3.37234 4.21807C3.33203 3.94708 3.24692 3.73933 3.11254 3.5948C2.97816 3.45028 2.78108 3.35543 2.52576 3.30123C2.27044 3.25155 1.92553 3.20187 1.5 3.16574V2.38892H8.17861V3.16574C7.76652 3.20639 7.43953 3.25155 7.19765 3.30123C6.95577 3.35543 6.7766 3.45028 6.65118 3.5948C6.52576 3.73933 6.44961 3.94708 6.41377 4.21807C6.37794 4.48905 6.36002 4.85488 6.36002 5.32008V8.51319H12.6355V5.32008C12.6355 4.8594 12.6176 4.48905 12.5862 4.21807C12.5549 3.94708 12.4742 3.73933 12.3488 3.5948C12.2234 3.45028 12.0353 3.35543 11.7934 3.30123C11.547 3.25155 11.2111 3.20187 10.7856 3.16574V2.38892H17.4552V3.16574H17.4597Z"
          fill="#818181"/>
</svg>
