<svg width="19" height="19" viewBox="0 0 19 19" fill="none" xmlns="http://www.w3.org/2000/svg">
<path d="M15.6538 17.49H3.28646C3.27659 17.4498 3.23707 17.4599 3.21238 17.4549C2.38262 17.2492 1.86403 16.7226 1.66153 15.8799C1.65659 15.8498 1.66153 15.8147 1.62695 15.8047V5.18652C1.68128 5.15643 1.66647 5.09624 1.67634 5.04608C1.88872 4.24357 2.3925 3.74702 3.17781 3.54138C3.45933 3.46614 3.75073 3.50125 4.03719 3.49624C4.24957 3.49624 4.24957 3.49624 4.24957 3.2906C4.24957 2.93448 4.24957 2.58339 4.24957 2.22727C4.24957 1.77586 4.52122 1.5 4.96573 1.5C5.14353 1.5 5.32628 1.5 5.50408 1.5C5.95353 1.5 6.2153 1.76583 6.2153 2.22727C6.2153 2.59843 6.22024 2.96458 6.2153 3.33574C6.2153 3.46113 6.23506 3.50125 6.36841 3.50125C8.45762 3.50125 10.5518 3.50125 12.641 3.50125C12.7496 3.50125 12.7891 3.48119 12.7891 3.36082C12.7793 2.97461 12.7842 2.5884 12.7891 2.20721C12.7891 1.77586 13.0608 1.50502 13.4806 1.50502C13.6584 1.50502 13.8411 1.50502 14.019 1.50502C14.4931 1.50502 14.7549 1.77085 14.7549 2.26238C14.7549 2.64357 14.7549 3.01975 14.7549 3.40094C14.7549 3.48119 14.7697 3.51129 14.8536 3.50627C15.0413 3.50125 15.2339 3.50627 15.4216 3.50627C16.4934 3.5163 17.3725 4.39404 17.3725 5.48245C17.3725 8.8279 17.3725 12.1734 17.3725 15.5188C17.3725 16.4367 16.7453 17.2241 15.8661 17.4448C15.797 17.4649 15.713 17.4448 15.6538 17.5V17.49ZM9.49975 9.3094C7.36609 9.3094 5.23738 9.3094 3.10372 9.3094C2.96543 9.3094 2.94073 9.34451 2.94073 9.45988C2.94073 11.4762 2.94073 13.4925 2.94073 15.5138C2.94073 15.9451 3.19262 16.1658 3.68652 16.1658C7.56365 16.1658 11.4358 16.1658 15.313 16.1658C15.8069 16.1658 16.0588 15.9451 16.0588 15.5138C16.0588 13.4975 16.0588 11.4812 16.0588 9.45988C16.0588 9.34451 16.0341 9.31442 15.8958 9.31442C13.7621 9.31442 11.6334 9.31442 9.49975 9.31442V9.3094ZM9.49975 7.88997C11.6334 7.88997 13.7621 7.88997 15.8958 7.88997C16.0341 7.88997 16.0588 7.84984 16.0588 7.71944C16.0588 5.39216 16.0588 8.07555 16.0588 5.74828C16.0588 5.25172 15.8069 4.99592 15.313 4.99592C11.4358 4.99592 7.56365 4.99592 3.68652 4.99592C3.19262 4.99592 2.94073 5.25172 2.94073 5.74828C2.94073 8.07555 2.94073 5.39216 2.94073 7.71944C2.94073 7.84984 2.96543 7.88997 3.10372 7.88997C5.23738 7.88495 7.36609 7.88997 9.49975 7.88997Z" fill="#818181"/>
</svg>
