<svg width="19" height="19" viewBox="0 0 19 19" fill="none" xmlns="http://www.w3.org/2000/svg">
<path d="M17.0304 1.88464H1.96884C1.6057 1.88464 1.25743 2.03052 1.00065 2.29019C0.743867 2.54985 0.599609 2.90204 0.599609 3.26926V15.7308C0.599609 16.098 0.743867 16.4502 1.00065 16.7099C1.25743 16.9695 1.6057 17.1154 1.96884 17.1154H17.0304C17.3935 17.1154 17.7418 16.9695 17.9986 16.7099C18.2554 16.4502 18.3996 16.098 18.3996 15.7308V3.26926C18.3996 2.90204 18.2554 2.54985 17.9986 2.29019C17.7418 2.03052 17.3935 1.88464 17.0304 1.88464ZM17.0304 3.26926V12.1611L14.7994 9.90589C14.6722 9.77729 14.5213 9.67527 14.3551 9.60566C14.189 9.53606 14.0109 9.50024 13.8311 9.50024C13.6512 9.50024 13.4732 9.53606 13.307 9.60566C13.1409 9.67527 12.9899 9.77729 12.8628 9.90589L11.1512 11.6367L7.38586 7.82897C7.12911 7.5695 6.78097 7.42375 6.41798 7.42375C6.055 7.42375 5.70686 7.5695 5.45011 7.82897L1.96884 11.3494V3.26926H17.0304ZM1.96884 13.3077L6.41884 8.80772L13.265 15.7308H1.96884V13.3077ZM17.0304 15.7308H15.2016L12.1208 12.6154L13.8324 10.8846L17.0304 14.1195V15.7308ZM10.8688 7.07695C10.8688 6.87156 10.9291 6.67079 11.0419 6.50001C11.1547 6.32924 11.3151 6.19614 11.5028 6.11754C11.6904 6.03894 11.8969 6.01837 12.0961 6.05844C12.2953 6.09851 12.4783 6.19742 12.6219 6.34265C12.7655 6.48788 12.8633 6.67291 12.903 6.87436C12.9426 7.0758 12.9222 7.2846 12.8445 7.47435C12.7668 7.66411 12.6352 7.82629 12.4663 7.9404C12.2974 8.05451 12.0989 8.11541 11.8958 8.11541C11.6234 8.11541 11.3622 8.006 11.1696 7.81125C10.977 7.6165 10.8688 7.35237 10.8688 7.07695Z" fill="#818181"/>
</svg>
