<svg width="19" height="19" viewBox="0 0 19 19" fill="none" xmlns="http://www.w3.org/2000/svg">
<path d="M16.8737 4.81487H15.4405C15.8458 4.43129 16.5021 4.17558 17.2501 4.17558H17.4914V3.29883H17.2501C16.145 3.29883 15.1316 3.73264 14.5622 4.44499C13.9928 3.7372 12.9794 3.29883 11.8743 3.29883H11.633V4.17558H11.8743C12.6223 4.17558 13.2786 4.43129 13.6839 4.81487H2.1311C1.23351 4.81487 0.5 5.5044 0.5 6.35831V12.6417C0.5 13.491 1.22869 14.1851 2.1311 14.1851H13.6791C13.2737 14.5687 12.6174 14.8244 11.8694 14.8244H11.6281V15.7011H11.8694C12.9745 15.7011 13.9879 15.2673 14.5574 14.555C15.1268 15.2628 16.1402 15.7011 17.2453 15.7011H17.4866V14.8244H17.2453C16.4973 14.8244 15.841 14.5687 15.4357 14.1851H16.8689C17.7665 14.1851 18.5 13.4956 18.5 12.6417V6.35374C18.5 5.5044 17.7713 4.8103 16.8689 4.8103L16.8737 4.81487ZM1.82708 12.6371V6.35374C1.82708 6.19849 1.9622 6.07063 2.12627 6.07063H14.0989V12.9248H2.1311C1.96702 12.9248 1.8319 12.7969 1.8319 12.6417L1.82708 12.6371ZM17.1777 12.6371C17.1777 12.7924 17.0426 12.9202 16.8786 12.9202H15.0255V6.07063H16.8786C17.0426 6.07063 17.1777 6.19849 17.1777 6.35374V12.6371Z" fill="#818181"/>
<path d="M4.71302 6.84961L3.42969 11.5581H4.13224L4.44137 10.381H5.62634L5.93079 11.5581H6.62866L5.35469 6.84961H4.70834H4.71302ZM4.63808 9.59621L5.0362 8.09748L5.42963 9.59621H4.63808Z" fill="#818181"/>
<path d="M8.81705 9.15242C8.88262 9.07523 8.93883 8.98518 8.98566 8.87583C9.06997 8.68286 9.11212 8.45773 9.11212 8.20687C9.11212 7.7759 9.00908 7.44142 8.80768 7.20342C8.61097 6.97186 8.35336 6.85608 8.03955 6.85608H6.71875V11.5645H8.15665C8.47982 11.5645 8.73743 11.4552 8.93414 11.2429C9.13554 11.0242 9.23858 10.6897 9.23858 10.2524C9.23858 9.95003 9.18238 9.69274 9.06529 9.47404C8.99503 9.34539 8.91072 9.23604 8.81705 9.15242ZM7.37915 8.81151V7.66655H8.00208C8.15196 7.66655 8.26437 7.71801 8.344 7.8145C8.41893 7.91098 8.4564 8.04606 8.4564 8.2326C8.4564 8.41914 8.41893 8.56065 8.33931 8.65713C8.25969 8.76005 8.14728 8.81151 8.00208 8.81151H7.37915ZM8.58755 10.1687C8.58755 10.3553 8.55008 10.4968 8.47045 10.5933C8.39083 10.6962 8.27842 10.7476 8.13323 10.7476H7.37915V9.58982H8.13323C8.28311 9.58982 8.39083 9.64128 8.47045 9.7442C8.55008 9.84711 8.58755 9.98862 8.58755 10.1752V10.1687Z" fill="#818181"/>
<path d="M11.7146 10.0209C11.6912 10.1495 11.6444 10.2782 11.5835 10.394C11.5226 10.5033 11.443 10.5998 11.3493 10.6706C11.2556 10.7413 11.1338 10.7799 10.998 10.7799C10.8107 10.7799 10.6561 10.7156 10.539 10.5934C10.4172 10.4712 10.3236 10.291 10.2627 10.0595C10.1971 9.82149 10.1643 9.53203 10.1643 9.20399C10.1643 8.87594 10.1971 8.59291 10.2627 8.34849C10.3236 8.12335 10.4172 7.94325 10.539 7.8146C10.6608 7.69239 10.8153 7.62806 10.998 7.62806C11.1338 7.62806 11.2556 7.66666 11.3493 7.73741C11.4476 7.80817 11.5273 7.90465 11.5835 8.014C11.6444 8.12979 11.6912 8.25843 11.7146 8.39351L11.738 8.52216L12.3938 8.46427L12.375 8.29059C12.3516 8.10406 12.3048 7.92395 12.2345 7.74385C12.1643 7.57017 12.0659 7.40936 11.9488 7.26785C11.8317 7.12634 11.6912 7.01699 11.5366 6.93337C11.3774 6.84975 11.1994 6.81116 11.0027 6.81116C10.6889 6.81116 10.4172 6.91407 10.1924 7.11348C9.96759 7.31288 9.7943 7.5959 9.6772 7.95611C9.56011 8.30989 9.50391 8.72799 9.50391 9.19755C9.50391 9.66711 9.56011 10.0916 9.6772 10.439C9.7943 10.7992 9.96759 11.0822 10.1924 11.2816C10.4172 11.481 10.6889 11.5839 11.0027 11.5839C11.1994 11.5839 11.3774 11.5454 11.5366 11.4617C11.6959 11.3781 11.8364 11.2688 11.9488 11.1273C12.0659 10.9857 12.1596 10.8249 12.2298 10.6513C12.3001 10.4776 12.3516 10.291 12.3703 10.1109L12.3891 9.93727L11.7333 9.88581L11.7099 10.0145L11.7146 10.0209Z" fill="#818181"/>
</svg>
