<svg width="19" height="19" viewBox="0 0 19 19" fill="none" xmlns="http://www.w3.org/2000/svg">
<path d="M2.58651 14.7369H0.5L4.39282 4.26306H6.53937L10.4072 14.7369H8.32567L7.44003 12.1892H3.47716L2.59151 14.7369H2.58651ZM6.94967 10.6745L5.4686 6.44822L3.97252 10.6745H6.94967Z" fill="#818181"/>
<path d="M16.1778 12.6023C16.0174 12.8664 15.8182 13.1066 15.5753 13.3179C15.3324 13.5292 15.0409 13.6973 14.7056 13.8221C14.3655 13.9422 13.9671 14.0046 13.5153 14.0046C12.8254 14.0046 12.2861 13.8221 11.8877 13.4571C11.4893 13.0922 11.2949 12.5831 11.2949 11.93C11.2949 11.3729 11.4358 10.907 11.7176 10.5276C11.9994 10.1531 12.3784 9.86971 12.8497 9.67761C13.3209 9.48551 13.8359 9.39426 14.3995 9.39426C14.8222 9.39426 15.2109 9.42308 15.5656 9.48551C15.9203 9.54794 16.2701 9.62478 16.6053 9.72563L16.0077 10.7053C15.8036 10.6525 15.5947 10.6189 15.3761 10.5949C15.1575 10.5757 14.9291 10.5613 14.6813 10.5613C14.1663 10.5613 13.7485 10.6573 13.4375 10.8446C13.1266 11.0319 12.9663 11.3008 12.9663 11.6514C12.9663 11.9396 13.0586 12.1605 13.2383 12.3238C13.423 12.487 13.7048 12.5687 14.0934 12.5687C14.3364 12.5687 14.555 12.5351 14.7542 12.4678C14.9534 12.4006 15.1283 12.319 15.2838 12.2229C15.4393 12.1221 15.5704 12.0212 15.6773 11.9156C15.7842 11.8099 15.8765 11.7139 15.9397 11.6322L16.547 11.7715C16.4547 12.0596 16.3332 12.3334 16.1729 12.5975L16.1778 12.6023ZM16.3187 6.56562C16.7948 6.77212 17.1543 7.06987 17.3973 7.44927C17.6402 7.82866 17.7616 8.27049 17.7616 8.77955V11.9828C17.7616 12.2469 17.8151 12.4438 17.9171 12.5783C18.0191 12.7128 18.2183 12.78 18.5001 12.78V13.9422C18.0046 14.0094 17.5624 13.9854 17.164 13.8798C16.7656 13.7741 16.4498 13.5628 16.2166 13.2554C15.9834 12.9481 15.8668 12.5207 15.8668 11.9828V8.78915C15.8668 8.42897 15.7453 8.16003 15.5024 7.98714C15.2595 7.81426 14.9194 7.72781 14.4773 7.72781C14.0351 7.72781 13.695 7.81426 13.4473 7.98234C13.2043 8.15043 13.0829 8.41937 13.0829 8.78915H11.4601C11.431 8.26569 11.533 7.81426 11.7711 7.43966C12.0043 7.06507 12.3589 6.77692 12.8254 6.57042C13.2918 6.36391 13.8748 6.26306 14.5599 6.26306C15.2449 6.26306 15.8377 6.36872 16.3089 6.57522L16.3187 6.56562Z" fill="#818181"/>
</svg>
