<svg width="19" height="19" viewBox="0 0 19 19" fill="none" xmlns="http://www.w3.org/2000/svg">
<path d="M9.50096 1.5C7.93629 1.5 6.40675 1.96919 5.10578 2.84824C3.8048 3.72729 2.79082 4.97672 2.19204 6.43853C1.59327 7.90034 1.43661 9.50887 1.74186 11.0607C2.04711 12.6126 2.80057 14.038 3.90696 15.1569C5.01335 16.2757 6.42297 17.0376 7.95758 17.3463C9.49218 17.655 11.0828 17.4965 12.5284 16.891C13.974 16.2855 15.2095 15.2602 16.0788 13.9446C16.9481 12.629 17.4121 11.0822 17.4121 9.5C17.4121 7.37827 16.5786 5.34344 15.095 3.84315C13.6113 2.34285 11.5991 1.5 9.50096 1.5ZM9.50096 16.3571C8.15981 16.3571 6.84878 15.955 5.73366 15.2015C4.61854 14.448 3.74941 13.3771 3.23618 12.1241C2.72294 10.8711 2.58866 9.49239 2.8503 8.16224C3.11194 6.83208 3.75777 5.61026 4.7061 4.65127C5.65443 3.69228 6.86268 3.0392 8.17806 2.77461C9.49344 2.51003 10.8569 2.64582 12.0959 3.16483C13.335 3.68383 14.394 4.56272 15.1391 5.69038C15.8842 6.81803 16.2819 8.14378 16.2819 9.5C16.2819 11.3186 15.5675 13.0628 14.2958 14.3487C13.0241 15.6347 11.2994 16.3571 9.50096 16.3571Z" fill="#818181"/>
<path d="M9.49985 6.07141C8.82928 6.07141 8.17377 6.27249 7.6162 6.64923C7.05864 7.02597 6.62408 7.56144 6.36746 8.18792C6.11084 8.81441 6.0437 9.50378 6.17452 10.1689C6.30535 10.8339 6.62826 11.4449 7.10242 11.9243C7.57659 12.4038 8.18072 12.7304 8.8384 12.8627C9.49609 12.995 10.1778 12.9271 10.7973 12.6676C11.4169 12.4081 11.9464 11.9686 12.3189 11.4048C12.6915 10.841 12.8903 10.1781 12.8903 9.49998C12.8903 8.59067 12.5331 7.7186 11.8973 7.07562C11.2614 6.43263 10.3991 6.07141 9.49985 6.07141Z" fill="#818181"/>
</svg>
