<svg width="19" height="19" viewBox="0 0 19 19" fill="none" xmlns="http://www.w3.org/2000/svg">
    <path d="M17.2752 1.89471H1.72398C1.10433 1.89471 0.599609 2.4051 0.599609 3.03172V6.45788C0.599609 7.0845 1.10433 7.59488 1.72398 7.59488H17.2752C17.8949 7.59488 18.3996 7.0845 18.3996 6.45788V3.03172C18.3996 2.4051 17.8949 1.89471 17.2752 1.89471ZM1.84891 3.15805H13.1526V6.33155H1.84891V3.15805ZM17.1503 6.33155H14.4019V3.15805H17.1503V6.33155Z"
          fill="#818181"/>
    <path d="M12.7178 8.44385H1.72398C1.10433 8.44385 0.599609 8.95424 0.599609 9.58085V11.3192C0.599609 11.9458 1.10433 12.4562 1.72398 12.4562H12.7178C13.3375 12.4562 13.8422 11.9458 13.8422 11.3192V9.58085C13.8422 8.95424 13.3375 8.44385 12.7178 8.44385ZM12.5929 11.1929H1.84891V9.70718H12.5929V11.1929Z"
          fill="#818181"/>
    <path d="M12.7178 13.0929H1.72398C1.10433 13.0929 0.599609 13.6033 0.599609 14.2299V15.9682C0.599609 16.5949 1.10433 17.1052 1.72398 17.1052H12.7178C13.3375 17.1052 13.8422 16.5949 13.8422 15.9682V14.2299C13.8422 13.6033 13.3375 13.0929 12.7178 13.0929ZM12.5929 15.8419H1.84891V14.3562H12.5929V15.8419Z"
          fill="#818181"/>
</svg>
