<svg width="19" height="19" viewBox="0 0 19 19" fill="none" xmlns="http://www.w3.org/2000/svg">
<path d="M16.4133 1.79742H2.58205C1.70677 1.79742 1 2.48343 1 3.32637V6.40199C1 7.24493 1.70677 7.93094 2.58205 7.93094H16.4179C17.2885 7.93094 18 7.24493 18 6.40199V3.32637C18 2.48343 17.2932 1.79742 16.4179 1.79742H16.4133ZM2.28717 3.32637C2.28717 3.16944 2.41823 3.03941 2.57737 3.03941H16.4133C16.5724 3.03941 16.7035 3.16944 16.7035 3.32637V6.40199C16.7035 6.55892 16.5724 6.68895 16.4133 6.68895H2.58205C2.42291 6.68895 2.29185 6.55892 2.29185 6.40199V3.32637H2.28717Z" fill="#818181"/>
<path d="M5.40947 9.93403C5.52333 9.81889 5.5873 9.66272 5.5873 9.49989C5.5873 9.33706 5.52333 9.18089 5.40947 9.06575C5.29561 8.95061 5.14118 8.88593 4.98016 8.88593H1.60714C1.44612 8.88593 1.29169 8.95061 1.17783 9.06575C1.06397 9.18089 1 9.33706 1 9.49989C1 9.66272 1.06397 9.81889 1.17783 9.93403C1.29169 10.0492 1.44612 10.1139 1.60714 10.1139H4.98016C5.14118 10.1139 5.29561 10.0492 5.40947 9.93403Z" fill="#818181"/>
<path d="M11.6146 9.93403C11.7284 9.81889 11.7924 9.66272 11.7924 9.49989C11.7924 9.33706 11.7284 9.18089 11.6146 9.06575C11.5007 8.95061 11.3463 8.88593 11.1852 8.88593H7.81222C7.6512 8.88593 7.49677 8.95061 7.38291 9.06575C7.26904 9.18089 7.20508 9.33706 7.20508 9.49989C7.20508 9.66272 7.26904 9.81889 7.38291 9.93403C7.49677 10.0492 7.6512 10.1139 7.81222 10.1139H11.1852C11.3463 10.1139 11.5007 10.0492 11.6146 9.93403Z" fill="#818181"/>
<path d="M17.8235 9.93403C17.9374 9.81889 18.0014 9.66272 18.0014 9.49989C18.0014 9.33706 17.9374 9.18089 17.8235 9.06575C17.7097 8.95061 17.5552 8.88593 17.3942 8.88593H14.0212C13.8602 8.88593 13.7058 8.95061 13.5919 9.06575C13.478 9.18089 13.4141 9.33706 13.4141 9.49989C13.4141 9.66272 13.478 9.81889 13.5919 9.93403C13.7058 10.0492 13.8602 10.1139 14.0212 10.1139H17.3942C17.5552 10.1139 17.7097 10.0492 17.8235 9.93403Z" fill="#818181"/>
<path d="M16.4133 11.069H2.58205C1.70677 11.069 1 11.755 1 12.598V15.6736C1 16.5165 1.70677 17.2025 2.58205 17.2025H16.4179C17.2885 17.2025 18 16.5165 18 15.6736V12.598C18 11.755 17.2932 11.069 16.4179 11.069H16.4133ZM2.28717 12.598C2.28717 12.441 2.41823 12.311 2.57737 12.311H16.4133C16.5724 12.311 16.7035 12.441 16.7035 12.598V15.6736C16.7035 15.8305 16.5724 15.9606 16.4133 15.9606H2.58205C2.42291 15.9606 2.29185 15.8305 2.29185 15.6736V12.598H2.28717Z" fill="#818181"/>
</svg>
