<svg width="19" height="19" viewBox="0 0 19 19" fill="none" xmlns="http://www.w3.org/2000/svg">
<path d="M18.4763 12.1806C18.4766 12.1787 18.4766 12.1768 18.4763 12.1749L16.909 6.89765C16.8405 6.66274 16.6985 6.45667 16.5042 6.31048C16.3099 6.16428 16.0739 6.08588 15.8318 6.08707H15.1251C14.9759 6.08707 14.8329 6.147 14.7274 6.25368C14.6219 6.36035 14.5626 6.50504 14.5626 6.6559C14.5626 6.80676 14.6219 6.95144 14.7274 7.05812C14.8329 7.16479 14.9759 7.22472 15.1251 7.22472H15.8318L17.1818 11.7753H14.9845L13.5339 6.89765C13.4655 6.66274 13.3235 6.45667 13.1292 6.31048C12.9349 6.16428 12.6989 6.08588 12.4567 6.08707H11.7501C11.6009 6.08707 11.4578 6.147 11.3523 6.25368C11.2469 6.36035 11.1876 6.50504 11.1876 6.6559C11.1876 6.80676 11.2469 6.95144 11.3523 7.05812C11.4578 7.16479 11.6009 7.22472 11.7501 7.22472H12.4567L13.8068 11.7753H11.6095L10.1589 6.89765C10.0905 6.66274 9.94844 6.45667 9.75416 6.31048C9.55988 6.16428 9.32388 6.08588 9.08172 6.08707H3.1719C2.92913 6.0851 2.69234 6.16315 2.49735 6.3094C2.30236 6.45565 2.15978 6.66215 2.09119 6.89765L0.526016 12.1735V12.1827C0.509796 12.235 0.501036 12.2894 0.5 12.3441C0.5 12.495 0.559264 12.6397 0.664754 12.7464C0.770244 12.853 0.913319 12.913 1.0625 12.913H17.9377C18.0253 12.913 18.1118 12.8922 18.1901 12.8524C18.2685 12.8125 18.3365 12.7547 18.3889 12.6836C18.4412 12.6124 18.4763 12.5299 18.4915 12.4426C18.5067 12.3552 18.5015 12.2655 18.4763 12.1806ZM3.1719 7.22472H9.08523L10.4352 11.7753H1.81837L3.1719 7.22472Z" fill="#818181"/>
</svg>
