<svg width="19" height="19" viewBox="0 0 19 19" fill="none" xmlns="http://www.w3.org/2000/svg">
    <path d="M17.8761 2.61768H1.12314C0.98429 2.61768 0.851128 2.67345 0.752948 2.77274C0.654767 2.87202 0.599609 3.00668 0.599609 3.14709V15.1471C0.599609 15.4747 0.72831 15.7889 0.957399 16.0206C1.18649 16.2522 1.4972 16.3824 1.82118 16.3824H17.178C17.502 16.3824 17.8127 16.2522 18.0418 16.0206C18.2709 15.7889 18.3996 15.4747 18.3996 15.1471V3.14709C18.3996 3.00668 18.3445 2.87202 18.2463 2.77274C18.1481 2.67345 18.0149 2.61768 17.8761 2.61768ZM1.64667 7.91179H5.48588V11.0883H1.64667V7.91179ZM6.53294 7.91179H17.3526V11.0883H6.53294V7.91179ZM17.3526 3.6765V6.85297H1.64667V3.6765H17.3526ZM1.64667 15.1471V12.1471H5.48588V15.3236H1.82118C1.7749 15.3236 1.73051 15.305 1.69778 15.2719C1.66505 15.2388 1.64667 15.1939 1.64667 15.1471ZM17.178 15.3236H6.53294V12.1471H17.3526V15.1471C17.3526 15.1939 17.3342 15.2388 17.3014 15.2719C17.2687 15.305 17.2243 15.3236 17.178 15.3236Z"
          fill="#818181"/>
</svg>
