<svg width="19" height="19" viewBox="0 0 19 19" fill="none" xmlns="http://www.w3.org/2000/svg">
<path d="M5.80296 17C4.57305 17 3.34298 16.5345 2.40678 15.6036C1.49958 14.7014 1 13.5022 1 12.2266C1 10.951 1.49958 9.75162 2.40678 8.84975L6.32861 4.95024L7.23839 5.85484L3.31656 9.75435C2.65245 10.4147 2.28669 11.2927 2.28669 12.2266C2.28669 13.1605 2.65245 14.0385 3.31656 14.6988C4.68765 16.0621 6.91843 16.0621 8.28936 14.6988L16.0781 6.95441C16.4917 6.54331 16.7172 5.99659 16.7132 5.41508C16.7093 4.83373 16.4763 4.29009 16.057 3.88461C15.2117 3.06684 13.8456 3.07622 13.0119 3.90542L6.14899 10.7292C6.00866 10.8688 5.93128 11.0544 5.93128 11.2517C5.93128 11.4491 6.00866 11.6348 6.14899 11.7744C6.43875 12.0625 6.91037 12.0625 7.19996 11.7744L13.0827 5.92512L13.9927 6.82971L8.10991 12.679C7.3185 13.4659 6.03061 13.4659 5.23921 12.679C4.85578 12.2977 4.64459 11.7908 4.64459 11.2517C4.64459 10.7127 4.85578 10.2057 5.23921 9.82446L12.1021 3.00065C13.4308 1.67949 15.6075 1.66465 16.9544 2.96756C17.6223 3.61373 17.9936 4.47977 17.9999 5.4062C18.0063 6.33264 17.6469 7.2038 16.9881 7.85884L9.1993 15.6034C8.26294 16.5345 7.03303 16.9998 5.80313 16.9998L5.80296 17Z" fill="#818181"/>
</svg>
