<svg width="19" height="19" viewBox="0 0 19 19" fill="none" xmlns="http://www.w3.org/2000/svg">
<path d="M8.12567 6.2105C8.04147 6.15728 7.94472 6.12783 7.84546 6.12519C7.7462 6.12256 7.64805 6.14684 7.56121 6.19551C7.47436 6.24419 7.40198 6.31548 7.35158 6.402C7.30119 6.48851 7.27461 6.58709 7.27461 6.6875V12.4812C7.27459 12.5829 7.30183 12.6827 7.35341 12.7699C7.40499 12.8572 7.479 12.9287 7.56756 12.9768C7.65611 13.025 7.75591 13.0479 7.85634 13.0432C7.95677 13.0386 8.05408 13.0065 8.13791 12.9504L12.5879 9.97025C12.6654 9.91832 12.7288 9.84759 12.7722 9.76452C12.8157 9.68144 12.8379 9.58867 12.8368 9.49469C12.8357 9.4007 12.8113 9.30849 12.7659 9.22649C12.7205 9.14448 12.6555 9.0753 12.5768 9.02525L8.12567 6.2105ZM3.38086 1.625C2.64323 1.625 1.9358 1.92132 1.41422 2.44876C0.892633 2.97621 0.599609 3.69158 0.599609 4.4375V14.5625C0.599609 15.3084 0.892633 16.0238 1.41422 16.5512C1.9358 17.0787 2.64323 17.375 3.38086 17.375H15.6184C16.356 17.375 17.0634 17.0787 17.585 16.5512C18.1066 16.0238 18.3996 15.3084 18.3996 14.5625V4.4375C18.3996 3.69158 18.1066 2.97621 17.585 2.44876C17.0634 1.92132 16.356 1.625 15.6184 1.625H3.38086ZM1.71211 4.4375C1.71211 3.98995 1.88792 3.56072 2.20087 3.24426C2.51383 2.92779 2.93828 2.75 3.38086 2.75H15.6184C16.0609 2.75 16.4854 2.92779 16.7983 3.24426C17.1113 3.56072 17.2871 3.98995 17.2871 4.4375V14.5625C17.2871 15.0101 17.1113 15.4393 16.7983 15.7557C16.4854 16.0722 16.0609 16.25 15.6184 16.25H3.38086C2.93828 16.25 2.51383 16.0722 2.20087 15.7557C1.88792 15.4393 1.71211 15.0101 1.71211 14.5625V4.4375Z" fill="#818181"/>
</svg>
