<svg width="1138" height="182" viewBox="0 0 1138 182" fill="none" xmlns="http://www.w3.org/2000/svg">
<path d="M53.8992 74.4V62.6H25.6992V74.4H0.199219V181H2.89922V77.1H28.3992V65.3H51.2992V77.1H51.3992V181H53.9992V181.4V74.4H53.8992Z" fill="#F9F9F9"/>
<path d="M17.4992 85.3H7.69922V87.9H17.4992V85.3Z" fill="#F9F9F9"/>
<path d="M31.9992 85.3H22.1992V87.9H31.9992V85.3Z" fill="#F9F9F9"/>
<path d="M46.5988 85.3H36.7988V87.9H46.5988V85.3Z" fill="#F9F9F9"/>
<path d="M17.4992 96.8H7.69922V99.4H17.4992V96.8Z" fill="#F9F9F9"/>
<path d="M31.9992 96.8H22.1992V99.4H31.9992V96.8Z" fill="#F9F9F9"/>
<path d="M46.5988 96.8H36.7988V99.4H46.5988V96.8Z" fill="#F9F9F9"/>
<path d="M17.4992 108.3H7.69922V110.9H17.4992V108.3Z" fill="#F9F9F9"/>
<path d="M31.9992 108.3H22.1992V110.9H31.9992V108.3Z" fill="#F9F9F9"/>
<path d="M46.5988 108.3H36.7988V110.9H46.5988V108.3Z" fill="#F9F9F9"/>
<path d="M17.4992 119.7H7.69922V122.3H17.4992V119.7Z" fill="#F9F9F9"/>
<path d="M31.9992 119.7H22.1992V122.3H31.9992V119.7Z" fill="#F9F9F9"/>
<path d="M46.5988 119.7H36.7988V122.3H46.5988V119.7Z" fill="#F9F9F9"/>
<path d="M17.4992 131.2H7.69922V133.8H17.4992V131.2Z" fill="#F9F9F9"/>
<path d="M31.9992 131.2H22.1992V133.8H31.9992V131.2Z" fill="#F9F9F9"/>
<path d="M46.5988 131.2H36.7988V133.8H46.5988V131.2Z" fill="#F9F9F9"/>
<path d="M17.4992 142.7H7.69922V145.3H17.4992V142.7Z" fill="#F9F9F9"/>
<path d="M31.9992 142.7H22.1992V145.3H31.9992V142.7Z" fill="#F9F9F9"/>
<path d="M46.5988 142.7H36.7988V145.3H46.5988V142.7Z" fill="#F9F9F9"/>
<path d="M17.4992 154.1H7.69922V156.7H17.4992V154.1Z" fill="#F9F9F9"/>
<path d="M31.9992 154.1H22.1992V156.7H31.9992V154.1Z" fill="#F9F9F9"/>
<path d="M46.5988 154.1H36.7988V156.7H46.5988V154.1Z" fill="#F9F9F9"/>
<path d="M17.4992 165.6H7.69922V168.2H17.4992V165.6Z" fill="#F9F9F9"/>
<path d="M31.9992 165.6H22.1992V168.2H31.9992V165.6Z" fill="#F9F9F9"/>
<path d="M46.5988 165.6H36.7988V168.2H46.5988V165.6Z" fill="#F9F9F9"/>
<path d="M96.0984 72.9V100H83.4984V127.1H66.9984V154.2H51.3984V181.3V181H53.9984V156.9H69.6984V129.8H86.1984V102.7H98.7984V75.6H136.198V181H138.798V181.4V72.9H96.0984Z" fill="#F9F9F9"/>
<path d="M127.599 163.7H62.7988V166.3H127.599V163.7Z" fill="#F9F9F9"/>
<path d="M127.599 173.6H62.7988V176.2H127.599V173.6Z" fill="#F9F9F9"/>
<path d="M127.599 136.6H77.7988V139.2H127.599V136.6Z" fill="#F9F9F9"/>
<path d="M127.599 146.5H77.7988V149.1H127.599V146.5Z" fill="#F9F9F9"/>
<path d="M131.399 109.5H90.7988V112.1H131.399V109.5Z" fill="#F9F9F9"/>
<path d="M131.399 119.4H90.7988V122H131.399V119.4Z" fill="#F9F9F9"/>
<path d="M134 83.9H100.5V86.5H134V83.9Z" fill="#F9F9F9"/>
<path d="M134 93.8H100.5V96.4H134V93.8Z" fill="#F9F9F9"/>
<path d="M190.099 0H186.499L197.299 11.4V181H199.899V10.4L190.099 0ZM136.199 10.4V181H138.799V11.4L149.599 0H145.999L136.199 10.4Z" fill="#F9F9F9"/>
<path d="M171.1 0H165.1L150.1 15.9V170.1H186V15.9L171.1 0ZM183.4 167.5H152.8V16.9L168.1 0.600006L183.4 16.9V167.5Z" fill="#F9F9F9"/>
<path d="M207.6 100H205V173H207.6V100Z" fill="#F9F9F9"/>
<path d="M215.6 100H213V173H215.6V100Z" fill="#F9F9F9"/>
<path d="M260.499 90.3V14.9H208.899V90.3H197.199V181H199.799V92.9H220.299V181H222.899V174.3H246.299V181H248.899V92.9H269.399V181H272.099V90.3H260.499ZM228.099 171.6H223.099V90.2H220.699V26.7H228.099V171.6ZM238.699 171.6H230.699V26.8H238.699V171.6ZM248.599 90.3H246.399V171.7H241.299V26.8H248.599V90.3ZM257.899 90.3H251.299V24.1H217.999V90.3H211.599V17.5H257.899V90.3Z" fill="#F9F9F9"/>
<path d="M256.799 100H254.199V173H256.799V100Z" fill="#F9F9F9"/>
<path d="M264.7 100H262.1V173H264.7V100Z" fill="#F9F9F9"/>
<path d="M293.298 115.9H276.898V118.5H293.298V115.9Z" fill="#F9F9F9"/>
<path d="M284.999 124.2H276.799V126.8H284.999V124.2Z" fill="#F9F9F9"/>
<path d="M293.298 132.6H276.898V135.2H293.298V132.6Z" fill="#F9F9F9"/>
<path d="M284.999 140.9H276.799V143.5H284.999V140.9Z" fill="#F9F9F9"/>
<path d="M293.298 149.3H276.898V151.9H293.298V149.3Z" fill="#F9F9F9"/>
<path d="M284.999 157.6H276.799V160.2H284.999V157.6Z" fill="#F9F9F9"/>
<path d="M304.198 166H276.898V168.6H304.198V166Z" fill="#F9F9F9"/>
<path d="M284.999 174.3H276.799V176.9H284.999V174.3Z" fill="#F9F9F9"/>
<path d="M293.298 124.2H287.898V126.8H293.298V124.2Z" fill="#F9F9F9"/>
<path d="M293.298 141H287.898V143.6H293.298V141Z" fill="#F9F9F9"/>
<path d="M293.298 157.6H287.898V160.2H293.298V157.6Z" fill="#F9F9F9"/>
<path d="M304.198 174.3H287.898V176.9H304.198V174.3Z" fill="#F9F9F9"/>
<path d="M300.4 157.5V108.3H269.5V181H272.1V111H297.7V160.2H311.8V181H314.4V157.5H300.4Z" fill="#F9F9F9"/>
<path d="M317.898 65.4V178.3H326.298V65.4H317.898ZM323.598 175.6H320.498V68H323.598V175.6Z" fill="#F9F9F9"/>
<path d="M337.498 34.4V52.5H320.698V59.6H311.898V181H314.498V62.3H329.498V181H332.098V59.6H323.298V55.2H337.398V181H340.098V52.6V39L355.498 47.7V181H358.098V46.1L337.498 34.4Z" fill="#F9F9F9"/>
<path d="M343.898 45.4V177.6H351.798V49.8L343.898 45.4ZM349.198 175H346.598V49.9L349.198 51.4V175Z" fill="#F9F9F9"/>
<path d="M388.6 54.8V132.6H379.6V126H355.6V181H358.2V128.7H362.2V181H364.8V128.7H370.3V181H373V128.7H377V181H379.6V135.3H391.3V57.5H425.2V181H427.9V54.8H388.6Z" fill="#F9F9F9"/>
<path d="M419.9 62.5H396.5V65.1H419.9V62.5Z" fill="#F9F9F9"/>
<path d="M419.9 72.4H396.5V75H419.9V72.4Z" fill="#F9F9F9"/>
<path d="M419.9 82.3H396.5V84.9H419.9V82.3Z" fill="#F9F9F9"/>
<path d="M419.9 92.3H396.5V94.9H419.9V92.3Z" fill="#F9F9F9"/>
<path d="M419.9 102.2H396.5V104.8H419.9V102.2Z" fill="#F9F9F9"/>
<path d="M419.9 112.1H396.5V114.7H419.9V112.1Z" fill="#F9F9F9"/>
<path d="M419.9 122H396.5V124.6H419.9V122Z" fill="#F9F9F9"/>
<path d="M419.9 132H396.5V134.6H419.9V132Z" fill="#F9F9F9"/>
<path d="M419.9 141.9H396.5V144.5H419.9V141.9Z" fill="#F9F9F9"/>
<path d="M419.9 151.8H396.5V154.4H419.9V151.8Z" fill="#F9F9F9"/>
<path d="M419.9 161.7H396.5V164.3H419.9V161.7Z" fill="#F9F9F9"/>
<path d="M419.9 171.7H396.5V174.3H419.9V171.7Z" fill="#F9F9F9"/>
<path d="M391.1 141.9H384.1V144.5H391.1V141.9Z" fill="#F9F9F9"/>
<path d="M391.1 151.8H384.1V154.4H391.1V151.8Z" fill="#F9F9F9"/>
<path d="M391.1 161.7H384.1V164.3H391.1V161.7Z" fill="#F9F9F9"/>
<path d="M391.1 171.7H384.1V174.3H391.1V171.7Z" fill="#F9F9F9"/>
<path d="M439.8 62.5H430V65.1H439.8V62.5Z" fill="#F9F9F9"/>
<path d="M439.8 72.4H430V75H439.8V72.4Z" fill="#F9F9F9"/>
<path d="M439.8 82.3H430V84.9H439.8V82.3Z" fill="#F9F9F9"/>
<path d="M439.8 92.3H430V94.9H439.8V92.3Z" fill="#F9F9F9"/>
<path d="M439.8 102.2H430V104.8H439.8V102.2Z" fill="#F9F9F9"/>
<path d="M439.8 112.1H430V114.7H439.8V112.1Z" fill="#F9F9F9"/>
<path d="M439.8 122H430V124.6H439.8V122Z" fill="#F9F9F9"/>
<path d="M439.8 132H430V134.6H439.8V132Z" fill="#F9F9F9"/>
<path d="M439.8 141.9H430V144.5H439.8V141.9Z" fill="#F9F9F9"/>
<path d="M439.8 151.8H430V154.4H439.8V151.8Z" fill="#F9F9F9"/>
<path d="M439.8 161.7H430V164.3H439.8V161.7Z" fill="#F9F9F9"/>
<path d="M439.8 171.7H430V174.3H439.8V171.7Z" fill="#F9F9F9"/>
<path d="M441.699 16.9V54.8H425.199V181H427.899V57.4H441.799V181H444.399V19.5H465.799V181H468.499V19.5H482.799V181H485.399V16.9H441.699Z" fill="#F9F9F9"/>
<path d="M452.9 171.7H448.1V174.3H452.9V171.7Z" fill="#F9F9F9"/>
<path d="M461.999 171.7H457.199V174.3H461.999V171.7Z" fill="#F9F9F9"/>
<path d="M452.9 161.7H448.1V164.3H452.9V161.7Z" fill="#F9F9F9"/>
<path d="M461.999 161.7H457.199V164.3H461.999V161.7Z" fill="#F9F9F9"/>
<path d="M452.9 151.8H448.1V154.4H452.9V151.8Z" fill="#F9F9F9"/>
<path d="M461.999 151.8H457.199V154.4H461.999V151.8Z" fill="#F9F9F9"/>
<path d="M452.9 141.9H448.1V144.5H452.9V141.9Z" fill="#F9F9F9"/>
<path d="M461.999 141.9H457.199V144.5H461.999V141.9Z" fill="#F9F9F9"/>
<path d="M452.9 132H448.1V134.6H452.9V132Z" fill="#F9F9F9"/>
<path d="M461.999 132H457.199V134.6H461.999V132Z" fill="#F9F9F9"/>
<path d="M452.9 122H448.1V124.6H452.9V122Z" fill="#F9F9F9"/>
<path d="M461.999 122H457.199V124.6H461.999V122Z" fill="#F9F9F9"/>
<path d="M452.9 112.1H448.1V114.7H452.9V112.1Z" fill="#F9F9F9"/>
<path d="M461.999 112.1H457.199V114.7H461.999V112.1Z" fill="#F9F9F9"/>
<path d="M452.9 102.2H448.1V104.8H452.9V102.2Z" fill="#F9F9F9"/>
<path d="M461.999 102.2H457.199V104.8H461.999V102.2Z" fill="#F9F9F9"/>
<path d="M452.9 92.3H448.1V94.9H452.9V92.3Z" fill="#F9F9F9"/>
<path d="M461.999 92.3H457.199V94.9H461.999V92.3Z" fill="#F9F9F9"/>
<path d="M452.9 82.3H448.1V84.9H452.9V82.3Z" fill="#F9F9F9"/>
<path d="M461.999 82.3H457.199V84.9H461.999V82.3Z" fill="#F9F9F9"/>
<path d="M452.9 72.4H448.1V75H452.9V72.4Z" fill="#F9F9F9"/>
<path d="M461.999 72.4H457.199V75H461.999V72.4Z" fill="#F9F9F9"/>
<path d="M452.9 62.5H448.1V65.1H452.9V62.5Z" fill="#F9F9F9"/>
<path d="M461.999 62.5H457.199V65.1H461.999V62.5Z" fill="#F9F9F9"/>
<path d="M452.9 52.6H448.1V55.2H452.9V52.6Z" fill="#F9F9F9"/>
<path d="M461.999 52.6H457.199V55.2H461.999V52.6Z" fill="#F9F9F9"/>
<path d="M452.9 42.7H448.1V45.3H452.9V42.7Z" fill="#F9F9F9"/>
<path d="M461.999 42.7H457.199V45.3H461.999V42.7Z" fill="#F9F9F9"/>
<path d="M452.9 32.7H448.1V35.3H452.9V32.7Z" fill="#F9F9F9"/>
<path d="M461.999 32.7H457.199V35.3H461.999V32.7Z" fill="#F9F9F9"/>
<path d="M452.9 22.8H448.1V25.4H452.9V22.8Z" fill="#F9F9F9"/>
<path d="M461.999 22.8H457.199V25.4H461.999V22.8Z" fill="#F9F9F9"/>
<path d="M539.7 59.4H505.1V62H539.7V59.4Z" fill="#F9F9F9"/>
<path d="M539.698 71.9H492.898V74.5H539.698V71.9Z" fill="#F9F9F9"/>
<path d="M525.498 84.4H492.898V87H525.498V84.4Z" fill="#F9F9F9"/>
<path d="M539.698 96.8H492.898V99.4H539.698V96.8Z" fill="#F9F9F9"/>
<path d="M539.7 109.3H505.1V111.9H539.7V109.3Z" fill="#F9F9F9"/>
<path d="M539.698 121.8H492.898V124.4H539.698V121.8Z" fill="#F9F9F9"/>
<path d="M525.498 134.2H492.898V136.8H525.498V134.2Z" fill="#F9F9F9"/>
<path d="M539.698 146.7H492.898V149.3H539.698V146.7Z" fill="#F9F9F9"/>
<path d="M539.7 159.2H505.1V161.8H539.7V159.2Z" fill="#F9F9F9"/>
<path d="M539.698 171.7H492.898V174.3H539.698V171.7Z" fill="#F9F9F9"/>
<path d="M500.498 59.4H492.898V62H500.498V59.4Z" fill="#F9F9F9"/>
<path d="M539.7 84.3H530.1V86.9H539.7V84.3Z" fill="#F9F9F9"/>
<path d="M500.498 109.2H492.898V111.8H500.498V109.2Z" fill="#F9F9F9"/>
<path d="M539.7 134.2H530.1V136.8H539.7V134.2Z" fill="#F9F9F9"/>
<path d="M500.498 159.1H492.898V161.7H500.498V159.1Z" fill="#F9F9F9"/>
<path d="M506.099 24.8V48H482.699V181H485.299V50.6H508.699V27.4H545.099V181H547.799V24.8H506.099Z" fill="#F9F9F9"/>
<path d="M539.698 40.2H513.898V42.8H539.698V40.2Z" fill="#F9F9F9"/>
<path d="M539.698 47.9H513.898V50.5H539.698V47.9Z" fill="#F9F9F9"/>
<path d="M539.698 32.7H513.898V35.3H539.698V32.7Z" fill="#F9F9F9"/>
<path d="M597.699 168.3V0H595.099V168.3H588.499V0H585.799V168.3H579.199V0H576.599V168.3H569.899V0H567.199V168.3H560.499V0H557.899V168.3H555.699V170.9H600.099V168.3H597.699Z" fill="#F9F9F9"/>
<path d="M545.1 0V181H547.8V0H545.1ZM609 0V181H611.6V0H609Z" fill="#F9F9F9"/>
<path d="M609 34.7V181H611.6V149.4H622.4V181H625.1V149.4H638.1V181H640.7V149.4H653.7V181H656.3V149.4H667.2V181H669.9V34.7H609ZM611.7 42.9H622.5V89.4H611.7V42.9ZM611.7 97.1H622.5V141.6H611.7V97.1ZM667.2 146.7H611.7V144.3H667.2V146.7ZM625.1 141.7V97.2H638.1V141.7H625.1ZM640.8 141.7V97.2H653.8V141.7H640.8ZM667.2 141.7H656.4V97.2H667.2V141.7ZM667.2 94.5H611.7V92H667.2V94.5ZM625.1 89.4V42.9H638.1V89.4H625.1ZM640.8 89.4V42.9H653.8V89.4H640.8ZM667.2 89.4H656.4V42.9H667.2V89.4ZM667.2 40.2H611.7V37.3H667.2V40.2Z" fill="#F9F9F9"/>
<path d="M673.898 21.4V177.4H687.698V31.7L673.898 21.4ZM684.998 174.7H676.498V26.7L684.998 33.1V174.7Z" fill="#F9F9F9"/>
<path d="M729.799 1H701.699V3.60001H729.799V1Z" fill="#F9F9F9"/>
<path d="M729.799 14H701.699V16.6H729.799V14Z" fill="#F9F9F9"/>
<path d="M729.799 27H701.699V29.6H729.799V27Z" fill="#F9F9F9"/>
<path d="M729.799 40H701.699V42.6H729.799V40Z" fill="#F9F9F9"/>
<path d="M729.799 53.1H701.699V55.7H729.799V53.1Z" fill="#F9F9F9"/>
<path d="M729.799 66.1H701.699V68.7H729.799V66.1Z" fill="#F9F9F9"/>
<path d="M729.799 79.1H701.699V81.7H729.799V79.1Z" fill="#F9F9F9"/>
<path d="M729.799 92.1H701.699V94.7H729.799V92.1Z" fill="#F9F9F9"/>
<path d="M729.799 105.1H701.699V107.7H729.799V105.1Z" fill="#F9F9F9"/>
<path d="M729.799 118.1H701.699V120.7H729.799V118.1Z" fill="#F9F9F9"/>
<path d="M729.799 131.2H701.699V133.8H729.799V131.2Z" fill="#F9F9F9"/>
<path d="M729.799 144.2H701.699V146.8H729.799V144.2Z" fill="#F9F9F9"/>
<path d="M729.799 157.2H701.699V159.8H729.799V157.2Z" fill="#F9F9F9"/>
<path d="M729.799 170.2H701.699V172.8H729.799V170.2Z" fill="#F9F9F9"/>
<path d="M691.699 0V26.6L667.199 8.10001V181H669.899V13.4L691.599 29.7V181H694.399V0H691.699ZM737.199 0V181H739.899V0H737.199ZM759.199 0H754.899L758.699 3V181H761.299V1.7L759.199 0Z" fill="#F9F9F9"/>
<path d="M748.499 0H743.799V177.4H754.799V4.89999L748.499 0ZM752.099 174.7H746.499V1.7L752.099 6.10001V174.7Z" fill="#F9F9F9"/>
<path d="M799.899 0V1.3L761.299 42.6V39.4L798.199 0H794.599L761.399 35.6L758.799 38.4V181H761.399V138.4H768.899V181H771.599V138.4H779.499V181H782.199V138.4H790.099V181H792.699V138.4H799.999V181H802.699V0H799.899ZM768.899 135.7H761.399V83.5H768.899V135.7ZM768.899 80.9H761.399V46.5L768.899 38.5V80.9ZM779.399 135.7H771.499V83.5H779.399V135.7ZM779.399 80.9H771.499V35.6L779.399 27.1V80.9ZM789.999 135.7H782.099V83.5H789.999V135.7ZM789.999 80.9H782.099V24.3L789.999 15.8V80.9ZM799.899 135.7H792.599V83.5H799.899V135.7ZM799.899 80.9H792.599V13.3H792.299L799.899 5.2V80.9Z" fill="#F9F9F9"/>
<path d="M831.6 55.7H809V58.3H831.6V55.7Z" fill="#F9F9F9"/>
<path d="M821.8 65.4H809V68H821.8V65.4Z" fill="#F9F9F9"/>
<path d="M831.6 75.1H809V77.7H831.6V75.1Z" fill="#F9F9F9"/>
<path d="M821.8 84.9H809V87.5H821.8V84.9Z" fill="#F9F9F9"/>
<path d="M831.6 94.6H809V97.2H831.6V94.6Z" fill="#F9F9F9"/>
<path d="M821.8 104.4H809V107H821.8V104.4Z" fill="#F9F9F9"/>
<path d="M831.6 114.1H809V116.7H831.6V114.1Z" fill="#F9F9F9"/>
<path d="M821.8 123.8H809V126.4H821.8V123.8Z" fill="#F9F9F9"/>
<path d="M831.6 133.6H809V136.2H831.6V133.6Z" fill="#F9F9F9"/>
<path d="M821.8 143.3H809V145.9H821.8V143.3Z" fill="#F9F9F9"/>
<path d="M831.6 153.1H809V155.7H831.6V153.1Z" fill="#F9F9F9"/>
<path d="M821.8 162.8H809V165.4H821.8V162.8Z" fill="#F9F9F9"/>
<path d="M831.6 172.5H809V175.1H831.6V172.5Z" fill="#F9F9F9"/>
<path d="M831.6 65.4H826V68H831.6V65.4Z" fill="#F9F9F9"/>
<path d="M831.6 84.8H826V87.4H831.6V84.8Z" fill="#F9F9F9"/>
<path d="M831.6 104.4H826V107H831.6V104.4Z" fill="#F9F9F9"/>
<path d="M831.6 123.8H826V126.4H831.6V123.8Z" fill="#F9F9F9"/>
<path d="M831.6 143.4H826V146H831.6V143.4Z" fill="#F9F9F9"/>
<path d="M831.6 162.8H826V165.4H831.6V162.8Z" fill="#F9F9F9"/>
<path d="M838.1 28.3V46.6H800V181H802.6V49.3H838.1V181H840.8V31H858.9V181H861.6V28.3H838.1Z" fill="#F9F9F9"/>
<path d="M845.1 36V176.2H854.3V36H845.1ZM851.7 173.6H847.7V38.6H851.7V173.6Z" fill="#F9F9F9"/>
<path d="M877.698 173.6H865.898V176.2H877.698V173.6Z" fill="#F9F9F9"/>
<path d="M877.698 165.9H865.898V168.5H877.698V165.9Z" fill="#F9F9F9"/>
<path d="M877.698 158.2H865.898V160.8H877.698V158.2Z" fill="#F9F9F9"/>
<path d="M877.698 150.5H865.898V153.1H877.698V150.5Z" fill="#F9F9F9"/>
<path d="M877.698 142.8H865.898V145.4H877.698V142.8Z" fill="#F9F9F9"/>
<path d="M895.199 75.9V176.2H916.799V75.9H895.199ZM901.499 173.6H897.799V78.6H901.499V173.6ZM907.799 173.6H904.099V78.6H907.799V173.6ZM914.099 173.6H910.399V78.6H914.099V173.6Z" fill="#F9F9F9"/>
<path d="M922.999 139V67.6H915.499V52.4H911.499V36.1H908.899V52.4H907.399V47.1H904.799V52.4H896.599V67.6H889.099V87.2H882.199V106.8H870.499V133.5H858.799V181H861.499V136.2H873.199V109.5H882.199V181H884.799V89.9H888.999V181H891.699V70.2H920.299V181H922.999V141.7H930.499V181H933.099V139H922.999ZM912.799 67.6H911.499V58.1H908.899V67.6H907.399V58.1H904.799V67.6H903.299V58.1H900.699V67.6H899.399V55H913.099V67.6H912.799Z" fill="#F9F9F9"/>
<path d="M975.198 79V70.2H938.998V79H930.398V181.3V181H932.998V85.5H949.498V181H952.198V85.5H962.098V181H964.698V85.5H981.198V181H983.798V79H975.198ZM941.698 72.9H972.598V79.1H941.698V72.9ZM933.098 82.8V81.7H981.398V82.8H933.098Z" fill="#F9F9F9"/>
<path d="M947.2 87.2H936.1V89.8H947.2V87.2Z" fill="#F9F9F9"/>
<path d="M947.2 94.3H936.1V96.9H947.2V94.3Z" fill="#F9F9F9"/>
<path d="M947.2 101.3H936.1V103.9H947.2V101.3Z" fill="#F9F9F9"/>
<path d="M947.2 108.4H936.1V111H947.2V108.4Z" fill="#F9F9F9"/>
<path d="M947.2 115.4H936.1V118H947.2V115.4Z" fill="#F9F9F9"/>
<path d="M947.2 122.5H936.1V125.1H947.2V122.5Z" fill="#F9F9F9"/>
<path d="M947.2 129.5H936.1V132.1H947.2V129.5Z" fill="#F9F9F9"/>
<path d="M947.2 136.6H936.1V139.2H947.2V136.6Z" fill="#F9F9F9"/>
<path d="M947.2 143.6H936.1V146.2H947.2V143.6Z" fill="#F9F9F9"/>
<path d="M947.2 150.7H936.1V153.3H947.2V150.7Z" fill="#F9F9F9"/>
<path d="M947.2 157.8H936.1V160.4H947.2V157.8Z" fill="#F9F9F9"/>
<path d="M947.2 164.8H936.1V167.4H947.2V164.8Z" fill="#F9F9F9"/>
<path d="M947.2 171.9H936.1V174.5H947.2V171.9Z" fill="#F9F9F9"/>
<path d="M978.7 87.2H967.6V89.8H978.7V87.2Z" fill="#F9F9F9"/>
<path d="M978.7 94.3H967.6V96.9H978.7V94.3Z" fill="#F9F9F9"/>
<path d="M978.7 101.3H967.6V103.9H978.7V101.3Z" fill="#F9F9F9"/>
<path d="M978.7 108.4H967.6V111H978.7V108.4Z" fill="#F9F9F9"/>
<path d="M978.7 115.4H967.6V118H978.7V115.4Z" fill="#F9F9F9"/>
<path d="M978.7 122.5H967.6V125.1H978.7V122.5Z" fill="#F9F9F9"/>
<path d="M978.7 129.5H967.6V132.1H978.7V129.5Z" fill="#F9F9F9"/>
<path d="M978.7 136.6H967.6V139.2H978.7V136.6Z" fill="#F9F9F9"/>
<path d="M978.7 143.6H967.6V146.2H978.7V143.6Z" fill="#F9F9F9"/>
<path d="M978.7 150.7H967.6V153.3H978.7V150.7Z" fill="#F9F9F9"/>
<path d="M978.7 157.8H967.6V160.4H978.7V157.8Z" fill="#F9F9F9"/>
<path d="M978.7 164.8H967.6V167.4H978.7V164.8Z" fill="#F9F9F9"/>
<path d="M978.7 171.9H967.6V174.5H978.7V171.9Z" fill="#F9F9F9"/>
<path d="M959.3 74.6H946.1V77.2H959.3V74.6Z" fill="#F9F9F9"/>
<path d="M968.199 74.6H961.799V77.2H968.199V74.6Z" fill="#F9F9F9"/>
<path d="M990.2 143.2H987.6V177.4H990.2V143.2Z" fill="#F9F9F9"/>
<path d="M997.7 143.2H995V177.4H997.7V143.2Z" fill="#F9F9F9"/>
<path d="M1040.9 136.6V146.7H1036.7V66.2L1022.4 48L1008.1 66.2V146.7H1003.9V136.6H981.398V181H983.999V139.2H1001.2V181H1003.8V149.4H1010.6V67.2L1022.3 52.3L1034 67.2V149.4H1040.8V181H1043.5V139.2H1060.7V181H1063.3V136.6H1040.9Z" fill="#F9F9F9"/>
<path d="M1049.7 143.2H1047.1V177.4H1049.7V143.2Z" fill="#F9F9F9"/>
<path d="M1057.2 143.2H1054.5V177.4H1057.2V143.2Z" fill="#F9F9F9"/>
<path d="M1014.6 70V178.7H1030V70H1014.6ZM1019.1 176.1H1017.3V72.6H1019.1V176.1ZM1023 176.1H1021.7V72.6H1023V176.1ZM1027.4 176.1H1025.6V72.6H1027.4V176.1Z" fill="#F9F9F9"/>
<path d="M1092.7 115.2V103.6H1070.4V115.2H1060.6V181H1063.3V123.3H1135.1V181H1137.7V115.2H1092.7ZM1073.1 106.3H1090.1V115.1H1073.1V106.3ZM1135 120.7H1063.2V117.9H1135V120.7Z" fill="#F9F9F9"/>
<path d="M1126.5 127H1071.7V129.6H1126.5V127Z" fill="#F9F9F9"/>
<path d="M1087.4 138.2H1071.7V140.8H1087.4V138.2Z" fill="#F9F9F9"/>
<path d="M1126.5 149.4H1071.7V152H1126.5V149.4Z" fill="#F9F9F9"/>
<path d="M1087.4 160.6H1071.7V163.2H1087.4V160.6Z" fill="#F9F9F9"/>
<path d="M1107 138.2H1091.3V140.8H1107V138.2Z" fill="#F9F9F9"/>
<path d="M1107 160.6H1091.3V163.2H1107V160.6Z" fill="#F9F9F9"/>
<path d="M1126.4 138.2H1110.7V140.8H1126.4V138.2Z" fill="#F9F9F9"/>
<path d="M1126.4 160.6H1110.7V163.2H1126.4V160.6Z" fill="#F9F9F9"/>
<path d="M1126.5 171.8H1071.7V174.4H1126.5V171.8Z" fill="#F9F9F9"/>
<path d="M1118.3 24.6C1117.8 24.6 1117.3 24.6 1116.9 24.7C1116.3 21 1113.1 18.2 1109.3 18.2C1106.6 18.2 1104.1 19.6 1102.7 21.8C1101.4 20.9 1099.9 20.4 1098.2 20.4C1094.1 20.4 1090.7 23.6 1090.5 27.7C1087.1 27.7 1084.3 30.5 1084.3 33.9C1084.3 37.3 1087.1 40.1 1090.5 40.1H1118.3C1122.5 40.1 1126 36.6 1126 32.4C1126 28 1122.5 24.6 1118.3 24.6ZM1118.3 37.3H1090.5C1088.5 37.3 1087 35.7 1087 33.8C1087 31.8 1088.6 30.3 1090.5 30.3C1090.8 30.3 1091.1 30.3 1091.4 30.4C1091.8 30.5 1092.2 30.4 1092.5 30.2C1092.8 30 1093 29.7 1093.1 29.3L1093.2 28.3C1093.2 28.3 1093.2 28.2 1093.2 28.1C1093.2 25.3 1095.5 23 1098.3 23C1099.8 23 1101.2 23.7 1102.2 24.8C1102.5 25.2 1103 25.3 1103.5 25.3C1104 25.2 1104.4 24.9 1104.5 24.4C1105.2 22.3 1107.1 20.8 1109.3 20.8C1112.1 20.8 1114.4 23.1 1114.4 25.9C1114.4 26.1 1114.4 26.2 1114.4 26.4C1114.4 26.9 1114.6 27.3 1115 27.6C1115.4 27.9 1115.9 27.9 1116.3 27.7C1117 27.4 1117.7 27.2 1118.4 27.2C1121.2 27.2 1123.5 29.5 1123.5 32.3C1123.4 35.1 1121.1 37.3 1118.3 37.3Z" fill="#F9F9F9"/>
<path d="M57.3988 20.7C57.0988 20.7 56.8988 20.7 56.5988 20.7C55.7988 19 53.9988 17.8 52.0988 17.8C51.9988 17.8 51.8988 17.8 51.6988 17.8C51.0988 13.5 47.2988 10.2 42.8988 10.2C38.3988 10.2 34.6988 13.5 34.0988 17.8C30.5988 17.9 27.7988 20.7 27.7988 24.3C27.7988 27.9 30.6988 30.8 34.2988 30.8H57.4988C60.2988 30.8 62.4988 28.5 62.4988 25.8C62.3988 22.9 60.0988 20.7 57.3988 20.7ZM57.3988 28.1H34.1988C32.0988 28.1 30.3988 26.4 30.3988 24.3C30.3988 22.2 32.0988 20.5 34.1988 20.5C34.4988 20.5 34.6988 20.5 34.9988 20.6C35.3988 20.7 35.7988 20.6 36.0988 20.3C36.3988 20 36.5988 19.6 36.5988 19.2C36.5988 15.7 39.3988 12.9 42.8988 12.9C46.3988 12.9 49.1988 15.7 49.1988 19.2C49.1988 19.3 49.1988 19.4 49.1988 19.5C49.1988 20 49.3988 20.4 49.7988 20.7C50.1988 20.9 50.6988 21 51.0988 20.8C51.3988 20.6 51.7988 20.6 52.0988 20.6C53.2988 20.6 54.2988 21.5 54.4988 22.7C54.5988 23.1 54.7988 23.5 55.1988 23.7C55.5988 23.9 55.9988 23.9 56.3988 23.7C56.6988 23.5 57.0988 23.5 57.3988 23.5C58.6988 23.5 59.7988 24.6 59.7988 25.9C59.7988 27.2 58.6988 28.1 57.3988 28.1Z" fill="#F9F9F9"/>
</svg>
