<svg xmlns="http://www.w3.org/2000/svg" width="150" height="150" viewBox="0 0 150 150" fill="none">
    <rect width="150" height="150" rx="10" fill="white"/>
    <path d="M63.3427 10.7855C66.6962 10.4473 70.1379 10.7358 73.3439 11.7921C73.3407 11.8546 73.3327 11.9781 73.3295 12.0406C68.9564 14.2767 65.1942 17.7149 62.6614 21.9306C62.4129 22.4099 61.8711 22.6824 61.3373 22.6071C58.726 22.4115 56.0538 23.0671 53.8528 24.4921C50.0601 26.8821 47.7469 31.5226 48.3625 35.9931C48.8722 38.8448 50.2925 41.5056 52.2386 43.6375C57.9261 49.3295 63.6184 55.0183 69.3075 60.7071C69.9215 61.2954 70.5306 61.9269 70.8496 62.7316C71.6351 64.5173 71.1478 66.7566 69.6842 68.0485C67.9674 69.6787 65.0082 69.6611 63.3186 67.9972C57.5398 62.2331 51.7737 56.4561 45.9996 50.6856C42.4025 47.087 40.1117 42.1917 39.7495 37.1088C39.6709 32.3465 40.9662 27.5746 43.4027 23.4855C45.7993 19.4445 49.3035 16.0719 53.4328 13.831C56.4882 12.164 59.8818 11.1333 63.3427 10.7855Z"
          fill="#DEE3F8"/>
    <path d="M82.4243 10.7914C87.9579 10.1791 93.6855 11.4839 98.3839 14.4766C102.908 17.325 106.47 21.6689 108.36 26.6716C108.755 27.6462 108.975 28.6801 109.196 29.706C109.679 32.0334 109.918 34.4106 109.924 36.7877C109.961 37.8873 109.058 38.8956 107.981 39.0414C107 39.213 105.955 38.6664 105.535 37.7671C105.293 37.3215 105.306 36.8038 105.274 36.3133C105.093 32.9439 103.667 29.6691 101.359 27.2134C98.0505 23.6197 92.8648 21.8917 88.0653 22.8118C87.6758 22.8679 87.5652 23.3536 87.7928 23.6357C89.6411 27.0211 90.675 30.8441 90.7905 34.7007C90.9668 39.7916 89.5273 44.9274 86.706 49.1704C84.364 52.7176 81.1082 55.659 77.3267 57.6018C76.5541 57.9977 75.6484 58.1275 74.7956 57.9592C74.0325 57.8262 73.3689 57.403 72.7052 57.0311C68.361 54.5289 64.8088 50.6835 62.6623 46.1536C60.7307 42.1127 59.95 37.5411 60.3844 33.0866C60.8493 28.1335 62.8659 23.3488 66.0671 19.5434C70.1244 14.6657 76.11 11.447 82.4243 10.7914ZM74.5551 28.7314C73.9684 28.9254 73.4795 29.3165 73.0098 29.706C71.1022 31.3041 69.831 33.6476 69.5713 36.1273C69.2844 38.6295 70.0138 41.2278 71.5655 43.2107C72.4167 44.3391 73.5773 45.1662 74.6353 46.0863C75.0617 46.4726 75.7397 46.5528 76.2303 46.2386C77.7323 45.0252 79.3225 43.8086 80.2666 42.079C81.4609 40.0144 81.8472 37.5042 81.3471 35.172C80.8357 32.7051 79.3161 30.469 77.2193 29.0728C76.4418 28.5679 75.4352 28.4397 74.5551 28.7314Z"
          fill="#DEE3F8"/>
    <path d="M99.5087 45.9506C103.172 42.0971 108.269 39.6062 113.588 39.2503C118.881 39.1766 124.176 40.7956 128.541 43.7882C132.98 46.8081 136.455 51.2226 138.327 56.2558C140.249 61.4221 140.572 67.2247 138.967 72.5191C138.935 72.7211 138.823 72.8493 138.63 72.9054C136.423 68.507 132.972 64.7385 128.757 62.1915C128.252 61.9398 127.948 61.3852 128.038 60.8226C128.278 57.692 127.257 54.4878 125.221 52.093C122.329 48.6114 117.289 46.8097 112.92 48.286C110.159 49.1661 107.697 50.8443 105.759 52.9858C100.275 58.4646 94.799 63.9515 89.3119 69.4271C87.579 71.1663 84.4804 71.139 82.7748 69.3742C80.9922 67.7039 80.9073 64.6231 82.6033 62.8631C88.2299 57.216 93.8757 51.5897 99.5087 45.9506Z"
          fill="#DEE3F8"/>
    <path d="M33.6683 40.911C34.9235 40.7844 36.1866 40.709 37.4482 40.7234C38.6809 40.7699 39.6876 41.9801 39.561 43.1984C39.5017 44.3525 38.4613 45.3415 37.3039 45.3415C33.6779 45.4264 30.1144 46.93 27.5207 49.4658C24.0486 52.7823 22.3943 57.886 23.3208 62.6034C23.4779 63.2125 24.1608 62.8839 24.5151 62.6499C29.0885 60.2359 34.4345 59.3527 39.5498 60.09C47.4719 61.1704 54.6822 66.3783 58.2105 73.5498C58.6641 74.5853 58.6321 75.8196 58.1303 76.831C55.7739 81.4635 51.9154 85.3089 47.2859 87.6652C42.0857 90.3437 35.9237 91.0586 30.2394 89.7009C25.5602 88.5981 21.2321 86.0863 17.9347 82.5903C15.6023 80.1266 13.7781 77.1821 12.6271 73.9906C10.9487 69.3902 10.6922 64.2897 11.8689 59.537C12.9076 55.3053 15.1005 51.3685 18.1334 48.2412C20.865 45.4184 24.2698 43.2432 27.9952 41.9882C29.8467 41.4544 31.7527 41.1162 33.6683 40.911ZM35.7714 69.2732C33.2547 69.7685 30.964 71.3089 29.5533 73.4504C29.058 74.2263 28.941 75.2249 29.2327 76.0969C29.4171 76.6595 29.7922 77.1292 30.1609 77.5812C31.6998 79.439 33.9376 80.7069 36.3309 81.0323C38.9198 81.409 41.6433 80.6909 43.7032 79.0799C44.8237 78.2384 45.6428 77.0891 46.5533 76.0424C46.9493 75.624 47.0599 74.9524 46.7601 74.4491C45.6044 73.008 44.4486 71.4836 42.8311 70.5251C40.7488 69.2347 38.1712 68.7859 35.7714 69.2732Z"
          fill="#DEE3F8"/>
    <path d="M111.901 59.9807C117.537 59.2305 123.418 60.4776 128.24 63.4959C132.809 66.3219 136.424 70.6658 138.343 75.6862C140.311 80.7562 140.529 86.4787 138.982 91.6898C136.938 98.7155 131.603 104.675 124.86 107.504C123.148 108.28 121.296 108.657 119.453 108.969C117.571 109.272 115.663 109.426 113.757 109.421C112.925 109.41 112.154 108.864 111.801 108.121C111.301 107.123 111.659 105.802 112.598 105.196C113.358 104.648 114.339 104.847 115.209 104.699C119.885 104.169 124.182 101.2 126.363 97.0356C127.897 94.1679 128.43 90.7745 127.836 87.5767C127.793 87.2064 127.327 87.0589 127.046 87.2753C121.488 90.3369 114.74 91.1128 108.623 89.4393C102.408 87.7755 96.9382 83.5678 93.6969 78.0152C93.3202 77.3452 92.889 76.6848 92.7143 75.9266C92.5139 75.0546 92.6149 74.1137 93.0141 73.3122C95.231 68.9571 98.7737 65.2928 103.043 62.914C105.772 61.3832 108.797 60.383 111.901 59.9807ZM111.925 69.1302C110.227 69.3915 108.607 70.1128 107.273 71.1948C106.231 72.0219 105.452 73.1135 104.583 74.1073C104.141 74.5737 104.078 75.3528 104.493 75.8577C105.522 77.0615 106.473 78.3759 107.8 79.2783C109.743 80.6585 112.205 81.2788 114.571 80.9951C116.978 80.729 119.259 79.5156 120.838 77.6834C121.397 77.0406 121.95 76.3161 122.041 75.4393C122.194 74.476 121.798 73.519 121.176 72.7993C119.052 70.0246 115.376 68.5531 111.925 69.1302Z"
          fill="#DEE3F8"/>
    <path d="M74.7135 70.405C77.0395 69.9257 79.5354 71.4822 80.1333 73.7775C80.821 76.0136 79.5595 78.6072 77.3826 79.4551C75.2698 80.38 72.5864 79.4712 71.4674 77.4563C70.2764 75.4943 70.8038 72.7228 72.6393 71.3427C73.2404 70.865 73.9601 70.5428 74.7135 70.405Z"
          fill="#DEE3F8"/>
    <path d="M12.2827 77.3339L12.4543 77.2441C12.7252 77.5551 12.8759 77.9462 13.081 78.3021C15.2211 82.1395 18.3405 85.4287 22.0692 87.7545C22.4138 87.9757 22.8274 88.1713 22.9957 88.5704C23.1672 88.9151 23.0919 89.3094 23.0887 89.6797C22.9268 92.7573 24.0136 95.8734 26.0414 98.1928C28.9269 101.554 33.8369 103.287 38.1234 101.888C40.6561 101.076 42.9998 99.6451 44.832 97.7119C50.4971 92.0456 56.1605 86.3776 61.832 80.7161C63.5552 78.9833 66.6362 79.0026 68.3451 80.7481C70.1452 82.4152 70.2398 85.5137 68.5358 87.2817C63.0503 92.7942 57.5359 98.2794 52.0392 103.782C50.6686 105.212 49.1778 106.541 47.493 107.592C44.5322 109.476 41.105 110.64 37.6008 110.891C32.2387 110.978 26.8702 109.322 22.4667 106.264C18.0328 103.207 14.5767 98.7522 12.7396 93.6886C10.8609 88.4807 10.5547 82.6236 12.2827 77.3339Z"
          fill="#DEE3F8"/>
    <path d="M83.2944 81.0629C84.8814 80.5869 86.704 81.0341 87.8807 82.2042C92.4268 86.7405 96.9617 91.2864 101.501 95.8259C102.965 97.307 104.469 98.7465 105.895 100.261C108.047 102.65 109.662 105.519 110.573 108.601C111.12 110.518 111.504 112.517 111.368 114.519C111.148 119.508 109.452 124.417 106.546 128.476C103.398 132.91 98.8389 136.324 93.69 138.074C89.1006 139.634 84.0655 139.953 79.3462 138.802C78.7835 138.645 78.1984 138.544 77.6807 138.263C77.9756 137.948 78.3812 137.789 78.7515 137.584C82.7302 135.378 86.1141 132.115 88.4674 128.223C88.7046 127.776 89.1919 127.474 89.7049 127.535C92.119 127.716 94.5893 127.206 96.6973 126.004C100.761 123.76 103.331 119.017 102.808 114.381C102.45 111.99 101.381 109.747 99.9706 107.801C99.1964 106.711 98.1993 105.819 97.2663 104.871C91.9491 99.5543 86.6335 94.2374 81.3147 88.9221C80.2054 87.8481 79.6957 86.2083 79.9938 84.6952C80.2984 82.9913 81.6289 81.5278 83.2944 81.0629Z"
          fill="#DEE3F8"/>
    <path d="M74.7289 92.2098C75.6234 92.0046 76.5868 92.1233 77.4027 92.5432C82.3384 95.0774 86.3748 99.3156 88.6623 104.371C91.1358 109.771 91.5494 116.069 89.8437 121.755C88.3594 126.767 85.2319 131.268 81.0688 134.428C76.994 137.545 71.9284 139.342 66.7988 139.483C61.9432 139.647 57.0476 138.344 52.9263 135.768C48.3224 132.919 44.6964 128.529 42.784 123.465C42.4153 122.556 42.2021 121.596 41.9937 120.643C41.4791 118.216 41.2162 115.733 41.2258 113.253C41.2355 112.165 42.1636 111.208 43.2312 111.091C44.1754 110.956 45.1612 111.475 45.5893 112.327C45.8249 112.75 45.8457 113.245 45.8666 113.72C46.0205 117.034 47.3766 120.271 49.6032 122.728C52.907 126.455 58.2034 128.279 63.0974 127.325C63.4885 127.259 63.5703 126.766 63.3443 126.487C61.5601 123.214 60.5374 119.53 60.3707 115.807C60.1158 110.634 61.5297 105.394 64.3782 101.068C66.5295 97.7784 69.4614 95.0021 72.8758 93.0529C73.4673 92.7227 74.0588 92.3589 74.7289 92.2098ZM75.0158 103.847C74.2897 104.331 73.6725 104.961 72.9944 105.508C70.6027 107.532 69.3059 110.756 69.6313 113.873C69.8862 116.744 71.5036 119.448 73.8969 121.05C74.6696 121.566 75.6795 121.705 76.5627 121.418C77.2745 121.189 77.8484 120.684 78.403 120.205C80.1583 118.623 81.3189 116.393 81.5722 114.04C81.8735 111.48 81.1089 108.818 79.4882 106.814C78.6643 105.758 77.5646 104.976 76.566 104.1C76.1588 103.717 75.5208 103.581 75.0158 103.847Z"
          fill="#DEE3F8"/>
</svg>