<svg width="94" height="94" viewBox="0 0 94 94" fill="none" xmlns="http://www.w3.org/2000/svg">
<g id="Frame" clip-path="url(#clip0_1433_2214)">
<g id="Group 620">
<path id="Vector" fill-rule="evenodd" clip-rule="evenodd" d="M36.2848 78.395L40.9428 76.8787L33.8691 70.4797L36.2848 78.395Z" fill="#3F3F3F"/>
<path id="Vector_2" fill-rule="evenodd" clip-rule="evenodd" d="M21.9902 68.9891L26.7895 70.0042L23.8598 60.926L21.9902 68.9891Z" fill="#3F3F3F"/>
<path id="Vector_3" fill-rule="evenodd" clip-rule="evenodd" d="M57.1019 15.6573L52.4375 17.1735L59.5176 23.5726L57.1019 15.6573Z" fill="#3F3F3F"/>
<path id="Vector_4" fill-rule="evenodd" clip-rule="evenodd" d="M17.9612 56.9748L19.9657 47.6461L14.3184 53.6982L17.9612 56.9748Z" fill="#3F3F3F"/>
<path id="Vector_5" fill-rule="evenodd" clip-rule="evenodd" d="M23.2356 34.1991L15.3203 36.6148L16.8366 41.2792L23.2356 34.1991Z" fill="#3F3F3F"/>
<path id="Vector_6" fill-rule="evenodd" clip-rule="evenodd" d="M71.3905 25.0632L66.5977 24.0416L69.5209 33.1262L71.3905 25.0632Z" fill="#3F3F3F"/>
<path id="Vector_7" fill-rule="evenodd" clip-rule="evenodd" d="M24.726 22.3262L23.7109 27.1191L32.7891 24.1958L24.726 22.3262Z" fill="#3F3F3F"/>
<path id="Vector_8" fill-rule="evenodd" clip-rule="evenodd" d="M40.0169 14.6552L36.7402 18.298L46.069 20.3025L40.0169 14.6552Z" fill="#3F3F3F"/>
<path id="Vector_9" fill-rule="evenodd" clip-rule="evenodd" d="M73.4141 46.4062L79.0614 40.3541L75.4186 37.0775L73.4141 46.4062Z" fill="#3F3F3F"/>
<path id="Vector_10" fill-rule="evenodd" clip-rule="evenodd" d="M89.6742 49.5542C90.246 48.8924 90.7664 48.1664 91.2161 47.3826C95.0903 40.6688 92.7902 32.0789 86.0764 28.2048C85.7808 28.0313 85.4724 27.8707 85.1705 27.7229C85.3375 26.862 85.421 25.9754 85.421 25.0695C85.421 17.3148 79.1312 11.0314 71.383 11.0314C71.036 11.0314 70.6955 11.0443 70.355 11.07C70.0659 10.2412 69.6997 9.43167 69.25 8.64785C65.3758 1.934 56.786 -0.36606 50.0721 3.50806C49.7766 3.68153 49.481 3.86142 49.2048 4.05416C48.543 3.48236 47.817 2.96196 47.0332 2.51222C40.3193 -1.36189 31.7295 0.938164 27.8553 7.65202C27.6819 7.94756 27.5213 8.25594 27.3735 8.55791C26.5126 8.39086 25.626 8.30734 24.7201 8.30734C16.9654 8.30734 10.682 14.5972 10.682 22.3454C10.682 22.6923 10.6949 23.0329 10.7206 23.3734C9.89176 23.6625 9.08225 24.0287 8.29843 24.4784C1.58457 28.3525 -0.715486 36.9424 3.15863 43.6563C3.3321 43.9518 3.51199 44.2473 3.70474 44.5236C3.13293 45.1854 2.61253 45.9114 2.1628 46.6952C-1.71132 53.409 0.588737 61.9989 7.30259 65.873C7.59813 66.0465 7.90652 66.2071 8.20848 66.3549C8.04144 67.2158 7.95792 68.1024 7.95792 69.0083C7.95792 76.763 14.2477 83.0464 21.996 83.0464C22.3429 83.0464 22.6834 83.0335 23.0239 83.0078C23.3131 83.8366 23.6793 84.6461 24.129 85.43C28.0031 92.1438 36.593 94.4439 43.3068 90.5697C43.6024 90.3963 43.8979 90.2164 44.1742 90.0236C44.8359 90.5954 45.5619 91.1158 46.3457 91.5656C53.0596 95.4397 61.6495 93.1396 65.5236 86.4258C65.6971 86.1302 65.8577 85.8219 66.0055 85.5199C66.8664 85.6869 67.753 85.7705 68.6589 85.7705C76.4135 85.7705 82.6969 79.4806 82.6969 71.7324C82.6969 71.3855 82.6841 71.045 82.6584 70.7044C83.4872 70.4153 84.2967 70.0491 85.0805 69.5994C91.7944 65.7253 94.0944 57.1354 90.2203 50.4215C90.0469 50.126 89.867 49.8305 89.6742 49.5542ZM85.4981 52.4068C88.113 56.9298 86.5582 62.7185 82.0352 65.3334C80.2812 66.3485 78.3345 66.734 76.4521 66.5605C77.1909 67.9033 77.6085 69.4516 77.6085 71.0899C77.6085 76.3132 73.3746 80.5536 68.1449 80.5536C66.1147 80.5536 64.2387 79.9175 62.6967 78.8253C62.6582 80.3608 62.2534 81.9028 61.431 83.3291C58.8162 87.8521 53.0339 89.4069 48.5045 86.792C46.7505 85.7769 45.4399 84.2863 44.6496 82.5709C43.8529 83.8816 42.7222 85.0188 41.3023 85.8347C36.7793 88.4496 30.9906 86.8948 28.3757 82.3718C27.3606 80.6178 26.9752 78.6711 27.1486 76.7887C25.8058 77.5275 24.2575 77.9451 22.6192 77.9451C17.3959 77.9451 13.1555 73.7112 13.1555 68.4815C13.1555 66.4513 13.7916 64.5752 14.8838 63.0333C13.3483 62.9947 11.8063 62.59 10.38 61.7676C5.85703 59.1528 4.30224 53.3705 6.91711 48.841C7.93222 47.0871 9.42276 45.7764 11.1382 44.9862C9.82752 44.1895 8.69034 43.0588 7.87439 41.6389C5.25952 37.1159 6.81431 31.3272 11.3373 28.7123C13.0913 27.6972 15.038 27.3117 16.9204 27.4852C16.1816 26.1424 15.764 24.5941 15.764 22.9558C15.764 17.7324 19.9979 13.4921 25.2276 13.4921C27.2578 13.4921 29.1339 14.1282 30.6758 15.2204C30.7144 13.6849 31.1191 12.1429 31.9415 10.7166C34.5563 6.1936 40.3386 4.63881 44.8681 7.25369C46.622 8.26879 47.9327 9.75933 48.7229 11.4747C49.5196 10.1641 50.6503 9.02691 52.0702 8.21097C56.5932 5.5961 62.3819 7.15089 64.9968 11.6739C66.0119 13.4279 66.3974 15.3746 66.2239 17.257C67.5667 16.5182 69.115 16.1006 70.7533 16.1006C75.9767 16.1006 80.217 20.3345 80.217 25.5642C80.217 27.5944 79.5809 29.4704 78.4887 31.0124C80.0243 31.0509 81.5662 31.4557 82.9925 32.2781C87.5155 34.8929 89.0703 40.6752 86.4554 45.2046C85.4403 46.9586 83.9498 48.2692 82.2344 49.0595C83.545 49.8561 84.6822 50.9869 85.4981 52.4068Z" fill="#3F3F3F"/>
<path id="Vector_11" fill-rule="evenodd" clip-rule="evenodd" d="M70.1426 59.8467L78.0579 57.431L76.5416 52.7731L70.1426 59.8467Z" fill="#3F3F3F"/>
<path id="Vector_12" fill-rule="evenodd" clip-rule="evenodd" d="M53.3627 79.3971L56.6393 75.7543L47.3105 73.7498L53.3627 79.3971Z" fill="#3F3F3F"/>
<path id="Vector_13" fill-rule="evenodd" clip-rule="evenodd" d="M63.6098 56.9105L71.4415 48.5198L66.2825 47.1321L68.8716 35.9466L63.7061 37.3215L60.3588 26.3416L56.5747 30.1129L48.184 22.2812L46.7962 27.4403L35.6107 24.8511L36.9856 30.0166L26.0057 33.3639L29.7771 37.148L21.9453 45.5388L27.1044 46.9265L24.5152 58.112L29.6807 56.7371L33.028 67.717L36.8122 63.9456L45.2029 71.7774L46.5906 66.6183L57.7761 69.2075L56.4012 64.042L67.3811 60.6947L63.6098 56.9105ZM61.2904 62.0632L55.9836 63.6822L51.8139 67.3443L46.4107 66.0979L40.969 67.1837L36.915 63.3995L31.6595 61.6199L30.0405 56.313L26.3784 52.1434L27.6248 46.7402L26.539 41.2984L30.3232 37.2444L32.1028 31.989L37.4097 30.3699L41.5793 26.7078L46.9825 27.9542L52.4243 26.8685L56.4783 30.6526L61.7337 32.4323L63.3528 37.7391L67.0149 41.9088L65.7685 47.312L66.8543 52.7537L63.0701 56.8078L61.2904 62.0632Z" fill="#3F3F3F"/>
<path id="Vector_14" fill-rule="evenodd" clip-rule="evenodd" d="M68.6529 71.7261L69.6744 66.9268L60.5898 69.8565L68.6529 71.7261Z" fill="#3F3F3F"/>
</g>
</g>
<defs>
<clipPath id="clip0_1433_2214">
<rect width="92.8182" height="92.8182" fill="white" transform="translate(0.28125 0.629822)"/>
</clipPath>
</defs>
</svg>
