<svg width="102" height="102" viewBox="0 0 102 102" fill="none" xmlns="http://www.w3.org/2000/svg">
<path d="M40.9971 0.742055C43.6225 0.477266 46.317 0.703152 48.827 1.53015C48.8245 1.57909 48.8182 1.67572 48.8157 1.72466C45.3921 3.47528 42.4466 6.1671 40.4637 9.46756C40.2692 9.84278 39.845 10.0561 39.4271 9.99713C37.3827 9.84403 35.2906 10.3573 33.5675 11.4729C30.5982 13.344 28.7872 16.977 29.2692 20.477C29.6683 22.7095 30.7802 24.7927 32.3037 26.4618C36.7565 30.918 41.2129 35.3717 45.6669 39.8255C46.1476 40.286 46.6245 40.7805 46.8742 41.4104C47.4892 42.8084 47.1077 44.5616 45.9618 45.573C44.6177 46.8493 42.301 46.8355 40.9783 45.5329C36.454 41.0202 31.9398 36.4974 27.4193 31.9797C24.6031 29.1624 22.8097 25.3298 22.5261 21.3504C22.4646 17.6221 23.4786 13.8861 25.3862 10.6848C27.2624 7.52117 30.0058 4.8808 33.2387 3.12641C35.6307 1.82129 38.2876 1.01437 40.9971 0.742055Z" fill="#DEE3F8"/>
<path d="M55.9362 0.74668C60.2685 0.267299 64.7526 1.28881 68.431 3.63175C71.9726 5.86176 74.7612 9.2626 76.2408 13.1792C76.5508 13.9422 76.7227 14.7517 76.8959 15.5548C77.2737 17.377 77.4607 19.238 77.4657 21.0991C77.4945 21.9599 76.788 22.7493 75.9446 22.8635C75.1766 22.9978 74.3583 22.5698 74.0295 21.8658C73.84 21.517 73.85 21.1116 73.8249 20.7276C73.6831 18.0898 72.5674 15.5259 70.7602 13.6034C68.1699 10.7899 64.11 9.43704 60.3526 10.1574C60.0476 10.2013 59.961 10.5815 60.1392 10.8024C61.5862 13.4528 62.3957 16.4458 62.4861 19.4652C62.6241 23.4508 61.4971 27.4716 59.2883 30.7934C57.4548 33.5705 54.9059 35.8733 51.9454 37.3943C51.3405 37.7042 50.6314 37.8059 49.9637 37.6741C49.3663 37.57 48.8468 37.2387 48.3272 36.9475C44.9262 34.9886 42.1451 31.978 40.4647 28.4316C38.9524 25.2679 38.3412 21.6889 38.6813 18.2014C39.0453 14.3237 40.6241 10.5778 43.1303 7.59857C46.3067 3.77983 50.9928 1.25994 55.9362 0.74668ZM49.7755 14.7918C49.3161 14.9437 48.9334 15.2499 48.5657 15.5548C47.0722 16.806 46.077 18.6407 45.8737 20.582C45.6491 22.541 46.2201 24.5752 47.4349 26.1276C48.1013 27.011 49.0099 27.6586 49.8382 28.3789C50.1721 28.6813 50.7029 28.7441 51.0869 28.4981C52.2629 27.5481 53.5078 26.5956 54.247 25.2416C55.182 23.6252 55.4844 21.66 55.0929 19.8341C54.6925 17.9028 53.5028 16.1521 51.8613 15.0591C51.2526 14.6638 50.4645 14.5634 49.7755 14.7918Z" fill="#DEE3F8"/>
<path d="M69.3118 28.2726C72.1794 25.2558 76.1703 23.3056 80.3344 23.027C84.4784 22.9693 88.6236 24.2368 92.041 26.5797C95.516 28.944 98.2369 32.4001 99.7027 36.3405C101.207 40.3852 101.46 44.928 100.203 49.073C100.178 49.2311 100.09 49.3315 99.9399 49.3755C98.2118 45.9319 95.5098 42.9816 92.2104 40.9875C91.8151 40.7905 91.5766 40.3563 91.6469 39.9158C91.8351 37.465 91.0357 34.9564 89.4419 33.0815C87.1779 30.3558 83.2322 28.9453 79.811 30.1011C77.6499 30.79 75.7223 32.1039 74.205 33.7805C69.9117 38.0698 65.6246 42.3654 61.3287 46.6523C59.9721 48.0139 57.5462 47.9925 56.2109 46.6109C54.8153 45.3032 54.7488 42.8913 56.0766 41.5133C60.4816 37.0922 64.9017 32.6875 69.3118 28.2726Z" fill="#DEE3F8"/>
<path d="M17.7654 24.3272C18.748 24.228 19.737 24.169 20.7246 24.1803C21.6897 24.2167 22.4779 25.1642 22.3787 26.1179C22.3323 27.0215 21.5178 27.7958 20.6117 27.7958C17.7729 27.8623 14.983 29.0394 12.9525 31.0247C10.2341 33.6211 8.93899 37.6168 9.66438 41.3101C9.78737 41.7869 10.322 41.5297 10.5993 41.3465C14.1798 39.4565 18.3653 38.7651 22.3699 39.3423C28.5721 40.1882 34.2171 44.2654 36.9793 49.88C37.3345 50.6906 37.3094 51.6569 36.9166 52.4488C35.0717 56.0755 32.051 59.0861 28.4265 60.9308C24.3553 63.0278 19.5311 63.5875 15.0809 62.5246C11.4176 61.6612 8.02912 59.6947 5.4476 56.9577C3.62158 55.0289 2.1934 52.7236 1.29231 50.2251C-0.02167 46.6234 -0.22247 42.6303 0.698696 38.9094C1.51193 35.5964 3.22877 32.5143 5.60321 30.0659C7.74173 27.856 10.4073 26.1531 13.3239 25.1705C14.7735 24.7526 16.2657 24.4878 17.7654 24.3272ZM19.4119 46.5318C17.4416 46.9196 15.6482 48.1256 14.5438 49.8022C14.156 50.4095 14.0644 51.1914 14.2928 51.874C14.4371 52.3145 14.7308 52.6822 15.0194 53.0361C16.2242 54.4906 17.9762 55.4832 19.8499 55.738C21.8767 56.0329 24.009 55.4706 25.6216 54.2094C26.4989 53.5506 27.1402 52.6508 27.853 51.8314C28.163 51.5038 28.2496 50.978 28.0149 50.584C27.1101 49.4558 26.2052 48.2624 24.9389 47.5119C23.3087 46.5017 21.2906 46.1503 19.4119 46.5318Z" fill="#DEE3F8"/>
<path d="M79.0134 39.2567C83.426 38.6694 88.0305 39.6457 91.8056 42.0088C95.3823 44.2212 98.2123 47.6221 99.7146 51.5525C101.256 55.5218 101.426 60.0019 100.215 64.0817C98.6152 69.582 94.4386 74.2478 89.1588 76.4628C87.8185 77.0701 86.3689 77.3651 84.9257 77.6098C83.4523 77.8469 81.9589 77.9674 80.4667 77.9637C79.8154 77.9549 79.2117 77.5269 78.9356 76.9459C78.544 76.1641 78.8239 75.13 79.5593 74.6557C80.1542 74.2265 80.9223 74.3821 81.6037 74.2666C85.2645 73.8513 88.6279 71.5271 90.336 68.2668C91.537 66.0218 91.9537 63.3651 91.4893 60.8615C91.4554 60.5716 91.0902 60.4562 90.8706 60.6256C86.5195 63.0225 81.236 63.6299 76.4469 62.3197C71.5813 61.0171 67.2993 57.723 64.7617 53.3759C64.4668 52.8513 64.1292 52.3343 63.9924 51.7407C63.8355 51.058 63.9146 50.3214 64.2271 49.6939C65.9627 46.2843 68.7363 43.4155 72.0783 41.5532C74.2156 40.3548 76.5837 39.5717 79.0134 39.2567ZM79.0322 46.4198C77.7032 46.6244 76.4344 47.1891 75.3902 48.0362C74.5745 48.6837 73.9646 49.5383 73.2844 50.3164C72.938 50.6816 72.889 51.2915 73.2141 51.6868C74.0198 52.6292 74.764 53.6583 75.8031 54.3648C77.3242 55.4453 79.2519 55.9309 81.1042 55.7088C82.988 55.5005 84.7738 54.5505 86.01 53.1161C86.448 52.6129 86.881 52.0457 86.9525 51.3592C87.0717 50.605 86.7617 49.8558 86.2748 49.2924C84.6119 47.1201 81.7342 45.9681 79.0322 46.4198Z" fill="#DEE3F8"/>
<path d="M49.8997 47.4179C51.7207 47.0426 53.6747 48.2612 54.1429 50.0582C54.6813 51.8088 53.6936 53.8393 51.9893 54.5032C50.3352 55.2273 48.2344 54.5157 47.3584 52.9383C46.4259 51.4023 46.8388 49.2325 48.2758 48.152C48.7464 47.778 49.3099 47.5258 49.8997 47.4179Z" fill="#DEE3F8"/>
<path d="M1.02272 52.8425L1.157 52.7722C1.3691 53.0157 1.48707 53.3219 1.64771 53.6005C3.32313 56.6048 5.76534 59.1799 8.68446 61.0008C8.95429 61.1739 9.27807 61.327 9.40985 61.6395C9.54413 61.9093 9.48515 62.218 9.48264 62.5079C9.35588 64.9174 10.2068 67.357 11.7943 69.1728C14.0533 71.8044 17.8974 73.161 21.2532 72.0654C23.2361 71.4305 25.0709 70.3098 26.5054 68.7964C30.9405 64.3602 35.3744 59.9228 39.8146 55.4904C41.1637 54.1338 43.5758 54.1489 44.9136 55.5155C46.323 56.8206 46.397 59.2464 45.063 60.6306C40.7684 64.9463 36.4512 69.2406 32.1478 73.5488C31.0748 74.6682 29.9077 75.7085 28.5887 76.5317C26.2707 78.0063 23.5875 78.9173 20.8441 79.1144C16.6461 79.1821 12.4432 77.8858 8.9957 75.4914C5.52438 73.0982 2.81862 69.6108 1.38039 65.6465C-0.0904604 61.5692 -0.330165 56.9837 1.02272 52.8425Z" fill="#DEE3F8"/>
<path d="M56.6176 55.7619C57.8601 55.3892 59.287 55.7394 60.2082 56.6554C63.7674 60.2069 67.3177 63.7659 70.8719 67.3198C72.0177 68.4794 73.1949 69.6063 74.3118 70.7922C75.996 72.662 77.2611 74.9083 77.9739 77.3216C78.4018 78.8225 78.703 80.3873 78.5964 81.9548C78.4244 85.8601 77.0966 89.7039 74.8213 92.8814C72.3565 96.3525 68.7873 99.0255 64.7563 100.396C61.1632 101.617 57.2213 101.867 53.5266 100.966C53.0861 100.843 52.628 100.764 52.2227 100.544C52.4536 100.297 52.7711 100.173 53.061 100.012C56.1759 98.2851 58.8252 95.7301 60.6675 92.6831C60.8533 92.333 61.2348 92.0971 61.6364 92.1448C63.5264 92.2866 65.4603 91.8875 67.1107 90.9463C70.2921 89.1894 72.3038 85.4761 71.8947 81.8468C71.6148 79.9745 70.7778 78.2188 69.6734 76.6954C69.0672 75.842 68.2866 75.143 67.5562 74.4014C63.3934 70.2388 59.2318 66.0762 55.0677 61.9148C54.1993 61.074 53.8002 59.7902 54.0336 58.6056C54.2721 57.2716 55.3137 56.1259 56.6176 55.7619Z" fill="#DEE3F8"/>
<path d="M49.9112 64.4888C50.6115 64.3281 51.3658 64.421 52.0046 64.7498C55.8687 66.7338 59.0288 70.0519 60.8196 74.0099C62.7561 78.2377 63.0799 83.1683 61.7446 87.6196C60.5824 91.5437 58.134 95.0676 54.8747 97.541C51.6845 99.9818 47.7188 101.389 43.7028 101.499C39.9014 101.627 36.0686 100.607 32.842 98.5901C29.2377 96.3601 26.3989 92.9229 24.9017 88.9586C24.613 88.247 24.4461 87.4953 24.283 86.7486C23.8801 84.8487 23.6743 82.9048 23.6818 80.9634C23.6894 80.1113 24.416 79.3622 25.2518 79.2705C25.991 79.1651 26.7629 79.5717 27.0979 80.2381C27.2824 80.5694 27.2987 80.9572 27.3151 81.3286C27.4355 83.9238 28.4973 86.4575 30.2404 88.3813C32.827 91.299 36.9735 92.7271 40.805 91.9804C41.1112 91.929 41.1752 91.5425 40.9983 91.3241C39.6014 88.7615 38.8008 85.8777 38.6702 82.9625C38.4707 78.9129 39.5776 74.8105 41.8077 71.4235C43.4919 68.8484 45.7873 66.6749 48.4605 65.1489C48.9235 64.8903 49.3866 64.6055 49.9112 64.4888ZM50.1359 73.5995C49.5674 73.9785 49.0842 74.4717 48.5533 74.8996C46.6809 76.4846 45.6656 79.0083 45.9203 81.4491C46.1199 83.6967 47.3862 85.8137 49.2599 87.0674C49.8648 87.4715 50.6554 87.5807 51.3469 87.356C51.9042 87.1766 52.3534 86.7813 52.7877 86.406C54.1619 85.1674 55.0705 83.4218 55.2688 81.5796C55.5047 79.5755 54.9061 77.4911 53.6373 75.9224C52.9922 75.0954 52.1313 74.483 51.3494 73.7978C51.0307 73.4979 50.5312 73.3912 50.1359 73.5995Z" fill="#DEE3F8"/>
</svg>
