<svg width="173" height="53" viewBox="0 0 173 53" fill="none" xmlns="http://www.w3.org/2000/svg">
<g id="Group 286">
<g id="Group 282">
<path id="Vector" d="M142.578 2.33139C143.88 2.20014 145.215 2.3121 146.459 2.722C146.458 2.74626 146.455 2.79415 146.454 2.81841C144.757 3.6861 143.297 5.02028 142.314 6.65614C142.217 6.84211 142.007 6.94785 141.8 6.91862C140.787 6.84273 139.75 7.09713 138.896 7.65009C137.424 8.57749 136.527 10.3782 136.765 12.1129C136.963 13.2195 137.514 14.252 138.269 15.0792C140.476 17.2879 142.685 19.4954 144.893 21.7029C145.131 21.9312 145.367 22.1762 145.491 22.4885C145.796 23.1814 145.607 24.0503 145.039 24.5516C144.373 25.1842 143.225 25.1774 142.569 24.5317C140.326 22.295 138.089 20.0533 135.848 17.8141C134.453 16.4178 133.564 14.5182 133.423 12.5458C133.393 10.6979 133.895 8.84619 134.841 7.25947C135.771 5.69142 137.13 4.38273 138.733 3.51318C139.918 2.8663 141.235 2.46636 142.578 2.33139Z" fill="#0021AE"/>
<path id="Vector_2" d="M149.98 2.33365C152.128 2.09605 154.35 2.60236 156.173 3.76362C157.929 4.86891 159.311 6.55453 160.044 8.49578C160.198 8.87396 160.283 9.27515 160.369 9.67322C160.556 10.5764 160.649 11.4988 160.651 12.4212C160.666 12.8479 160.316 13.2391 159.898 13.2957C159.517 13.3623 159.111 13.1502 158.948 12.8013C158.854 12.6283 158.859 12.4274 158.847 12.2371C158.777 10.9297 158.224 9.65892 157.328 8.70602C156.044 7.3115 154.032 6.64099 152.169 6.99801C152.018 7.01978 151.975 7.20825 152.064 7.31772C152.781 8.63138 153.182 10.1148 153.227 11.6114C153.295 13.5868 152.737 15.5797 151.642 17.2261C150.733 18.6026 149.47 19.744 148.002 20.4978C147.703 20.6515 147.351 20.7019 147.02 20.6366C146.724 20.5849 146.467 20.4207 146.209 20.2764C144.523 19.3055 143.145 17.8133 142.312 16.0555C141.563 14.4875 141.26 12.7135 141.428 10.985C141.609 9.06305 142.391 7.20638 143.633 5.72976C145.208 3.83702 147.53 2.58805 149.98 2.33365ZM146.927 9.29505C146.699 9.37031 146.51 9.52208 146.327 9.67322C145.587 10.2934 145.094 11.2027 144.993 12.1649C144.882 13.1359 145.165 14.1441 145.767 14.9136C146.097 15.3514 146.547 15.6724 146.958 16.0294C147.123 16.1793 147.387 16.2104 147.577 16.0885C148.16 15.6177 148.777 15.1456 149.143 14.4744C149.607 13.6733 149.757 12.6992 149.562 11.7942C149.364 10.837 148.774 9.9693 147.961 9.42754C147.659 9.23161 147.268 9.18185 146.927 9.29505Z" fill="#0021AE"/>
<path id="Vector_3" d="M156.612 15.9766C158.033 14.4813 160.011 13.5148 162.075 13.3767C164.129 13.3481 166.183 13.9763 167.877 15.1375C169.6 16.3094 170.948 18.0224 171.675 19.9754C172.421 21.9801 172.546 24.2318 171.923 26.2862C171.911 26.3646 171.867 26.4144 171.792 26.4361C170.936 24.7294 169.597 23.2671 167.961 22.2787C167.765 22.181 167.647 21.9658 167.682 21.7475C167.775 20.5328 167.379 19.2894 166.589 18.3601C165.467 17.0091 163.511 16.31 161.816 16.8829C160.744 17.2243 159.789 17.8756 159.037 18.7066C156.909 20.8326 154.784 22.9617 152.655 25.0864C151.982 25.7613 150.78 25.7507 150.118 25.0659C149.427 24.4177 149.394 23.2223 150.052 22.5393C152.235 20.348 154.426 18.1648 156.612 15.9766Z" fill="#0021AE"/>
<path id="Vector_4" d="M131.061 14.0212C131.548 13.9721 132.038 13.9428 132.528 13.9484C133.006 13.9665 133.396 14.4361 133.347 14.9088C133.324 15.3566 132.921 15.7404 132.472 15.7404C131.065 15.7734 129.682 16.3568 128.675 17.3408C127.328 18.6277 126.686 20.6082 127.046 22.4387C127.107 22.6751 127.371 22.5476 127.509 22.4567C129.284 21.52 131.358 21.1773 133.343 21.4634C136.417 21.8826 139.215 23.9035 140.584 26.6863C140.76 27.0881 140.748 27.5671 140.553 27.9596C139.639 29.7571 138.141 31.2493 136.345 32.1636C134.327 33.203 131.936 33.4804 129.73 32.9536C127.915 32.5256 126.235 31.551 124.956 30.1944C124.05 29.2384 123.343 28.0958 122.896 26.8574C122.245 25.0722 122.145 23.093 122.602 21.2488C123.005 19.6067 123.856 18.0791 125.033 16.8656C126.093 15.7703 127.414 14.9262 128.859 14.4392C129.578 14.2321 130.317 14.1008 131.061 14.0212ZM131.877 25.0268C130.9 25.219 130.011 25.8168 129.464 26.6478C129.272 26.9488 129.226 27.3363 129.34 27.6747C129.411 27.893 129.557 28.0752 129.7 28.2507C130.297 28.9715 131.165 29.4635 132.094 29.5898C133.099 29.736 134.155 29.4573 134.955 28.8322C135.389 28.5057 135.707 28.0597 136.061 27.6535C136.214 27.4912 136.257 27.2306 136.141 27.0353C135.692 26.4761 135.244 25.8846 134.616 25.5126C133.808 25.0119 132.808 24.8378 131.877 25.0268Z" fill="#0021AE"/>
<path id="Vector_5" d="M161.418 21.421C163.605 21.1299 165.887 21.6138 167.758 22.785C169.531 23.8816 170.933 25.5672 171.678 27.5153C172.442 29.4827 172.526 31.7032 171.926 33.7253C171.133 36.4515 169.063 38.7641 166.446 39.862C165.782 40.163 165.063 40.3092 164.348 40.4305C163.618 40.548 162.877 40.6077 162.138 40.6059C161.815 40.6015 161.516 40.3894 161.379 40.1014C161.185 39.7139 161.324 39.2014 161.688 38.9663C161.983 38.7536 162.364 38.8307 162.701 38.7735C164.516 38.5676 166.183 37.4156 167.029 35.7997C167.625 34.6869 167.831 33.3702 167.601 32.1293C167.584 31.9856 167.403 31.9284 167.294 32.0123C165.138 33.2004 162.519 33.5014 160.145 32.852C157.734 32.2064 155.611 30.5737 154.354 28.4191C154.208 28.1591 154.04 27.9028 153.972 27.6086C153.895 27.2702 153.934 26.9051 154.089 26.5941C154.949 24.9042 156.324 23.4823 157.98 22.5592C159.039 21.9652 160.213 21.5771 161.418 21.421ZM161.427 24.9713C160.768 25.0727 160.139 25.3526 159.622 25.7725C159.217 26.0934 158.915 26.517 158.578 26.9026C158.406 27.0836 158.382 27.3859 158.543 27.5819C158.942 28.049 159.311 28.559 159.826 28.9092C160.58 29.4447 161.536 29.6855 162.454 29.5754C163.387 29.4721 164.273 29.0013 164.885 28.2903C165.102 28.0409 165.317 27.7597 165.352 27.4195C165.412 27.0457 165.258 26.6744 165.017 26.3951C164.192 25.3184 162.766 24.7474 161.427 24.9713Z" fill="#0021AE"/>
<path id="Vector_6" d="M146.991 25.4658C147.894 25.2799 148.862 25.8838 149.094 26.7745C149.361 27.6422 148.872 28.6486 148.027 28.9776C147.207 29.3365 146.166 28.9839 145.732 28.202C145.27 27.4407 145.474 26.3652 146.186 25.8297C146.42 25.6444 146.699 25.5193 146.991 25.4658Z" fill="#0021AE"/>
<path id="Vector_7" d="M122.762 28.1547L122.829 28.1199C122.934 28.2405 122.993 28.3923 123.072 28.5304C123.903 30.0195 125.113 31.2958 126.56 32.1983C126.694 32.2841 126.854 32.36 126.919 32.5149C126.986 32.6486 126.957 32.8016 126.955 32.9453C126.893 34.1396 127.314 35.3487 128.101 36.2488C129.221 37.5531 131.126 38.2255 132.79 37.6825C133.772 37.3677 134.682 36.8123 135.393 36.0622C137.591 33.8634 139.789 31.664 141.989 29.4671C142.658 28.7947 143.854 28.8022 144.517 29.4796C145.215 30.1264 145.252 31.3288 144.591 32.0148C142.462 34.1539 140.322 36.2823 138.189 38.4177C137.658 38.9725 137.079 39.4881 136.425 39.8962C135.276 40.627 133.946 41.0786 132.587 41.1762C130.506 41.2098 128.423 40.5673 126.714 39.3805C124.994 38.1944 123.652 36.4658 122.94 34.5009C122.211 32.4801 122.092 30.2073 122.762 28.1547Z" fill="#0021AE"/>
<path id="Vector_8" d="M150.319 29.6016C150.935 29.4169 151.642 29.5904 152.099 30.0445C153.863 31.8048 155.622 33.5687 157.384 35.3302C157.952 35.905 158.535 36.4635 159.089 37.0513C159.924 37.9781 160.551 39.0915 160.904 40.2876C161.116 41.0315 161.265 41.8071 161.213 42.584C161.127 44.5196 160.469 46.4248 159.342 47.9997C158.12 49.7202 156.351 51.045 154.353 51.7242C152.572 52.3294 150.618 52.4532 148.787 52.0066C148.569 51.9457 148.342 51.9065 148.141 51.7976C148.255 51.6751 148.412 51.6135 148.556 51.5339C150.1 50.678 151.413 49.4116 152.326 47.9014C152.418 47.7279 152.607 47.611 152.806 47.6346C153.743 47.7049 154.702 47.5071 155.52 47.0406C157.097 46.1698 158.094 44.3293 157.891 42.5305C157.752 41.6025 157.337 40.7323 156.79 39.9772C156.49 39.5542 156.103 39.2078 155.741 38.8402C153.677 36.777 151.615 34.7138 149.551 32.6513C149.12 32.2346 148.923 31.5983 149.038 31.0111C149.156 30.3499 149.673 29.782 150.319 29.6016Z" fill="#0021AE"/>
<path id="Vector_9" d="M146.993 33.927C147.34 33.8474 147.714 33.8934 148.03 34.0564C149.946 35.0398 151.512 36.6843 152.399 38.6461C153.359 40.7416 153.52 43.1855 152.858 45.3917C152.282 47.3367 151.068 49.0833 149.453 50.3092C147.872 51.519 145.906 52.2163 143.916 52.271C142.031 52.3344 140.132 51.8288 138.532 50.8292C136.746 49.7239 135.339 48.0203 134.597 46.0554C134.454 45.7027 134.371 45.3301 134.29 44.96C134.091 44.0183 133.989 43.0548 133.992 42.0926C133.996 41.6703 134.356 41.2989 134.77 41.2535C135.137 41.2013 135.519 41.4028 135.685 41.7331C135.777 41.8973 135.785 42.0895 135.793 42.2736C135.853 43.5599 136.379 44.8157 137.243 45.7692C138.525 47.2154 140.58 47.9232 142.479 47.5531C142.631 47.5276 142.663 47.3361 142.575 47.2278C141.883 45.9577 141.486 44.5284 141.421 43.0835C141.322 41.0763 141.871 39.043 142.976 37.3642C143.811 36.0879 144.949 35.0106 146.274 34.2542C146.503 34.1261 146.733 33.9849 146.993 33.927ZM147.104 38.4427C146.822 38.6306 146.583 38.875 146.32 39.0871C145.392 39.8727 144.888 41.1235 145.015 42.3333C145.114 43.4473 145.741 44.4966 146.67 45.118C146.97 45.3183 147.362 45.3724 147.704 45.2611C147.981 45.1721 148.203 44.9762 148.418 44.7902C149.1 44.1763 149.55 43.3111 149.648 42.398C149.765 41.4047 149.468 40.3716 148.84 39.5941C148.52 39.1842 148.093 38.8806 147.706 38.541C147.548 38.3924 147.3 38.3395 147.104 38.4427Z" fill="#0021AE"/>
</g>
<g id="Mask group">
<mask id="mask0_891_536" style="mask-type:alpha" maskUnits="userSpaceOnUse" x="0" y="0" width="119" height="53">
<rect id="Rectangle 219" x="0.992188" y="0.307129" width="117.323" height="52.3855" fill="#D9D9D9"/>
</mask>
<g mask="url(#mask0_891_536)">
<g id="Group 283">
<g id="#0021aeff">
<path id="Vector_10" d="M54.9563 -116.629C64.8496 -117.264 74.8955 -115.507 83.9529 -111.467C92.9426 -107.501 100.927 -101.319 107.086 -93.6707C114.624 -84.3405 119.343 -72.7637 120.44 -60.8179C120.83 -56.9573 120.685 -53.0745 120.712 -49.2021C120.713 -14.7351 120.711 19.7331 120.713 54.2C120.738 54.9953 120.656 55.805 120.359 56.5495C119.767 58.1063 118.402 59.3397 116.792 59.7687C115.996 60.0008 115.16 59.9525 114.341 59.9551C77.6573 59.9551 40.9737 59.9551 4.29007 59.9551C3.29383 59.9251 2.28455 60.0373 1.30135 59.8391C-1.15927 59.358 -3.03569 56.9563 -2.9079 54.4516C-2.90399 20.1633 -2.9079 -14.1249 -2.9066 -48.4132C-2.86878 -52.4564 -3.037 -56.5114 -2.65754 -60.5428C-1.87124 -69.5132 0.945361 -78.2907 5.48322 -86.0667C10.4097 -94.5195 17.3807 -101.768 25.6193 -107.042C34.3768 -112.652 44.5727 -116.002 54.9563 -116.629ZM52.1514 -114.313C43.4695 -113.343 35.0171 -110.412 27.5896 -105.813C19.2715 -100.683 12.2405 -93.4882 7.30618 -85.051C2.88047 -77.511 0.151237 -68.9826 -0.611593 -60.2729C-0.968884 -56.4618 -0.812406 -52.6298 -0.846309 -48.807C-0.846309 -14.344 -0.84631 20.1203 -0.847614 54.5846C-0.884125 55.8833 -0.0587046 57.1454 1.14226 57.6382C1.80077 57.9394 2.54144 57.899 3.24819 57.8951C40.6294 57.8951 78.0107 57.8964 115.391 57.8951C117.103 57.942 118.657 56.4296 118.651 54.7163C118.656 39.245 118.654 23.7737 118.651 8.30235C116.404 11.0652 113.433 13.1474 110.319 14.8293C106.68 16.8373 102.72 18.2715 99.293 20.6588C97.6747 21.8531 96.0148 23.2495 95.3849 25.2353C95.351 25.2249 95.2845 25.204 95.2506 25.1935C95.6275 23.3017 96.7085 21.638 98.0046 20.2442C99.1847 18.8439 100.787 17.9051 102.353 17.0029C106.576 14.6129 110.909 12.3977 114.924 9.66095C116.297 8.72219 117.631 7.6713 118.628 6.32835C118.687 3.426 118.636 0.517136 118.653 -2.38781C118.653 -16.6883 118.653 -30.9888 118.653 -45.2906C118.643 -48.9869 118.674 -52.6846 118.636 -56.381C118.519 -61.3916 117.77 -66.3892 116.404 -71.2121C114.164 -79.1421 110.239 -86.5857 104.987 -92.9353C98.9083 -100.306 91.0492 -106.201 82.2564 -109.94C72.8247 -113.977 62.3394 -115.473 52.1514 -114.313Z" fill="#0A0A0A"/>
<path id="Vector_11" d="M39.8519 1.46367C40.0632 1.06729 40.1766 0.595288 40.5457 0.307129C40.7569 0.691775 40.5613 1.12205 40.4883 1.51844C40.0867 3.24869 39.1804 4.83422 37.9976 6.14984C35.4078 9.01186 32.0903 11.0942 28.6594 12.8062C25.2572 14.5508 21.6255 15.9446 18.5702 18.2916C17.3561 19.2839 16.1068 20.3778 15.5239 21.8773C15.4392 22.0768 15.3414 22.2685 15.2331 22.4601C15.2227 22.4314 15.1992 22.3741 15.1875 22.3441C15.567 20.4222 16.6819 18.7284 18.0068 17.315C18.9953 16.1467 20.3045 15.3201 21.6033 14.539C26.2261 11.8778 31.0249 9.49691 35.4 6.42495C37.2387 5.14715 38.857 3.4873 39.8519 1.46367Z" fill="#0A0A0A"/>
<path id="Vector_12" d="M23.4961 4.5396C23.8938 3.65687 24.3137 2.78327 24.8445 1.97095C25.4078 2.46251 26.2659 2.87976 26.258 3.74293C26.1667 4.56568 25.6999 5.35323 25.0153 5.82524C24.4637 5.45624 23.929 5.04421 23.4961 4.5396Z" fill="#0A0A0A"/>
<path id="Vector_13" d="M22.969 7.02587C23.8101 6.69339 24.7164 6.42741 25.6292 6.53823C26.0217 6.58387 26.2277 7.02978 26.0738 7.38051C25.8235 8.09241 25.4675 8.76127 25.1493 9.44448C24.9902 9.74827 24.8689 10.1473 24.496 10.249C23.3511 10.6245 22.1488 10.8344 21.0457 11.335C17.0842 13.1474 13.3274 15.4708 10.1313 18.4462C7.67073 20.7709 5.38876 23.4073 4.07826 26.5639C2.70647 29.8078 2.67648 33.5316 3.71967 36.8707C4.48119 39.2724 5.94035 41.425 7.80895 43.1056C11.1341 46.0953 15.4477 47.7786 19.816 48.51C25.6187 49.4618 31.6079 49.3093 37.348 48.025C38.4525 47.8086 39.5166 47.4278 40.625 47.2375C40.625 47.2896 40.6236 47.3939 40.6236 47.4461C35.7363 48.9051 30.6651 49.8478 25.5522 49.8386C22.0458 49.836 18.5342 49.3693 15.1699 48.3705C11.6179 47.3105 8.23535 45.4812 5.65869 42.7849C3.78747 40.8265 2.48219 38.3388 1.93712 35.6855C1.18081 31.9604 1.6007 28.0202 3.02334 24.5025C4.47206 20.9091 6.92877 17.8151 9.71277 15.1592C13.4891 11.545 18.0687 8.81864 22.969 7.02587Z" fill="#0A0A0A"/>
<path id="Vector_14" d="M38.6153 6.95264C39.206 7.45463 40.1162 7.91751 40.0249 8.82893C39.8802 9.60865 39.4577 10.3975 38.7522 10.803C38.2462 10.4145 37.7116 10.0455 37.2969 9.5565C37.6098 8.63335 38.1093 7.78191 38.6153 6.95264Z" fill="#0A0A0A"/>
<path id="Vector_15" d="M37.9369 11.8187C38.5993 11.5606 39.3008 11.3102 40.0245 11.3924C40.2958 11.4093 40.477 11.7157 40.3688 11.9661C40.1497 12.6036 39.8341 13.206 39.5303 13.8071C39.4286 14.0274 39.1665 14.0704 38.9592 14.1435C38.1051 14.3834 37.2301 14.5789 36.4321 14.9844C32.3336 16.9024 28.526 19.6587 25.8972 23.3863C24.6167 25.2208 23.7926 27.4204 23.8252 29.6774C23.8069 32.1194 24.5971 34.5889 26.1893 36.4599C27.4972 38.0258 29.2289 39.1941 31.0753 40.0377C33.592 41.1798 36.3564 41.6531 39.1 41.8304C42.8307 42.0756 46.6031 41.6922 50.2008 40.67C50.4094 40.6413 50.6833 40.4796 50.8567 40.6752C45.8168 42.2098 40.4262 42.9387 35.2024 41.9947C32.6179 41.5305 30.0621 40.6778 27.8858 39.1797C26.1071 37.9776 24.5828 36.3387 23.73 34.3516C22.5499 31.6201 22.5681 28.4804 23.3675 25.6472C24.3441 22.2494 26.6131 19.3862 29.2028 17.051C31.7416 14.7641 34.7421 13.0156 37.9369 11.8187Z" fill="#0A0A0A"/>
<path id="Vector_16" d="M58.3621 14.8384C58.4769 14.8944 58.7077 14.8814 58.679 15.077C58.7533 16.2453 58.5955 17.4122 58.5656 18.5818C58.4521 21.2209 58.2356 23.9238 57.1702 26.3752C56.6408 27.6086 55.818 28.7404 54.703 29.5058C54.0797 29.9387 53.2673 30.0417 52.5357 29.8826C52.1758 29.7952 51.9867 29.3793 52.091 29.039C52.228 28.5605 52.644 28.2423 53.0117 27.9398C54.0927 27.1223 55.0864 26.1639 55.8388 25.0308C56.573 23.9382 56.9851 22.6513 57.0829 21.3422C57.2028 20.4099 57.0646 19.4672 57.1963 18.5375C57.3554 17.2388 58.0113 16.0836 58.3621 14.8384Z" fill="#0A0A0A"/>
<path id="Vector_17" d="M37.3217 17.4524C37.5877 17.4029 37.8133 17.5985 38.0037 17.7562C38.3154 18.0483 38.6296 18.4069 38.6622 18.8541C38.6375 19.4148 38.2945 19.892 37.9646 20.3223C37.8133 20.4879 37.6633 20.7108 37.4208 20.7369C36.9774 20.4722 36.6605 20.0485 36.2511 19.7394C35.9303 20.2584 35.7099 20.982 35.0892 21.2063C34.5963 20.9468 34.2051 20.5244 33.7812 20.1671C34.1216 19.3691 34.4672 18.5242 35.0527 17.8775C35.6395 17.9831 35.9707 18.5607 36.3541 18.9649C36.6788 18.4616 36.9305 17.9075 37.3217 17.4524Z" fill="#0A0A0A"/>
<path id="Vector_18" d="M67.728 17.5009C67.8793 17.4201 68.1049 17.3875 68.2105 17.5609C68.3187 17.9182 68.0918 18.2598 67.9966 18.5949C67.8702 18.8661 67.8389 19.2416 67.5233 19.3654C66.4684 19.9078 65.5921 20.7501 64.8945 21.6993C62.5551 24.7946 60.191 27.9264 57.1958 30.4272C55.2567 32.0661 53.0256 33.3934 50.5846 34.1248C48.3143 34.8159 45.8824 34.9202 43.5496 34.5134C42.6955 34.3452 41.8362 34.1327 41.059 33.7311C40.8321 33.5916 40.497 33.3712 40.6078 33.0596C40.6195 32.8393 40.8999 32.8666 41.0512 32.8249C42.7907 32.6763 44.5419 32.808 46.2827 32.645C50.3225 32.3621 54.3361 30.9552 57.4657 28.3476C59.3356 26.7882 60.9538 24.9524 62.4756 23.0579C63.8487 21.3616 65.1696 19.5988 66.8244 18.1607C67.1099 17.9208 67.3968 17.6756 67.728 17.5009Z" fill="#0A0A0A"/>
<path id="Vector_19" d="M104.253 19.4698C104.549 18.9366 104.878 18.3837 105.392 18.033C104.849 19.5077 104.864 21.0984 104.689 22.6409C104.521 24.1756 104.634 25.7676 104.089 27.2397C103.68 28.335 103.242 29.4224 102.764 30.4903C101.904 32.3366 100.405 33.8269 98.6683 34.8648C97.7842 35.4828 96.7344 35.7762 95.7186 36.0957C93.7821 36.6694 91.6748 36.6224 89.7552 36.0044C88.8229 35.6993 87.9374 35.1869 87.2945 34.4358C86.8394 33.8947 86.4665 33.2284 86.5069 32.4996C86.9477 32.54 87.2932 32.8412 87.7014 32.9859C88.6325 33.3419 89.6209 33.5361 90.6159 33.6026C93.2983 33.763 96.0342 33.4136 98.5262 32.3783C100.018 31.7694 101.409 30.8932 102.54 29.7405C102.946 29.3481 103.158 28.8017 103.256 28.2554C103.508 26.7455 103.328 25.2043 103.45 23.6827C103.575 22.2615 103.568 20.7633 104.253 19.4698Z" fill="#0A0A0A"/>
<path id="Vector_20" d="M53.442 19.6276C54.45 19.0369 55.4801 18.4359 56.6159 18.1282C57.0136 18.6784 56.7045 19.4046 56.5076 19.9757C56.2729 20.4099 56.1556 21.007 55.647 21.2026C54.6064 21.6472 53.5059 21.951 52.5057 22.4882C51.6164 22.9602 50.7688 23.5065 49.9356 24.0711C48.1035 25.5261 46.0641 26.7478 43.8525 27.5301C42.3386 28.0751 40.7099 28.2316 39.1086 28.1508C37.6156 28.1038 36.279 27.2589 35.2345 26.2459C35.0819 26.0529 34.8302 26.1546 34.6959 26.3097C33.9162 27.1898 33.4389 28.3333 32.5013 29.0752C31.9732 29.5289 31.2208 29.3985 30.6145 29.2004C29.836 28.9474 29.4526 28.1064 29.3718 27.3476C29.1827 25.3801 29.6847 23.4022 30.5258 21.6342C30.8453 20.9758 31.1843 20.316 31.6446 19.7449C31.7268 19.608 31.8715 19.5572 32.0254 19.5793C31.8089 20.2795 31.3773 20.8858 31.1139 21.5677C30.6588 22.6838 30.3511 23.9563 30.7318 25.1389C31.1348 26.4401 33.0907 26.6748 33.9514 25.7126C34.5721 25.1141 35.0389 24.2953 35.8708 23.9602C36.4785 23.7021 37.0744 24.1115 37.6677 24.2197C39.4568 24.7425 41.3658 24.9733 43.2109 24.6304C44.6362 24.3527 46.064 24.0046 47.3719 23.3579C49.4987 22.2887 51.4391 20.9014 53.442 19.6276Z" fill="#0A0A0A"/>
<path id="Vector_21" d="M10.3025 20.6914C10.5216 20.265 10.7159 19.8191 11.0288 19.4514C11.0523 19.9678 10.8254 20.4424 10.6598 20.9196C10.2816 21.8897 9.91389 22.8924 9.8839 23.9459C9.86956 24.5783 10.1199 25.2133 10.6024 25.6305C10.9376 25.0125 11.1566 24.3397 11.4944 23.7255C11.6665 23.4908 11.9651 23.646 12.179 23.719C12.7136 23.9029 13.2744 24.2562 13.3852 24.8573C13.6447 26.3164 12.9392 27.941 11.6496 28.6947C10.9715 29.1158 10.0065 29.0167 9.47704 28.4039C8.92414 27.7519 8.81329 26.8549 8.82503 26.0321C8.88371 24.165 9.47835 22.3539 10.3025 20.6914Z" fill="#0A0A0A"/>
<path id="Vector_22" d="M86.3875 19.5819C86.6027 19.2416 86.8817 19.6406 86.7213 19.8935C86.2467 21.2325 85.8085 22.6342 85.922 24.0749C85.9807 24.9015 86.2949 25.7634 86.973 26.2797C87.316 26.5574 87.7397 26.7034 88.1688 26.7921C88.7295 25.6095 89.1246 24.3226 89.9461 23.2822C90.4638 22.6472 91.1601 22.0135 92.0403 22.0605C92.5006 22.0944 93.1148 22.1713 93.3025 22.6707C93.4499 23.0136 93.1526 23.3604 92.8396 23.4647C92.3037 23.4086 91.8082 23.0996 91.2553 23.17C90.2877 23.1961 89.4897 24.1948 89.6083 25.1336C89.7974 26.148 91.1105 26.5861 91.9477 26.0698C92.6284 25.6447 92.854 24.8024 93.4355 24.2809C93.2321 25.3487 92.6062 26.2705 91.9999 27.1493C91.2057 28.2837 90.1026 29.242 88.7712 29.6749C87.9888 29.8744 87.0851 29.9174 86.3862 29.4506C85.6364 28.9877 85.1722 28.1846 84.9597 27.3475C84.6167 28.1181 84.2555 28.8795 83.8213 29.6032C84.6962 29.6462 85.6795 29.7948 86.2858 30.495C86.6535 30.9526 86.4032 31.568 86.2063 32.0452C85.9155 32.8315 85.313 33.5316 84.4915 33.7794C83.507 34.074 82.4664 34.1444 81.5028 34.516C80.3253 34.8993 79.3577 35.7651 78.6719 36.7782C78.0525 37.6791 77.8738 38.7861 77.7134 39.8448C77.2779 43.18 77.6104 46.5465 77.6626 49.8948C77.643 50.8257 77.8373 51.7762 77.643 52.6928C77.2714 51.3368 77.184 49.9209 77.0184 48.5297C76.7054 44.6325 76.5555 40.5984 77.8191 36.8421C78.2311 35.6999 78.8714 34.6464 79.6564 33.722C80.2979 32.9997 81.0399 32.3243 81.9644 31.9918C82.2356 31.2408 82.4456 30.4598 82.8876 29.7844C83.4536 28.7153 84.2907 27.7661 84.5776 26.5665C84.8945 25.1401 85.0196 23.6746 85.4382 22.2717C85.7134 21.3629 85.9559 20.4294 86.3875 19.5819Z" fill="#0A0A0A"/>
<path id="Vector_23" d="M73.6993 20.0331C73.7567 20.0135 73.8701 19.977 73.9275 19.9587C74.5287 20.1687 75.0333 20.728 75.2485 21.3226C75.1598 22.0163 74.7634 22.6369 74.3435 23.1806C74.101 23.5614 73.741 23.0763 73.4776 22.959C73.1894 22.6891 72.4996 22.5352 72.6717 22.0306C72.926 21.3278 73.2494 20.6315 73.6993 20.0331Z" fill="#0A0A0A"/>
<path id="Vector_24" d="M17.4534 22.9118C17.6412 22.1698 17.8173 21.4058 18.2228 20.7473C19.1369 21.0485 20.158 21.4527 20.5831 22.3915C21.1399 23.5924 20.7631 24.9615 20.2662 26.1141C19.8868 26.9303 19.4825 27.8209 18.6857 28.3112C18.2463 28.5993 17.6999 28.4441 17.2109 28.4754C16.2889 28.5315 15.3253 29.0022 14.9171 29.868C14.329 31.1067 13.7383 32.4653 12.5333 33.2307C11.7522 33.7614 10.7612 33.4954 9.89267 33.7262C9.10373 33.8592 8.42042 34.3077 7.65234 34.5059C7.85186 34.253 8.11136 34.0587 8.38782 33.8996C9.79226 33.056 11.1889 32.1954 12.5151 31.2345C13.3431 30.6516 14.1125 29.9449 14.5663 29.0244C14.9927 28.1782 15.44 27.2733 16.2798 26.7621C17.0857 26.2197 18.0663 26.0424 19.0235 26.0737C19.8555 26.0932 20.1267 25.0097 19.8828 24.3734C19.4343 23.4633 18.3715 23.1269 17.4534 22.9118Z" fill="#0A0A0A"/>
<path id="Vector_25" d="M71.827 23.411C72.0408 23.0029 72.5116 23.3263 72.7385 23.5532C73.1049 23.9222 73.663 24.3955 73.3983 24.977C73.1662 25.5872 72.848 26.1896 72.3616 26.6381C71.8713 26.2613 71.2128 26.0279 70.8594 25.5194C71.0133 24.7566 71.4266 24.0682 71.827 23.411Z" fill="#0A0A0A"/>
<path id="Vector_26" d="M70.3098 23.9938L70.3945 23.9638C70.4102 24.0173 70.4441 24.1229 70.461 24.1763C70.165 24.8883 69.7112 25.5285 69.4713 26.2678C69.0566 27.4035 68.8219 28.7504 69.4191 29.8652C69.9785 30.9266 71.4247 31.3008 72.4836 30.804C73.532 30.3711 73.9337 29.1233 74.9677 28.6852C75.4868 28.47 76.0149 28.7556 76.5391 28.7595C77.0698 28.6461 77.4258 27.6825 76.783 27.466C76.4491 27.4569 76.2092 27.7816 75.878 27.8024C75.492 27.8376 75.0877 27.7555 74.7695 27.5312C74.45 27.3057 74.3236 26.8441 74.5166 26.4973C74.8517 25.7945 75.192 25.0917 75.5689 24.4097C76.0149 23.6783 77.1324 23.8112 77.6488 24.3954C78.2265 25.0082 78.2461 25.9131 78.1626 26.702C78.0022 28.0254 77.4637 29.3501 76.4635 30.2603C76.2313 30.4676 75.9588 30.701 75.6237 30.6658C75.2286 30.6032 74.8152 30.3854 74.4214 30.5771C73.6572 30.877 73.339 31.6985 72.9374 32.3491C72.4614 33.2136 71.546 33.872 70.538 33.8812C69.659 33.859 68.8453 33.3048 68.4098 32.5564C67.9599 31.8145 67.8738 30.92 67.8882 30.0725C68.0342 28.0645 68.8362 26.1635 69.8651 24.4554C69.985 24.2794 70.0842 24.0499 70.3098 23.9938Z" fill="#0A0A0A"/>
<path id="Vector_27" d="M65.0632 26.436C65.1662 26.0279 65.5157 25.6315 65.9695 25.6667C66.8458 25.7411 67.5552 26.5925 67.5369 27.4596C67.5708 29.8118 66.4389 32.2162 64.4177 33.4848C63.9561 33.743 63.4892 34.0129 62.978 34.1576C62.4486 34.155 61.9309 33.9503 61.3989 34.0286C60.6986 34.1224 60.074 34.5188 59.3633 34.5644C59.748 34.1146 60.3361 33.9516 60.8394 33.6804C62.7824 32.7403 64.8154 31.752 66.1807 30.0191C66.3659 29.7753 66.6098 29.4219 66.4037 29.1207C66.1169 28.7882 65.663 29.0647 65.307 29.0751C64.9119 29.1716 64.5116 28.7856 64.6224 28.3879C64.7567 27.7347 64.8898 27.0801 65.0632 26.436Z" fill="#0A0A0A"/>
<path id="Vector_28" d="M108.362 26.9471C108.661 26.5116 108.858 25.8766 109.411 25.7175C109.165 26.5651 108.61 27.2848 108.353 28.131C107.984 29.1885 107.794 30.4089 108.275 31.4625C108.533 32.0505 109.292 32.3921 109.889 32.1196C110.336 31.911 110.561 31.4481 110.865 31.0869C110.912 31.1 111.005 31.1234 111.052 31.1365C110.964 32.1457 110.606 33.1405 110.059 33.9946C109.682 34.5253 109.189 35.1264 108.478 35.1407C107.779 35.1876 107.229 34.6048 107.005 33.9946C106.737 33.2383 106.766 32.4169 106.84 31.6306C106.982 29.9786 107.577 28.3957 108.362 26.9471Z" fill="#0A0A0A"/>
<path id="Vector_29" d="M63.4395 26.7674C63.5477 26.517 63.6234 26.2197 63.8894 26.0894C63.8216 27.5993 63.3886 29.0909 62.6492 30.4078C62.0794 31.4222 61.2618 32.4236 60.0986 32.7535C59.367 32.9947 58.6015 32.6322 57.8674 32.8357C57.2284 33.0026 56.6598 33.3768 56 33.4785C56.283 33.0651 56.7629 32.8761 57.1775 32.631C58.8089 31.7078 60.4924 30.7899 61.7886 29.4091C62.5045 28.6463 63.0522 27.7362 63.4395 26.7674Z" fill="#0A0A0A"/>
<path id="Vector_30" d="M79.721 26.2434C79.9909 26.0295 80.3704 26.0647 80.6638 26.2082C81.3732 26.5354 81.8205 27.3478 81.7057 28.1262C81.5401 29.8656 80.8033 31.5893 79.5006 32.7824C78.7117 33.5425 77.7089 34.0641 76.65 34.3262C76.1662 34.291 75.7137 34.0823 75.2273 34.0706C74.4644 34.055 73.7655 34.4696 73 34.4383C73.4538 34.025 74.068 33.8933 74.6157 33.656C76.6069 32.8788 78.6869 32.0509 80.167 30.4445C80.3939 30.202 80.6873 29.7821 80.3782 29.4901C80.0913 29.2697 79.7171 29.4496 79.395 29.4418C79.0637 29.4992 78.7025 29.2475 78.7077 28.8981C78.7651 28.4248 78.9646 27.9854 79.0846 27.5277C79.2346 27.0779 79.318 26.5446 79.721 26.2434Z" fill="#0A0A0A"/>
<path id="Vector_31" d="M105.561 30.2888C105.701 30.0306 105.798 29.7229 106.066 29.5625C105.948 30.8886 105.518 32.182 104.873 33.3438C104.304 34.3504 103.556 35.3322 102.482 35.8329C101.832 36.1576 101.091 36.095 100.4 35.962C99.47 35.7977 98.668 36.4301 97.7656 36.5044C98.0786 36.1054 98.5715 35.9476 99.0045 35.7234C100.731 34.8732 102.518 34.0322 103.904 32.6631C104.594 31.9799 105.139 31.1611 105.561 30.2888Z" fill="#0A0A0A"/>
<path id="Vector_32" d="M109.464 40.0207C109.768 39.4809 110.052 38.928 110.423 38.4299C111.047 38.6294 111.594 39.1875 111.673 39.8512C111.643 40.507 111.252 41.0807 110.858 41.5814C110.747 41.6805 110.607 41.8944 110.437 41.7874C110.029 41.5175 109.747 41.0977 109.369 40.7926C109.082 41.3206 108.867 41.9465 108.344 42.2946C107.848 42.1369 107.479 41.6988 107.095 41.3572C106.877 41.1916 107.095 40.9438 107.153 40.7574C107.473 40.1145 107.752 39.4378 108.204 38.8746C108.723 39.1288 109.139 39.5461 109.464 40.0207Z" fill="#0A0A0A"/>
<path id="Vector_33" d="M108.215 43.759C108.538 43.0341 108.92 42.3313 109.392 41.6924C109.949 41.8801 110.387 42.3991 110.483 42.978C110.49 43.6091 110.129 44.1763 109.764 44.6652C109.658 44.7735 109.489 45.0434 109.33 44.8582C108.965 44.484 108.58 44.1306 108.215 43.759Z" fill="#0A0A0A"/>
</g>
</g>
</g>
</g>
</g>
</svg>
