<svg width="248" height="74" viewBox="0 0 248 74" fill="none" xmlns="http://www.w3.org/2000/svg">
<path d="M205.735 0.0764571C207.547 -0.106341 209.407 0.0496004 211.14 0.620519C211.138 0.654306 211.134 0.721015 211.132 0.754802C208.769 1.96335 206.735 3.82165 205.366 6.10012C205.232 6.35916 204.939 6.50644 204.651 6.46572C203.239 6.36003 201.795 6.71436 200.605 7.48454C198.555 8.77625 197.305 11.2843 197.638 13.7005C197.913 15.2418 198.681 16.6799 199.733 17.8321C202.807 20.9085 205.884 23.9831 208.959 27.0578C209.29 27.3757 209.62 27.7171 209.792 28.152C210.217 29.1171 209.953 30.3273 209.162 31.0256C208.234 31.9067 206.635 31.8971 205.722 30.9979C202.598 27.8825 199.481 24.7602 196.361 21.6414C194.416 19.6965 193.178 17.0507 192.982 14.3035C192.94 11.7296 193.64 9.15051 194.957 6.94047C196.252 4.75643 198.146 2.93365 200.378 1.7225C202.03 0.82151 203.864 0.264453 205.735 0.0764571Z" fill="#0021AE"/>
<path d="M216.048 0.0797887C219.039 -0.251153 222.135 0.454048 224.674 2.07151C227.119 3.61099 229.045 5.95878 230.066 8.66263C230.28 9.18936 230.399 9.74815 230.518 10.3026C230.779 11.5605 230.908 12.8453 230.912 14.1301C230.932 14.7244 230.444 15.2693 229.862 15.3482C229.331 15.4409 228.767 15.1455 228.539 14.6594C228.409 14.4186 228.416 14.1388 228.398 13.8737C228.3 12.0526 227.53 10.2827 226.282 8.95545C224.494 7.01311 221.691 6.0792 219.097 6.57648C218.887 6.6068 218.827 6.8693 218.95 7.02178C219.949 8.85149 220.508 10.9177 220.57 13.0021C220.665 15.7536 219.887 18.5294 218.362 20.8226C217.096 22.7398 215.337 24.3295 213.293 25.3795C212.875 25.5935 212.386 25.6637 211.925 25.5727C211.512 25.5008 211.154 25.2721 210.795 25.0711C208.447 23.7188 206.527 21.6404 205.367 19.1921C204.323 17.0081 203.901 14.5373 204.135 12.1297C204.387 9.45273 205.477 6.8667 207.207 4.81001C209.4 2.17373 212.635 0.434122 216.048 0.0797887ZM211.795 9.77587C211.478 9.8807 211.213 10.0921 210.959 10.3026C209.928 11.1664 209.241 12.4329 209.101 13.7732C208.946 15.1255 209.34 16.5299 210.179 17.6015C210.639 18.2114 211.266 18.6585 211.838 19.1557C212.069 19.3645 212.435 19.4079 212.7 19.238C213.512 18.5822 214.372 17.9247 214.882 16.9899C215.527 15.874 215.736 14.5174 215.466 13.2568C215.189 11.9235 214.368 10.715 213.235 9.9604C212.815 9.68751 212.27 9.6182 211.795 9.77587Z" fill="#0021AE"/>
<path d="M225.281 19.0823C227.261 16.9996 230.017 15.6533 232.891 15.461C235.752 15.4212 238.614 16.2962 240.974 17.9136C243.373 19.5458 245.251 21.9317 246.263 24.652C247.302 27.4442 247.476 30.5804 246.609 33.4419C246.592 33.5511 246.531 33.6204 246.427 33.6507C245.234 31.2735 243.368 29.2367 241.09 27.8601C240.818 27.7241 240.653 27.4243 240.701 27.1202C240.831 25.4283 240.28 23.6965 239.179 22.4021C237.616 20.5205 234.892 19.5467 232.53 20.3446C231.038 20.8202 229.707 21.7273 228.66 22.8847C225.696 25.8458 222.736 28.8113 219.77 31.7708C218.833 32.7107 217.159 32.696 216.237 31.7422C215.273 30.8394 215.227 29.1743 216.144 28.2231C219.185 25.171 222.237 22.1301 225.281 19.0823Z" fill="#0021AE"/>
<path d="M189.694 16.3584C190.373 16.29 191.055 16.2493 191.737 16.2571C192.404 16.2822 192.948 16.9363 192.879 17.5947C192.847 18.2185 192.285 18.753 191.659 18.753C189.699 18.7989 187.773 19.6115 186.371 20.9821C184.495 22.7745 183.601 25.533 184.101 28.0826C184.186 28.4118 184.555 28.2342 184.747 28.1077C187.219 26.803 190.108 26.3257 192.873 26.7242C197.155 27.3081 201.052 30.1228 202.959 33.9988C203.205 34.5585 203.187 35.2256 202.916 35.7722C201.642 38.276 199.557 40.3543 197.055 41.6278C194.244 43.0755 190.913 43.4619 187.841 42.7281C185.312 42.1321 182.972 40.7745 181.19 38.885C179.929 37.5534 178.943 35.962 178.321 34.2371C177.414 31.7507 177.276 28.994 177.912 26.4253C178.473 24.1382 179.658 22.0104 181.298 20.3202C182.774 18.7946 184.614 17.6189 186.628 16.9406C187.629 16.6521 188.659 16.4693 189.694 16.3584ZM190.831 31.6875C189.471 31.9552 188.233 32.7877 187.47 33.9451C187.202 34.3644 187.139 34.9042 187.297 35.3755C187.396 35.6795 187.599 35.9334 187.798 36.1777C188.63 37.1818 189.84 37.8671 191.133 38.0429C192.533 38.2465 194.005 37.8584 195.118 36.9877C195.724 36.5329 196.167 35.9117 196.659 35.346C196.873 35.1199 196.932 34.7569 196.77 34.4849C196.146 33.706 195.521 32.8821 194.647 32.3641C193.521 31.6667 192.128 31.4241 190.831 31.6875Z" fill="#0021AE"/>
<path d="M231.975 26.6653C235.022 26.2599 238.201 26.9339 240.807 28.5652C243.276 30.0926 245.23 32.4404 246.267 35.1537C247.331 37.894 247.449 40.9868 246.613 43.8033C245.508 47.6005 242.625 50.8215 238.98 52.3506C238.054 52.7699 237.053 52.9735 236.057 53.1424C235.04 53.3062 234.009 53.3893 232.979 53.3867C232.529 53.3807 232.112 53.0853 231.922 52.6841C231.651 52.1444 231.844 51.4305 232.352 51.1031C232.763 50.8068 233.293 50.9142 233.764 50.8345C236.291 50.5477 238.613 48.9433 239.792 46.6925C240.621 45.1426 240.909 43.3086 240.588 41.5803C240.565 41.3801 240.313 41.3004 240.161 41.4174C237.157 43.0721 233.51 43.4914 230.203 42.5869C226.844 41.6877 223.888 39.4135 222.136 36.4125C221.932 36.0504 221.699 35.6935 221.605 35.2837C221.497 34.8124 221.551 34.3039 221.767 33.8707C222.965 31.5168 224.88 29.5364 227.187 28.2507C228.663 27.4234 230.298 26.8828 231.975 26.6653ZM231.988 31.6104C231.071 31.7516 230.195 32.1415 229.474 32.7263C228.911 33.1733 228.49 33.7633 228.02 34.3004C227.781 34.5525 227.747 34.9735 227.971 35.2464C228.528 35.8971 229.041 36.6075 229.759 37.0952C230.809 37.8411 232.14 38.1764 233.419 38.0231C234.719 37.8792 235.952 37.2234 236.806 36.2332C237.108 35.8858 237.407 35.4942 237.456 35.0203C237.539 34.4997 237.325 33.9824 236.988 33.5935C235.84 32.0938 233.854 31.2985 231.988 31.6104Z" fill="#0021AE"/>
<path d="M211.88 32.2991C213.137 32.0401 214.487 32.8813 214.81 34.1219C215.181 35.3305 214.5 36.7322 213.323 37.1905C212.181 37.6904 210.731 37.1992 210.126 36.1102C209.482 35.0498 209.767 33.5519 210.759 32.806C211.084 32.5478 211.473 32.3737 211.88 32.2991Z" fill="#0021AE"/>
<path d="M178.135 36.0441L178.228 35.9956C178.374 36.1637 178.456 36.3751 178.567 36.5674C179.723 38.6414 181.41 40.4191 183.425 41.6762C183.611 41.7958 183.835 41.9014 183.926 42.1172C184.018 42.3034 183.978 42.5166 183.976 42.7167C183.888 44.38 184.476 46.0642 185.572 47.3178C187.131 49.1345 189.785 50.071 192.102 49.3147C193.471 48.8764 194.738 48.1027 195.728 47.0579C198.79 43.9954 201.851 40.932 204.917 37.8721C205.848 36.9356 207.514 36.946 208.437 37.8894C209.41 38.7904 209.461 40.4651 208.54 41.4206C205.575 44.4 202.595 47.3646 199.624 50.3387C198.883 51.1115 198.077 51.8297 197.167 52.398C195.566 53.416 193.714 54.0449 191.82 54.181C188.922 54.2277 186.02 53.3328 183.64 51.6798C181.243 50.0277 179.375 47.6202 178.382 44.8834C177.367 42.0687 177.201 38.903 178.135 36.0441Z" fill="#0021AE"/>
<path d="M216.523 38.0594C217.38 37.8021 218.365 38.0439 219.001 38.6763C221.459 41.128 223.91 43.585 226.364 46.0385C227.155 46.8389 227.967 47.6169 228.738 48.4356C229.901 49.7265 230.775 51.2772 231.267 52.9432C231.562 53.9793 231.77 55.0597 231.696 56.1417C231.578 58.8378 230.661 61.4914 229.09 63.6849C227.389 66.0812 224.924 67.9265 222.141 68.8726C219.661 69.7155 216.939 69.8879 214.389 69.2659C214.084 69.181 213.768 69.1264 213.488 68.9748C213.648 68.8042 213.867 68.7184 214.067 68.6075C216.218 67.4154 218.047 65.6515 219.319 63.5481C219.447 63.3064 219.71 63.1435 219.987 63.1764C221.292 63.2743 222.627 62.9988 223.767 62.349C225.963 61.1362 227.352 58.5727 227.07 56.0672C226.876 54.7746 226.299 53.5626 225.536 52.5109C225.118 51.9218 224.579 51.4392 224.074 50.9272C221.2 48.0536 218.327 45.1799 215.452 42.3071C214.853 41.7267 214.577 40.8404 214.739 40.0226C214.903 39.1017 215.622 38.3107 216.523 38.0594Z" fill="#0021AE"/>
<path d="M211.886 44.0839C212.369 43.973 212.89 44.0371 213.331 44.2641C215.999 45.6337 218.181 47.9243 219.417 50.6568C220.754 53.5755 220.978 56.9793 220.056 60.0522C219.253 62.7613 217.563 65.194 215.313 66.9015C213.11 68.5866 210.372 69.5577 207.6 69.634C204.975 69.7223 202.329 69.018 200.102 67.6258C197.613 66.0863 195.653 63.7134 194.62 60.9766C194.42 60.4854 194.305 59.9665 194.193 59.451C193.914 58.1394 193.772 56.7974 193.777 55.4572C193.783 54.8689 194.284 54.3517 194.861 54.2885C195.372 54.2157 195.905 54.4964 196.136 54.9564C196.263 55.1851 196.275 55.4528 196.286 55.7093C196.369 57.5009 197.102 59.25 198.305 60.5781C200.091 62.5924 202.954 63.5783 205.599 63.0628C205.811 63.0273 205.855 62.7604 205.733 62.6097C204.768 60.8406 204.215 58.8498 204.125 56.8373C203.988 54.0416 204.752 51.2095 206.291 48.8713C207.454 47.0935 209.039 45.593 210.884 44.5396C211.204 44.3611 211.524 44.1644 211.886 44.0839ZM212.041 50.3735C211.649 50.6351 211.315 50.9756 210.949 51.271C209.656 52.3652 208.955 54.1074 209.131 55.7924C209.269 57.3441 210.143 58.8056 211.436 59.6711C211.854 59.95 212.4 60.0254 212.877 59.8703C213.262 59.7464 213.572 59.4735 213.872 59.2145C214.821 58.3594 215.448 57.1543 215.585 55.8825C215.748 54.499 215.334 53.06 214.458 51.9771C214.013 51.4062 213.419 50.9834 212.879 50.5104C212.659 50.3033 212.314 50.2297 212.041 50.3735Z" fill="#0021AE"/>
<mask id="mask0_1433_1967" style="mask-type:alpha" maskUnits="userSpaceOnUse" x="0" y="0" width="164" height="74">
<rect x="0.164062" y="0.849854" width="163.421" height="72.9685" fill="white"/>
</mask>
<g mask="url(#mask0_1433_1967)">
<path d="M75.3272 -162.032C89.1077 -162.916 103.101 -160.47 115.717 -154.842C128.239 -149.317 139.36 -140.707 147.939 -130.053C158.439 -117.057 165.012 -100.932 166.54 -84.2922C167.083 -78.9146 166.881 -73.5062 166.92 -68.1122C166.921 -20.1028 166.918 27.9086 166.921 75.918C166.956 77.0259 166.841 78.1537 166.427 79.1907C165.603 81.3591 163.701 83.0772 161.46 83.6747C160.35 83.998 159.186 83.9308 158.045 83.9344C106.948 83.9344 55.8506 83.9344 4.7535 83.9344C3.36582 83.8927 1.95997 84.0489 0.590457 83.7728C-2.83697 83.1027 -5.45067 79.7573 -5.27267 76.2685C-5.26722 28.5079 -5.27267 -19.2528 -5.27086 -67.0135C-5.21818 -72.6453 -5.45249 -78.2935 -4.92394 -83.909C-3.82869 -96.404 0.0945983 -108.63 6.41544 -119.462C13.2776 -131.236 22.9877 -141.331 34.4633 -148.678C46.6618 -156.493 60.8637 -161.158 75.3272 -162.032ZM71.4203 -158.806C59.3271 -157.455 47.5536 -153.372 37.2078 -146.967C25.6214 -139.82 15.8277 -129.799 8.95468 -118.047C2.79004 -107.544 -1.01155 -95.6648 -2.07411 -83.533C-2.57178 -78.2245 -2.35382 -72.8868 -2.40105 -67.562C-2.40105 -19.5579 -2.40105 28.4479 -2.40286 76.4538C-2.45372 78.2626 -1.30398 80.0207 0.368865 80.7072C1.28611 81.1267 2.31779 81.0704 3.30225 81.0649C55.3711 81.0649 107.44 81.0668 159.507 81.0649C161.892 81.1303 164.057 79.0236 164.048 76.6372C164.055 55.087 164.053 33.5367 164.048 11.9865C160.918 15.8349 156.781 18.7352 152.443 21.0781C147.374 23.8749 141.858 25.8727 137.084 29.198C134.83 30.8616 132.518 32.8067 131.641 35.5726C131.594 35.5581 131.501 35.529 131.454 35.5145C131.979 32.8793 133.484 30.5619 135.29 28.6205C136.934 26.6699 139.166 25.3623 141.347 24.1056C147.229 20.7766 153.264 17.691 158.857 13.8789C160.769 12.5713 162.628 11.1075 164.017 9.23688C164.099 5.19417 164.028 1.14236 164.052 -2.90398C164.052 -22.8233 164.052 -42.7427 164.052 -62.6638C164.037 -67.8126 164.081 -72.9631 164.028 -78.1119C163.864 -85.0913 162.822 -92.0525 160.918 -98.7704C157.798 -109.816 152.331 -120.184 145.016 -129.029C136.549 -139.296 125.602 -147.506 113.354 -152.715C100.216 -158.338 85.6113 -160.423 71.4203 -158.806Z" fill="white"/>
<path d="M54.2871 2.46082C54.5813 1.9087 54.7394 1.25123 55.2534 0.849854C55.5477 1.38563 55.2752 1.98497 55.1735 2.5371C54.614 4.9472 53.3516 7.1557 51.7042 8.98825C48.0968 12.9748 43.4759 15.8753 38.6969 18.26C33.9579 20.69 28.8992 22.6315 24.6434 25.9007C22.9523 27.2828 21.2122 28.8066 20.4003 30.8953C20.2822 31.1731 20.146 31.4401 19.9952 31.7071C19.9807 31.6671 19.948 31.5872 19.9316 31.5455C20.4602 28.8684 22.0132 26.5091 23.8587 24.5404C25.2355 22.9131 27.0592 21.7616 28.8683 20.6737C35.3075 16.9668 41.9919 13.6504 48.0859 9.37146C50.647 7.59159 52.9012 5.27957 54.2871 2.46082Z" fill="white"/>
<path d="M31.5059 6.7454C32.0599 5.51583 32.6447 4.29897 33.384 3.16748C34.1687 3.85219 35.3639 4.43338 35.353 5.6357C35.2259 6.78172 34.5756 7.87872 33.622 8.53618C32.8536 8.0222 32.1089 7.44827 31.5059 6.7454Z" fill="white"/>
<path d="M30.7749 10.2085C31.9465 9.74534 33.2088 9.37485 34.4803 9.52922C35.027 9.59279 35.314 10.2139 35.0996 10.7024C34.7509 11.6941 34.255 12.6257 33.8118 13.5774C33.5903 14.0005 33.4213 14.5563 32.9019 14.6979C31.3071 15.221 29.6325 15.5134 28.0958 16.2108C22.5778 18.7352 17.345 21.9715 12.8931 26.116C9.46569 29.3541 6.28711 33.0263 4.46169 37.4232C2.55091 41.9417 2.50913 47.1286 3.9622 51.7797C5.02294 55.1251 7.05542 58.1235 9.65823 60.4645C14.2899 64.6289 20.2983 66.9735 26.383 67.9924C34.4657 69.3181 42.8082 69.1056 50.8037 67.3167C52.3421 67.0153 53.8242 66.485 55.3681 66.2198C55.3681 66.2925 55.3663 66.4377 55.3663 66.5104C48.5587 68.5426 41.4949 69.8557 34.3731 69.843C29.489 69.8394 24.5976 69.1892 19.9114 67.798C14.9637 66.3215 10.2522 63.7735 6.66309 60.0177C4.05665 57.2899 2.2385 53.8247 1.47927 50.1289C0.425794 44.9402 1.01065 39.4518 2.99228 34.5519C5.01022 29.5466 8.4322 25.237 12.3101 21.5375C17.5702 16.5032 23.9492 12.7056 30.7749 10.2085Z" fill="white"/>
<path d="M52.5649 10.1064C53.3877 10.8057 54.6556 11.4504 54.5284 12.72C54.3268 13.806 53.7383 14.9049 52.7556 15.4697C52.0509 14.9285 51.3061 14.4145 50.7285 13.7334C51.1645 12.4475 51.8601 11.2615 52.5649 10.1064Z" fill="white"/>
<path d="M51.6204 16.8846C52.5431 16.525 53.5203 16.1763 54.5283 16.2907C54.9061 16.3143 55.1586 16.7411 55.0078 17.0898C54.7027 17.9779 54.2631 18.8169 53.8399 19.6542C53.6983 19.9611 53.3332 20.021 53.0444 20.1227C51.8547 20.4569 50.6359 20.7293 49.5243 21.2942C43.8156 23.9657 38.5119 27.805 34.8501 32.9973C33.0665 35.5526 31.9186 38.6164 31.964 41.7601C31.9386 45.1618 33.0393 48.6015 35.257 51.2077C37.0788 53.3888 39.4909 55.0161 42.0628 56.1911C45.5683 57.7821 49.419 58.4413 53.2405 58.6883C58.4371 59.0298 63.6917 58.4958 68.703 57.072C68.9936 57.032 69.375 56.8068 69.6166 57.0792C62.5965 59.2168 55.0877 60.232 47.8115 58.9171C44.2115 58.2706 40.6515 57.0829 37.6201 54.9961C35.1426 53.3216 33.0193 51.0388 31.8314 48.271C30.1876 44.4662 30.213 40.0929 31.3265 36.1465C32.6869 31.4136 35.8473 27.4254 39.4546 24.1727C42.991 20.9872 47.1703 18.5518 51.6204 16.8846Z" fill="white"/>
<path d="M80.0698 21.0906C80.2296 21.1687 80.5511 21.1505 80.5112 21.4229C80.6147 23.0502 80.3949 24.6757 80.3531 26.3049C80.1951 29.9809 79.8936 33.7459 78.4096 37.1603C77.6721 38.8784 76.526 40.4549 74.9729 41.521C74.1047 42.124 72.9731 42.2675 71.9541 42.0459C71.4528 41.9242 71.1894 41.3448 71.3347 40.8708C71.5254 40.2043 72.1048 39.7611 72.6171 39.3398C74.1229 38.201 75.507 36.8661 76.555 35.2878C77.5777 33.7658 78.1516 31.9733 78.2879 30.1498C78.455 28.8512 78.2624 27.5381 78.4459 26.2431C78.6675 24.4342 79.5812 22.825 80.0698 21.0906Z" fill="white"/>
<path d="M50.7636 24.7319C51.1341 24.6628 51.4483 24.9353 51.7135 25.155C52.1477 25.5619 52.5854 26.0613 52.6308 26.6843C52.5963 27.4652 52.1186 28.13 51.659 28.7293C51.4483 28.96 51.2395 29.2706 50.9016 29.3069C50.284 28.9382 49.8426 28.3479 49.2723 27.9175C48.8255 28.6403 48.5185 29.6483 47.6539 29.9607C46.9673 29.5993 46.4224 29.0108 45.832 28.5132C46.3061 27.4017 46.7875 26.2248 47.603 25.3239C48.4204 25.4711 48.8818 26.2756 49.4158 26.8387C49.8681 26.1376 50.2186 25.3657 50.7636 24.7319Z" fill="white"/>
<path d="M93.1171 24.7992C93.3278 24.6866 93.6421 24.6412 93.7892 24.8827C93.94 25.3804 93.6239 25.8562 93.4913 26.3229C93.3151 26.7007 93.2715 27.2237 92.832 27.3963C91.3626 28.1518 90.142 29.325 89.1703 30.6471C85.9118 34.9586 82.6187 39.321 78.4466 42.8043C75.7457 45.0872 72.638 46.936 69.2378 47.9549C66.0755 48.9174 62.6881 49.0627 59.4387 48.4961C58.249 48.2618 57.052 47.9658 55.9695 47.4064C55.6534 47.2121 55.1866 46.9052 55.341 46.4711C55.3574 46.1642 55.7479 46.2023 55.9586 46.1442C58.3816 45.9372 60.8209 46.1206 63.2457 45.8936C68.8727 45.4995 74.4634 43.5399 78.8226 39.9076C81.4272 37.7355 83.6813 35.1784 85.801 32.5395C87.7136 30.1767 89.5535 27.7213 91.8584 25.7182C92.2562 25.384 92.6558 25.0425 93.1171 24.7992Z" fill="white"/>
<path d="M143.995 27.5417C144.407 26.7989 144.865 26.0288 145.581 25.5403C144.825 27.5944 144.845 29.8102 144.602 31.9587C144.367 34.0964 144.525 36.314 143.766 38.3645C143.196 39.8901 142.586 41.4048 141.921 42.8923C140.722 45.464 138.635 47.5399 136.215 48.9856C134.984 49.8465 133.522 50.2551 132.107 50.7001C129.409 51.4992 126.474 51.4339 123.8 50.573C122.502 50.148 121.268 49.4342 120.373 48.3881C119.739 47.6344 119.219 46.7063 119.276 45.691C119.89 45.7473 120.371 46.1669 120.939 46.3685C122.236 46.8643 123.613 47.1349 124.999 47.2275C128.735 47.4509 132.546 46.9642 136.017 45.5221C138.095 44.674 140.034 43.4535 141.608 41.8479C142.173 41.3013 142.469 40.5403 142.606 39.7793C142.956 37.6761 142.705 35.5294 142.876 33.4099C143.051 31.4302 143.04 29.3434 143.995 27.5417Z" fill="white"/>
<path d="M73.2218 27.7616C74.6258 26.9389 76.0607 26.1017 77.6427 25.6731C78.1967 26.4395 77.7662 27.4511 77.492 28.2466C77.165 28.8513 77.0016 29.6831 76.2932 29.9555C74.8438 30.5748 73.3108 30.998 71.9176 31.7462C70.6789 32.4037 69.4983 33.1646 68.3376 33.951C65.7857 35.9778 62.945 37.6796 59.8644 38.7692C57.7557 39.5284 55.4871 39.7463 53.2566 39.6337C51.1769 39.5683 49.3152 38.3915 47.8603 36.9803C47.6478 36.7116 47.2972 36.8532 47.1101 37.0693C46.024 38.2952 45.3592 39.888 44.0532 40.9213C43.3176 41.5534 42.2696 41.3718 41.425 41.0957C40.3407 40.7434 39.8067 39.572 39.694 38.515C39.4307 35.7744 40.13 33.0194 41.3015 30.5567C41.7465 29.6395 42.2187 28.7206 42.8599 27.9251C42.9743 27.7344 43.176 27.6636 43.3903 27.6945C43.0888 28.6697 42.4876 29.5142 42.1207 30.4641C41.4868 32.0187 41.0581 33.7912 41.5885 35.4384C42.1497 37.2509 44.8742 37.5779 46.073 36.2376C46.9376 35.4039 47.5878 34.2634 48.7467 33.7967C49.5931 33.4371 50.4231 34.0073 51.2496 34.1581C53.7416 34.8863 56.4007 35.2078 58.9708 34.7302C60.9561 34.3433 62.9449 33.8584 64.7667 32.9576C67.7292 31.4684 70.4319 29.536 73.2218 27.7616Z" fill="white"/>
<path d="M13.1275 29.2433C13.4326 28.6494 13.7033 28.0283 14.1392 27.5161C14.1719 28.2353 13.8559 28.8964 13.6252 29.5612C13.0984 30.9124 12.5862 32.3091 12.5444 33.7766C12.5244 34.6574 12.8732 35.5419 13.5452 36.1231C14.0121 35.2622 14.3172 34.325 14.7877 33.4696C15.0274 33.1427 15.4434 33.3588 15.7413 33.4605C16.486 33.7166 17.2671 34.2088 17.4215 35.0461C17.7829 37.0784 16.8002 39.3414 15.0038 40.3912C14.0593 40.9778 12.7151 40.8397 11.9777 39.9861C11.2075 39.078 11.0531 37.8285 11.0695 36.6825C11.1512 34.0817 11.9795 31.559 13.1275 29.2433Z" fill="white"/>
<path d="M119.111 27.6977C119.411 27.2237 119.8 27.7795 119.576 28.1318C118.915 29.997 118.305 31.9493 118.463 33.9561C118.545 35.1075 118.982 36.308 119.927 37.0272C120.405 37.414 120.995 37.6174 121.592 37.7409C122.373 36.0937 122.924 34.3012 124.068 32.8519C124.789 31.9675 125.759 31.0848 126.985 31.1502C127.626 31.1974 128.482 31.3046 128.743 32.0001C128.949 32.4778 128.534 32.9609 128.099 33.1062C127.352 33.0281 126.662 32.5977 125.892 32.6957C124.544 32.7321 123.432 34.1232 123.598 35.4308C123.861 36.8438 125.69 37.454 126.856 36.7348C127.804 36.1428 128.119 34.9695 128.929 34.2431C128.645 35.7305 127.773 37.0145 126.929 38.2386C125.823 39.8186 124.286 41.1534 122.432 41.7564C121.342 42.0343 120.083 42.0942 119.109 41.444C118.065 40.7993 117.418 39.6806 117.122 38.5146C116.645 39.5879 116.142 40.6486 115.537 41.6565C116.756 41.7165 118.125 41.9235 118.97 42.8988C119.482 43.5362 119.133 44.3934 118.859 45.0581C118.454 46.1533 117.615 47.1285 116.47 47.4736C115.099 47.8841 113.65 47.9821 112.307 48.4997C110.667 49.0336 109.319 50.2396 108.364 51.6507C107.501 52.9057 107.252 54.4475 107.029 55.9222C106.422 60.5679 106.886 65.2572 106.958 69.921C106.931 71.2177 107.202 72.5417 106.931 73.8184C106.413 71.9296 106.292 69.9573 106.061 68.0195C105.625 62.5911 105.416 56.972 107.176 51.7397C107.75 50.1488 108.642 48.6813 109.735 47.3937C110.629 46.3875 111.663 45.4468 112.95 44.9837C113.328 43.9376 113.621 42.8497 114.236 41.909C115.025 40.4197 116.191 39.0976 116.59 37.4267C117.032 35.4399 117.206 33.3986 117.789 31.4444C118.172 30.1786 118.51 28.8782 119.111 27.6977Z" fill="white"/>
<path d="M101.434 28.3264C101.514 28.2992 101.672 28.2483 101.752 28.2229C102.589 28.5153 103.292 29.2945 103.592 30.1226C103.468 31.0889 102.916 31.9534 102.331 32.7107C101.994 33.2411 101.492 32.5654 101.125 32.402C100.724 32.026 99.763 31.8117 100.003 31.1088C100.357 30.1299 100.807 29.1601 101.434 28.3264Z" fill="white"/>
<path d="M23.0896 32.3362C23.3511 31.3028 23.5964 30.2385 24.1613 29.3213C25.4346 29.7408 26.8568 30.3039 27.449 31.6115C28.2246 33.2842 27.6996 35.1913 27.0076 36.7968C26.479 37.9337 25.9159 39.1742 24.8061 39.8571C24.194 40.2585 23.4329 40.0423 22.7517 40.0859C21.4675 40.164 20.1252 40.8197 19.5567 42.0256C18.7375 43.751 17.9147 45.6435 16.2363 46.7096C15.1483 47.4488 13.7678 47.0783 12.5581 47.3998C11.4592 47.585 10.5074 48.2098 9.4375 48.4858C9.71541 48.1335 10.0769 47.8629 10.462 47.6413C12.4182 46.4662 14.3636 45.2675 16.2109 43.929C17.3643 43.1172 18.436 42.1328 19.0681 40.8505C19.662 39.6718 20.2851 38.4114 21.4548 37.6994C22.5774 36.9439 23.9433 36.6969 25.2765 36.7405C26.4354 36.7677 26.8132 35.2585 26.4735 34.3722C25.8487 33.1044 24.3683 32.6359 23.0896 32.3362Z" fill="white"/>
<path d="M98.8282 33.0319C99.1261 32.4635 99.7818 32.9139 100.098 33.2299C100.608 33.7439 101.386 34.4032 101.017 35.2132C100.694 36.0632 100.25 36.9023 99.573 37.527C98.89 37.0021 97.9727 36.677 97.4805 35.9687C97.6948 34.9062 98.2706 33.9473 98.8282 33.0319Z" fill="white"/>
<path d="M96.713 33.8433L96.831 33.8016C96.8528 33.876 96.9001 34.0232 96.9237 34.0976C96.5113 35.0893 95.8792 35.981 95.545 37.0108C94.9674 38.5927 94.6405 40.4689 95.4724 42.0217C96.2516 43.5001 98.266 44.0213 99.7409 43.3294C101.201 42.7264 101.761 40.9883 103.201 40.378C103.924 40.0784 104.66 40.4761 105.39 40.4816C106.129 40.3236 106.625 38.9814 105.73 38.6799C105.265 38.6672 104.93 39.1194 104.469 39.1485C103.931 39.1975 103.368 39.0831 102.925 38.7707C102.48 38.4565 102.304 37.8136 102.573 37.3304C103.039 36.3515 103.514 35.3726 104.039 34.4227C104.66 33.4038 106.216 33.5891 106.936 34.4027C107.74 35.2563 107.768 36.5168 107.651 37.6156C107.428 39.459 106.678 41.3043 105.285 42.572C104.961 42.8608 104.582 43.1859 104.115 43.1369C103.564 43.0497 102.989 42.7464 102.44 43.0133C101.376 43.4311 100.932 44.5753 100.373 45.4816C99.71 46.6857 98.4349 47.6029 97.0308 47.6156C95.8066 47.5847 94.6732 46.8128 94.0665 45.7703C93.4398 44.7369 93.3199 43.491 93.3399 42.3105C93.5434 39.5135 94.6604 36.8655 96.0936 34.4863C96.2607 34.2411 96.3987 33.9214 96.713 33.8433Z" fill="white"/>
<path d="M89.4063 37.245C89.5498 36.6765 90.0366 36.1244 90.6687 36.1735C91.8893 36.277 92.8774 37.463 92.852 38.6707C92.8992 41.9472 91.3226 45.2962 88.5072 47.0634C87.8642 47.423 87.2139 47.799 86.5019 48.0006C85.7644 47.9969 85.0433 47.7118 84.3022 47.8207C83.3268 47.9515 82.4567 48.5036 81.4668 48.5672C82.0026 47.9406 82.8218 47.7136 83.523 47.3358C86.2294 46.0264 89.0612 44.6497 90.9629 42.2359C91.2209 41.8963 91.5605 41.4041 91.2736 40.9846C90.8739 40.5214 90.2418 40.9065 89.746 40.921C89.1956 41.0554 88.6379 40.5178 88.7923 39.9639C88.9794 39.0539 89.1647 38.1422 89.4063 37.245Z" fill="white"/>
<path d="M149.717 37.9571C150.133 37.3505 150.407 36.466 151.177 36.2444C150.835 37.4249 150.062 38.4275 149.704 39.6062C149.19 41.0791 148.925 42.7791 149.595 44.2466C149.955 45.0657 151.012 45.5415 151.844 45.1619C152.467 44.8713 152.779 44.2266 153.202 43.7235C153.268 43.7417 153.398 43.7744 153.464 43.7925C153.34 45.1983 152.843 46.584 152.08 47.7736C151.555 48.5128 150.868 49.3501 149.878 49.3701C148.905 49.4355 148.138 48.6236 147.826 47.7736C147.453 46.7202 147.493 45.576 147.597 44.4809C147.795 42.1797 148.623 39.9749 149.717 37.9571Z" fill="white"/>
<path d="M87.1419 37.7069C87.2926 37.3582 87.398 36.9441 87.7685 36.7625C87.6741 38.8656 87.071 40.9433 86.0411 42.7777C85.2474 44.1907 84.1085 45.5856 82.4883 46.0451C81.4692 46.3811 80.403 45.8761 79.3804 46.1595C78.4903 46.3919 77.6984 46.9132 76.7793 47.0549C77.1735 46.4791 77.8419 46.2158 78.4195 45.8743C80.6918 44.5885 83.0368 43.3099 84.8423 41.3865C85.8395 40.324 86.6024 39.0563 87.1419 37.7069Z" fill="white"/>
<path d="M109.823 36.9768C110.199 36.6789 110.727 36.7279 111.136 36.9277C112.124 37.3836 112.747 38.5151 112.587 39.5993C112.357 42.0222 111.33 44.4232 109.516 46.085C108.417 47.1439 107.02 47.8703 105.545 48.2354C104.871 48.1864 104.241 47.8958 103.563 47.8794C102.501 47.8576 101.527 48.4352 100.461 48.3916C101.093 47.8158 101.949 47.6324 102.711 47.3019C105.485 46.2194 108.382 45.0661 110.444 42.8286C110.76 42.4907 111.169 41.9059 110.738 41.4991C110.339 41.1922 109.817 41.4428 109.369 41.4319C108.907 41.5118 108.404 41.1613 108.411 40.6745C108.491 40.0153 108.769 39.4032 108.936 38.7657C109.145 38.1391 109.261 37.3963 109.823 36.9768Z" fill="white"/>
<path d="M145.815 42.6117C146.01 42.2521 146.146 41.8235 146.518 41.6001C146.355 43.4472 145.756 45.2488 144.856 46.8671C144.064 48.2692 143.022 49.6368 141.527 50.3342C140.621 50.7865 139.589 50.6993 138.626 50.514C137.331 50.2852 136.214 51.166 134.957 51.2695C135.393 50.7138 136.08 50.494 136.683 50.1816C139.088 48.9975 141.576 47.826 143.507 45.919C144.468 44.9673 145.227 43.8268 145.815 42.6117Z" fill="white"/>
<path d="M151.255 56.1677C151.678 55.4158 152.074 54.6457 152.59 53.9519C153.46 54.2298 154.221 55.0071 154.332 55.9316C154.29 56.8451 153.745 57.6442 153.196 58.3417C153.042 58.4797 152.846 58.7775 152.61 58.6286C152.041 58.2527 151.649 57.6679 151.122 57.2429C150.722 57.9784 150.423 58.8502 149.694 59.3351C149.004 59.1154 148.49 58.5051 147.954 58.0293C147.651 57.7986 147.954 57.4535 148.036 57.1938C148.481 56.2984 148.87 55.3558 149.5 54.5712C150.223 54.9254 150.802 55.5066 151.255 56.1677Z" fill="white"/>
<path d="M149.514 61.3745C149.964 60.3647 150.496 59.3858 151.154 58.4958C151.929 58.7574 152.54 59.4802 152.672 60.2866C152.683 61.1657 152.18 61.9557 151.672 62.6368C151.524 62.7875 151.288 63.1635 151.067 62.9056C150.558 62.3843 150.022 61.8921 149.514 61.3745Z" fill="white"/>
</g>
</svg>
