<svg width="41" height="41" viewBox="0 0 41 41" fill="none" xmlns="http://www.w3.org/2000/svg">
    <g id="Group 282">
        <path id="Vector"
              d="M16.222 0.999149C17.2639 0.89426 18.3332 0.983739 19.3293 1.31133C19.3283 1.33072 19.3259 1.36899 19.3249 1.38838C17.9662 2.08184 16.7972 3.14812 16.0103 4.4555C15.9331 4.60413 15.7648 4.68864 15.5989 4.66527C14.7876 4.60463 13.9574 4.80794 13.2735 5.24987C12.0951 5.99105 11.3765 7.43016 11.5677 8.81657C11.7261 9.70092 12.1674 10.5261 12.772 11.1873C14.5391 12.9525 16.3077 14.7167 18.0752 16.4809C18.266 16.6633 18.4553 16.8592 18.5544 17.1087C18.7984 17.6625 18.647 18.357 18.1923 18.7576C17.6589 19.2632 16.7395 19.2577 16.2145 18.7417C14.4191 16.9541 12.6276 15.1626 10.8336 13.373C9.71595 12.257 9.00423 10.7389 8.89167 9.16256C8.86727 7.68567 9.26969 6.20579 10.0267 4.93769C10.7713 3.68449 11.8601 2.63859 13.143 1.94364C14.0923 1.42666 15.1467 1.10702 16.222 0.999149Z"
              fill="#0021AE"/>
        <path id="Vector_2"
              d="M22.1496 1.00086C23.8689 0.810968 25.6485 1.21561 27.1082 2.1437C28.5137 3.02705 29.6204 4.37419 30.2076 5.92565C30.3306 6.22789 30.3989 6.54852 30.4676 6.86666C30.6175 7.58845 30.6917 8.32566 30.6937 9.06286C30.7052 9.40387 30.4248 9.71655 30.0901 9.76178C29.7853 9.81497 29.4605 9.64546 29.33 9.36659C29.2548 9.22839 29.2588 9.06783 29.2489 8.91572C29.1926 7.87081 28.7498 6.85523 28.0326 6.09367C27.0046 4.97917 25.3934 4.44329 23.9023 4.72863C23.7813 4.74603 23.7469 4.89665 23.8176 4.98414C24.3919 6.03402 24.7131 7.21961 24.749 8.41563C24.8038 9.99443 24.3565 11.5871 23.4799 12.903C22.7523 14.0031 21.7407 14.9152 20.5658 15.5177C20.3258 15.6405 20.0444 15.6808 19.7794 15.6286C19.5423 15.5873 19.3361 15.4561 19.13 15.3408C17.7802 14.5648 16.6766 13.3722 16.0097 11.9674C15.4095 10.7142 15.167 9.2965 15.3019 7.91505C15.4464 6.37901 16.0729 4.89516 17.0675 3.71504C18.3281 2.20236 20.1878 1.20418 22.1496 1.00086ZM19.7047 6.56442C19.5224 6.62457 19.3705 6.74587 19.2246 6.86666C18.6319 7.36227 18.2369 8.08904 18.1563 8.85805C18.0671 9.63403 18.2937 10.4398 18.7758 11.0547C19.0403 11.4047 19.4009 11.6612 19.7296 11.9465C19.8621 12.0663 20.0728 12.0912 20.2252 11.9938C20.6918 11.6175 21.1859 11.2402 21.4793 10.7038C21.8503 10.0635 21.9703 9.28506 21.8149 8.56178C21.6561 7.79674 21.1839 7.10328 20.5325 6.67031C20.2909 6.51372 19.9781 6.47395 19.7047 6.56442Z"
              fill="#0021AE"/>
        <path id="Vector_3"
              d="M27.4578 11.9043C28.5959 10.7093 30.1797 9.93679 31.8322 9.82643C33.4768 9.80356 35.1218 10.3056 36.478 11.2337C37.8571 12.1703 38.9369 13.5393 39.5186 15.1002C40.1158 16.7023 40.2159 18.5019 39.7173 20.1438C39.7074 20.2064 39.6725 20.2462 39.6128 20.2636C38.9269 18.8995 37.8546 17.7308 36.5453 16.941C36.3884 16.8629 36.2937 16.6909 36.3216 16.5164C36.3963 15.5456 36.0791 14.5519 35.4466 13.8092C34.5481 12.7295 32.9822 12.1708 31.6245 12.6286C30.7669 12.9015 30.0019 13.422 29.3997 14.0861C27.6959 15.7852 25.9945 17.4868 24.2897 19.1849C23.7513 19.7242 22.7886 19.7158 22.2587 19.1685C21.7048 18.6505 21.6784 17.6951 22.2054 17.1492C23.9535 15.3979 25.7077 13.6531 27.4578 11.9043Z"
              fill="#0021AE"/>
        <path id="Vector_4"
              d="M6.99835 10.3417C7.38833 10.3024 7.78079 10.279 8.17276 10.2835C8.55576 10.2979 8.86853 10.6732 8.82919 11.051C8.81076 11.4089 8.48752 11.7157 8.12793 11.7157C7.00134 11.742 5.89417 12.2083 5.08832 12.9947C4.00954 14.0232 3.49555 15.606 3.78343 17.0689C3.83224 17.2578 4.04441 17.1559 4.15448 17.0834C5.57542 16.3347 7.23642 16.0608 8.8257 16.2895C11.2871 16.6245 13.5273 18.2396 14.6235 20.4637C14.7645 20.7848 14.7545 21.1676 14.5986 21.4812C13.8665 22.9178 12.6677 24.1104 11.2293 24.8411C9.61362 25.6718 7.69911 25.8935 5.93302 25.4725C4.47921 25.1304 3.13447 24.3515 2.10998 23.2673C1.38531 22.5033 0.818529 21.5901 0.460928 20.6004C-0.0605321 19.1737 -0.140221 17.5919 0.225349 16.118C0.548087 14.8056 1.22942 13.5848 2.17173 12.6149C3.02041 11.7395 4.07828 11.0649 5.23575 10.6757C5.811 10.5102 6.40318 10.4053 6.99835 10.3417ZM7.65179 19.1374C6.86985 19.291 6.15814 19.7687 5.71985 20.4328C5.56595 20.6734 5.5296 20.9831 5.62024 21.2535C5.67752 21.428 5.79406 21.5737 5.90861 21.7139C6.38674 22.29 7.08202 22.6832 7.82561 22.7841C8.62997 22.9009 9.47616 22.6782 10.1162 22.1787C10.4643 21.9177 10.7188 21.5613 11.0017 21.2366C11.1247 21.1069 11.1591 20.8986 11.0659 20.7425C10.7068 20.2956 10.3477 19.8229 9.84521 19.5256C9.19824 19.1255 8.39738 18.9863 7.65179 19.1374Z"
              fill="#0021AE"/>
        <path id="Vector_5"
              d="M31.3048 16.2555C33.0559 16.0228 34.8833 16.4096 36.3814 17.3456C37.8008 18.222 38.924 19.5691 39.5201 21.1261C40.1317 22.6984 40.1995 24.4731 39.7188 26.0891C39.0838 28.2679 37.4263 30.1162 35.331 30.9935C34.7991 31.2341 34.2238 31.351 33.6511 31.4479C33.0664 31.5418 32.4737 31.5896 31.8815 31.5881C31.623 31.5846 31.3835 31.4151 31.2739 31.1849C31.1185 30.8752 31.2296 30.4656 31.5214 30.2777C31.7575 30.1077 32.0623 30.1693 32.3327 30.1236C33.7856 29.9591 35.1203 29.0384 35.7982 27.747C36.2748 26.8576 36.4402 25.8053 36.2559 24.8136C36.2424 24.6987 36.0975 24.653 36.0103 24.7201C34.2836 25.6696 32.1868 25.9102 30.2862 25.3912C28.3553 24.8752 26.6559 23.5703 25.6489 21.8484C25.5318 21.6406 25.3979 21.4358 25.3436 21.2006C25.2813 20.9302 25.3127 20.6384 25.4367 20.3899C26.1255 19.0392 27.2262 17.9029 28.5525 17.1652C29.4007 16.6904 30.3405 16.3802 31.3048 16.2555ZM31.3122 19.0929C30.7848 19.1739 30.2813 19.3976 29.8669 19.7332C29.5432 19.9897 29.3011 20.3282 29.0312 20.6364C28.8937 20.7811 28.8743 21.0227 29.0033 21.1793C29.323 21.5526 29.6184 21.9602 30.0307 22.2401C30.6344 22.6681 31.3994 22.8605 32.1345 22.7725C32.8821 22.6899 33.5908 22.3136 34.0814 21.7455C34.2552 21.5461 34.427 21.3214 34.4554 21.0495C34.5027 20.7508 34.3797 20.454 34.1865 20.2308C33.5266 19.3703 32.3845 18.914 31.3122 19.0929Z"
              fill="#0021AE"/>
        <path id="Vector_6"
              d="M19.7554 19.4882C20.4781 19.3396 21.2535 19.8223 21.4393 20.5341C21.653 21.2276 21.261 22.0319 20.5847 22.2949C19.9282 22.5817 19.0945 22.2999 18.7469 21.675C18.3768 21.0665 18.5407 20.2071 19.1109 19.779C19.2977 19.6309 19.5213 19.531 19.7554 19.4882Z"
              fill="#0021AE"/>
        <path id="Vector_7"
              d="M0.353939 21.6372L0.407231 21.6094C0.491402 21.7058 0.538219 21.8271 0.60197 21.9375C1.26687 23.1275 2.23608 24.1476 3.39454 24.8689C3.50162 24.9375 3.63012 24.9981 3.68242 25.1219C3.73571 25.2288 3.7123 25.3511 3.7113 25.4659C3.661 26.4203 3.99868 27.3867 4.62872 28.106C5.52521 29.1484 7.05074 29.6858 8.38253 29.2518C9.16945 29.0003 9.8976 28.5564 10.4669 27.9569C12.227 26.1996 13.9866 24.4419 15.7487 22.6861C16.2841 22.1487 17.2414 22.1547 17.7723 22.696C18.3316 23.213 18.361 24.1739 17.8316 24.7222C16.1272 26.4318 14.4139 28.1328 12.7061 29.8394C12.2803 30.2828 11.8171 30.6949 11.2936 31.021C10.3737 31.6051 9.30891 31.966 8.22016 32.044C6.55418 32.0709 4.88621 31.5574 3.51806 30.6089C2.14045 29.6609 1.06665 28.2795 0.495884 26.7091C-0.087832 25.0941 -0.18296 23.2776 0.353939 21.6372Z"
              fill="#0021AE"/>
        <path id="Vector_8"
              d="M22.42 22.7933C22.913 22.6457 23.4793 22.7844 23.8449 23.1473C25.2574 24.5541 26.6663 25.9638 28.0768 27.3716C28.5315 27.8309 28.9987 28.2773 29.442 28.7471C30.1104 29.4878 30.6124 30.3776 30.8953 31.3335C31.0651 31.9281 31.1847 32.5479 31.1423 33.1688C31.0741 34.7158 30.5472 36.2384 29.6442 37.4971C28.666 38.8721 27.2496 39.9309 25.6498 40.4737C24.2239 40.9574 22.6595 41.0563 21.1933 40.6994C21.0184 40.6507 20.8367 40.6194 20.6758 40.5324C20.7674 40.4345 20.8934 40.3853 21.0085 40.3216C22.2446 39.6376 23.296 38.6255 24.0272 37.4186C24.1009 37.2799 24.2523 37.1864 24.4117 37.2053C25.1617 37.2615 25.9292 37.1034 26.5842 36.7306C27.8467 36.0346 28.6451 34.5637 28.4827 33.1261C28.3717 32.3844 28.0395 31.689 27.6012 31.0855C27.3606 30.7474 27.0508 30.4706 26.761 30.1768C25.1089 28.5279 23.4574 26.879 21.8049 25.2306C21.4602 24.8975 21.3018 24.389 21.3945 23.9197C21.4891 23.3913 21.9025 22.9375 22.42 22.7933Z"
              fill="#0021AE"/>
        <path id="Vector_9"
              d="M19.7551 26.2504C20.033 26.1867 20.3323 26.2235 20.5858 26.3538C22.1193 27.1397 23.3734 28.454 24.0841 30.0219C24.8526 31.6966 24.9811 33.6497 24.4512 35.413C23.99 36.9674 23.0183 38.3633 21.7249 39.343C20.4588 40.3099 18.885 40.8672 17.2912 40.9109C15.7826 40.9616 14.2615 40.5575 12.9811 39.7586C11.5507 38.8753 10.4241 37.5137 9.82989 35.9434C9.71534 35.6615 9.6491 35.3637 9.58435 35.068C9.42447 34.3154 9.34279 33.5453 9.34578 32.7763C9.34877 32.4388 9.63714 32.142 9.96885 32.1057C10.2622 32.064 10.5685 32.225 10.7015 32.489C10.7747 32.6202 10.7812 32.7738 10.7876 32.921C10.8355 33.949 11.2568 34.9526 11.9486 35.7147C12.9751 36.8705 14.6206 37.4362 16.1412 37.1404C16.2627 37.12 16.2881 36.9669 16.2179 36.8804C15.6636 35.8653 15.3458 34.723 15.294 33.5682C15.2148 31.9641 15.6541 30.339 16.5391 28.9974C17.2075 27.9773 18.1185 27.1163 19.1793 26.5119C19.3631 26.4094 19.5469 26.2966 19.7551 26.2504ZM19.8442 29.8593C19.6186 30.0095 19.4268 30.2048 19.2162 30.3743C18.4731 31.0022 18.0701 32.0018 18.1713 32.9687C18.2504 33.859 18.753 34.6976 19.4966 35.1942C19.7366 35.3543 20.0504 35.3975 20.3248 35.3086C20.546 35.2375 20.7243 35.0809 20.8966 34.9323C21.442 34.4416 21.8025 33.7502 21.8812 33.0204C21.9749 32.2265 21.7373 31.4008 21.2338 30.7795C20.9778 30.4519 20.6361 30.2093 20.3258 29.9379C20.1993 29.8191 20.0011 29.7768 19.8442 29.8593Z"
              fill="#0021AE"/>
    </g>
</svg>
