<svg width="23" height="10" viewBox="0 0 23 10" fill="none" xmlns="http://www.w3.org/2000/svg">
<path fill-rule="evenodd" clip-rule="evenodd" d="M6.17136 9.99792C5.90414 10.01 5.64612 9.96949 5.39731 9.87642C3.86109 8.40256 2.29871 6.95795 0.710026 5.54274C0.429993 5.17028 0.429993 4.79232 0.710026 4.40869C2.29871 2.99348 3.86109 1.54887 5.39731 0.0750155C6.33262 -0.165402 6.74828 0.172058 6.64439 1.08756C5.62918 2.12472 4.58284 3.13726 3.5052 4.12518C9.66893 4.15216 15.8326 4.17921 21.9963 4.20619C22.6679 4.72874 22.6679 5.24173 21.9963 5.74525C15.8326 5.77222 9.66893 5.79928 3.5052 5.82625C4.5229 6.78476 5.54068 7.74336 6.55838 8.70187C6.81855 9.24929 6.68954 9.68128 6.17136 9.99792Z" fill="white"/>
</svg>
