<svg width="23" height="22" viewBox="0 0 23 22" fill="none" xmlns="http://www.w3.org/2000/svg">
<path d="M10.0773 7.265C9.86778 7.40902 9.69983 7.60559 9.59028 7.835C9.49733 8.00564 9.34178 8.13355 9.15639 8.19178C8.97101 8.25001 8.77026 8.23402 8.59643 8.14717C8.4226 8.06032 8.28927 7.9094 8.22451 7.72619C8.15976 7.54298 8.16863 7.34179 8.24928 7.165C8.44928 6.763 8.76228 6.339 9.24628 6.017C9.73428 5.69 10.3513 5.5 11.1073 5.5C11.7653 5.5 12.4763 5.695 13.0413 6.119C13.3563 6.34926 13.6117 6.65142 13.7863 7.00034C13.961 7.34926 14.0498 7.73484 14.0453 8.125C14.0453 9.158 13.5323 9.845 13.0183 10.34C12.8283 10.523 12.6193 10.698 12.4393 10.848L12.2923 10.971C12.138 11.0972 11.9927 11.2338 11.8573 11.38V12.75C11.8573 12.9489 11.7783 13.1397 11.6376 13.2803C11.497 13.421 11.3062 13.5 11.1073 13.5C10.9084 13.5 10.7176 13.421 10.5769 13.2803C10.4363 13.1397 10.3573 12.9489 10.3573 12.75V11.277C10.3573 11.04 10.4243 10.773 10.6043 10.541C10.8243 10.261 11.0903 10.024 11.3223 9.827L11.5053 9.674L11.5063 9.673C11.6783 9.53 11.8303 9.403 11.9763 9.261C12.3443 8.906 12.5453 8.585 12.5453 8.125C12.5497 7.96775 12.5151 7.81184 12.4446 7.6712C12.3741 7.53056 12.2699 7.40956 12.1413 7.319C11.8733 7.118 11.4913 7 11.1073 7C10.6133 7 10.2933 7.121 10.0773 7.265ZM12.1073 16C12.1073 16.2652 12.0019 16.5196 11.8144 16.7071C11.6268 16.8946 11.3725 17 11.1073 17C10.8421 17 10.5877 16.8946 10.4002 16.7071C10.2126 16.5196 10.1073 16.2652 10.1073 16C10.1073 15.7348 10.2126 15.4804 10.4002 15.2929C10.5877 15.1054 10.8421 15 11.1073 15C11.3725 15 11.6268 15.1054 11.8144 15.2929C12.0019 15.4804 12.1073 15.7348 12.1073 16Z" fill="#727272"/>
<path d="M11.1074 0C17.1824 0 22.1074 4.925 22.1074 11C22.1074 17.075 17.1824 22 11.1074 22C5.03242 22 0.107422 17.075 0.107422 11C0.107422 4.925 5.03242 0 11.1074 0ZM1.60742 11C1.60742 13.5196 2.60831 15.9359 4.38991 17.7175C6.1715 19.4991 8.58786 20.5 11.1074 20.5C13.627 20.5 16.0433 19.4991 17.8249 17.7175C19.6065 15.9359 20.6074 13.5196 20.6074 11C20.6074 8.48044 19.6065 6.06408 17.8249 4.28249C16.0433 2.50089 13.627 1.5 11.1074 1.5C8.58786 1.5 6.1715 2.50089 4.38991 4.28249C2.60831 6.06408 1.60742 8.48044 1.60742 11Z" fill="#727272"/>
</svg>
