<svg width="11" height="23" viewBox="0 0 11 23" fill="none" xmlns="http://www.w3.org/2000/svg">
<path fill-rule="evenodd" clip-rule="evenodd" d="M10.2128 16.8286C10.2248 17.0959 10.1843 17.3539 10.0913 17.6027C8.61741 19.1389 7.17279 20.7013 5.75758 22.29C5.38513 22.57 5.00717 22.57 4.62354 22.29C3.20833 20.7013 1.76372 19.1389 0.289861 17.6027C0.0494434 16.6674 0.386903 16.2517 1.3024 16.3556C2.33957 17.3708 3.35211 18.4172 4.34003 19.4948C4.367 13.3311 4.39406 7.16742 4.42103 1.00369C4.94358 0.332105 5.45658 0.332105 5.96009 1.00369C5.98707 7.16742 6.01412 13.3311 6.0411 19.4948C6.99961 18.4771 7.9582 17.4593 8.91671 16.4416C9.46413 16.1815 9.89612 16.3105 10.2128 16.8286Z" fill="white"/>
</svg>
